{
DisplayStrings = (
"\U00BF",
"?",
"\U00B7"
);
copyright = "Copyright (c) 2016 ResearchGate";
customParameters = (
{
name = license;
value = "This Font Software is licensed under the SIL Open Font License, Version 1.1. This license is available with a FAQ at: http://scripts.sil.org/OFL";
},
{
name = licenseURL;
value = "http://scripts.sil.org/OFL";
},
{
name = vendorID;
value = "STC ";
},
{
name = glyphOrder;
value = (
    ".notdef",
    uni0000,
    uni000D,
    NULL,
    space,
    exclam,
    quotedbl,
    numbersign,
    dollar,
    percent,
    ampersand,
    quotesingle,
    parenleft,
    parenright,
    asterisk,
    plus,
    comma,
    hyphen,
    period,
    slash,
    zero,
    one,
    two,
    three,
    four,
    five,
    six,
    seven,
    eight,
    nine,
    colon,
    semicolon,
    less,
    equal,
    greater,
    question,
    at,
    A,
    B,
    C,
    D,
    E,
    F,
    G,
    H,
    I,
    J,
    K,
    L,
    M,
    N,
    O,
    P,
    Q,
    R,
    S,
    T,
    U,
    V,
    W,
    X,
    Y,
    Z,
    bracketleft,
    backslash,
    bracketright,
    asciicircum,
    underscore,
    grave,
    a,
    b,
    c,
    d,
    e,
    f,
    g,
    h,
    i,
    j,
    k,
    l,
    m,
    n,
    o,
    p,
    q,
    r,
    s,
    t,
    u,
    v,
    w,
    x,
    y,
    z,
    braceleft,
    bar,
    braceright,
    asciitilde,
    uni00A0,
    exclamdown,
    cent,
    sterling,
    currency,
    yen,
    brokenbar,
    section,
    dieresis,
    copyright,
    ordfeminine,
    guillemotleft,
    logicalnot,
    uni00AD,
    registered,
    macron,
    degree,
    plusminus,
    uni00B2,
    uni00B3,
    acute,
    uni00B5,
    paragraph,
    periodcentered,
    cedilla,
    uni00B9,
    ordmasculine,
    guillemotright,
    onequarter,
    onehalf,
    threequarters,
    questiondown,
    Agrave,
    Aacute,
    Acircumflex,
    Atilde,
    Adieresis,
    Aring,
    AE,
    Ccedilla,
    Egrave,
    Eacute,
    Ecircumflex,

glyphs = (
{
glyphname = A;
layers = (
{
layerId = "4C84AE98-85C0-4DB9-B47D-A9DF131BEAEE";
name = "Light Italic";
paths = (
{
closed = 1;
nodes = (
"764 1309 LINE",
"989 83 LINE",
"1134 59 LINE",
"1130 0 LINE",
"697 0 LINE",
"701 59 LINE",
"860 80 LINE",
"807 396 LINE",
"298 396 LINE",
"149 81 LINE",
"306 59 LINE",
"302 0 LINE",
"-103 0 LINE",
"-96 59 LINE",
"23 80 LINE",
"632 1309 LINE"
);
},
{
closed = 1;
nodes = (
"793 479 LINE",
"690 1095 LINE",
"679 1196 LINE",
"338 479 LINE"
);
}
);
width = 1154;
}
);
note = A;
unicode = 0041;
},
{
glyphname = Aacute;
layers = (
{
layerId = "4C84AE98-85C0-4DB9-B47D-A9DF131BEAEE";
name = "Light Italic";
paths = (
{
closed = 1;
nodes = (
"764 1309 LINE",
"989 83 LINE",
"1134 59 LINE",
"1130 0 LINE",
"697 0 LINE",
"701 59 LINE",
"860 80 LINE",
"807 396 LINE",
"298 396 LINE",
"149 81 LINE",
"306 59 LINE",
"302 0 LINE",
"-103 0 LINE",
"-96 59 LINE",
"23 80 LINE",
"632 1309 LINE"
);
},
{
closed = 1;
nodes = (
"793 479 LINE",
"690 1095 LINE",
"679 1196 LINE",
"338 479 LINE"
);
},
{
closed = 1;
nodes = (
"887 1720 LINE",
"968 1639 LINE",
"927 1556 OFFCURVE",
"786 1445 OFFCURVE",
"686 1388 CURVE",
"643 1420 LINE"
);
}
);
width = 1154;
}
);
note = Aacute;
unicode = 00C1;
},
{
glyphname = Abreve;
layers = (
{
layerId = "4C84AE98-85C0-4DB9-B47D-A9DF131BEAEE";
name = "Light Italic";
paths = (
{
closed = 1;
nodes = (
"764 1309 LINE",
"989 83 LINE",
"1134 59 LINE",
"1130 0 LINE",
"697 0 LINE",
"701 59 LINE",
"860 80 LINE",
"807 396 LINE",
"298 396 LINE",
"149 81 LINE",
"306 59 LINE",
"302 0 LINE",
"-103 0 LINE",
"-96 59 LINE",
"23 80 LINE",
"632 1309 LINE"
);
},
{
closed = 1;
nodes = (
"793 479 LINE",
"690 1095 LINE",
"679 1196 LINE",
"338 479 LINE"
);
},
{
closed = 1;
nodes = (
"474 1684 OFFCURVE",
"474 1695 OFFCURVE",
"475 1702 CURVE",
"546 1702 LINE",
"551 1598 OFFCURVE",
"596 1507 OFFCURVE",
"723 1507 CURVE SMOOTH",
"807 1507 OFFCURVE",
"868 1550 OFFCURVE",
"903 1610 CURVE SMOOTH",
"920 1640 OFFCURVE",
"931 1671 OFFCURVE",
"936 1702 CURVE",
"1004 1702 LINE",
"1004 1606 OFFCURVE",
"947 1506 OFFCURVE",
"860 1449 CURVE SMOOTH",
"816 1420 OFFCURVE",
"769 1406 OFFCURVE",
"720 1406 CURVE SMOOTH",
"611 1406 OFFCURVE",
"536 1459 OFFCURVE",
"501 1539 CURVE SMOOTH",
"483 1578 OFFCURVE",
"474 1621 OFFCURVE",
"474 1668 CURVE SMOOTH"
);
}
);
width = 1154;
}
);
note = Abreve;
unicode = 0102;
},
{
glyphname = Acircumflex;
layers = (
{
layerId = "4C84AE98-85C0-4DB9-B47D-A9DF131BEAEE";
name = "Light Italic";
paths = (
{
closed = 1;
nodes = (
"764 1309 LINE",
"989 83 LINE",
"1134 59 LINE",
"1130 0 LINE",
"697 0 LINE",
"701 59 LINE",
"860 80 LINE",
"807 396 LINE",
"298 396 LINE",
"149 81 LINE",
"306 59 LINE",
"302 0 LINE",
"-103 0 LINE",
"-96 59 LINE",
"23 80 LINE",
"632 1309 LINE"
);
},
{
closed = 1;
nodes = (
"793 479 LINE",
"690 1095 LINE",
"679 1196 LINE",
"338 479 LINE"
);
},
{
closed = 1;
nodes = (
"708 1720 LINE",
"825 1720 LINE",
"1015 1439 LINE",
"969 1398 LINE",
"761 1619 LINE",
"471 1400 LINE",
"430 1440 LINE"
);
}
);
width = 1154;
}
);
note = Acircumflex;
unicode = 00C2;
},
{
glyphname = Adieresis;
layers = (
{
layerId = "4C84AE98-85C0-4DB9-B47D-A9DF131BEAEE";
name = "Light Italic";
paths = (
{
closed = 1;
nodes = (
"764 1309 LINE",
"989 83 LINE",
"1134 59 LINE",
"1130 0 LINE",
"697 0 LINE",
"701 59 LINE",
"860 80 LINE",
"807 396 LINE",
"298 396 LINE",
"149 81 LINE",
"306 59 LINE",
"302 0 LINE",
"-103 0 LINE",
"-96 59 LINE",
"23 80 LINE",
"632 1309 LINE"
);
},
{
closed = 1;
nodes = (
"793 479 LINE",
"690 1095 LINE",
"679 1196 LINE",
"338 479 LINE"
);
},
{
closed = 1;
nodes = (
"474 1617 OFFCURVE",
"495 1653 OFFCURVE",
"524 1673 CURVE SMOOTH",
"539 1683 OFFCURVE",
"554 1688 OFFCURVE",
"569 1688 CURVE SMOOTH",
"616 1688 OFFCURVE",
"647 1655 OFFCURVE",
"647 1607 CURVE SMOOTH",
"647 1568 OFFCURVE",
"628 1532 OFFCURVE",
"597 1513 CURVE SMOOTH",
"581 1503 OFFCURVE",
"564 1498 OFFCURVE",
"547 1498 CURVE SMOOTH",
"507 1498 OFFCURVE",
"474 1533 OFFCURVE",
"474 1580 CURVE SMOOTH"
);
},
{
closed = 1;
nodes = (
"834 1620 OFFCURVE",
"856 1654 OFFCURVE",
"886 1674 CURVE",
"901 1683 OFFCURVE",
"915 1688 OFFCURVE",
"930 1688 CURVE SMOOTH",
"978 1688 OFFCURVE",
"1009 1655 OFFCURVE",
"1009 1608 CURVE SMOOTH",
"1009 1569 OFFCURVE",
"989 1533 OFFCURVE",
"958 1513 CURVE SMOOTH",
"943 1503 OFFCURVE",
"926 1498 OFFCURVE",
"908 1498 CURVE SMOOTH",
"865 1498 OFFCURVE",
"834 1533 OFFCURVE",
"834 1581 CURVE SMOOTH"
);
}
);
width = 1154;
}
);
note = Adieresis;
unicode = 00C4;
},
{
glyphname = Agrave;
layers = (
{
layerId = "4C84AE98-85C0-4DB9-B47D-A9DF131BEAEE";
name = "Light Italic";
paths = (
{
closed = 1;
nodes = (
"764 1309 LINE",
"989 83 LINE",
"1134 59 LINE",
"1130 0 LINE",
"697 0 LINE",
"701 59 LINE",
"860 80 LINE",
"807 396 LINE",
"298 396 LINE",
"149 81 LINE",
"306 59 LINE",
"302 0 LINE",
"-103 0 LINE",
"-96 59 LINE",
"23 80 LINE",
"632 1309 LINE"
);
},
{
closed = 1;
nodes = (
"793 479 LINE",
"690 1095 LINE",
"679 1196 LINE",
"338 479 LINE"
);
},
{
closed = 1;
nodes = (
"540 1720 LINE",
"774 1420 LINE",
"730 1388 LINE",
"669 1423 OFFCURVE",
"587 1485 OFFCURVE",
"522 1550 CURVE SMOOTH",
"489 1582 OFFCURVE",
"467 1612 OFFCURVE",
"454 1639 CURVE"
);
}
);
width = 1154;
}
);
note = Agrave;
unicode = 00C0;
},
{
glyphname = Amacron;
layers = (
{
layerId = "4C84AE98-85C0-4DB9-B47D-A9DF131BEAEE";
name = "Light Italic";
paths = (
{
closed = 1;
nodes = (
"764 1309 LINE",
"989 83 LINE",
"1134 59 LINE",
"1130 0 LINE",
"697 0 LINE",
"701 59 LINE",
"860 80 LINE",
"807 396 LINE",
"298 396 LINE",
"149 81 LINE",
"306 59 LINE",
"302 0 LINE",
"-103 0 LINE",
"-96 59 LINE",
"23 80 LINE",
"632 1309 LINE"
);
},
{
closed = 1;
nodes = (
"793 479 LINE",
"690 1095 LINE",
"679 1196 LINE",
"338 479 LINE"
);
},
{
closed = 1;
nodes = (
"942 1603 LINE",
"929 1501 LINE",
"491 1501 LINE",
"504 1603 LINE"
);
}
);
width = 1154;
}
);
note = Amacron;
unicode = 0100;
},
{
glyphname = Aogonek;
layers = (
{
layerId = "4C84AE98-85C0-4DB9-B47D-A9DF131BEAEE";
name = "Light Italic";
paths = (
{
closed = 1;
nodes = (
"764 1309 LINE",
"989 83 LINE",
"1134 59 LINE",
"1130 0 LINE",
"964 0 LINE",
"855 -80 OFFCURVE",
"793 -135 OFFCURVE",
"792 -194 CURVE",
"789 -243 OFFCURVE",
"815 -269 OFFCURVE",
"851 -269 CURVE SMOOTH",
"896 -269 OFFCURVE",
"942 -250 OFFCURVE",
"987 -211 CURVE",
"1005 -277 LINE",
"944 -331 OFFCURVE",
"873 -358 OFFCURVE",
"790 -358 CURVE SMOOTH",
"733 -358 OFFCURVE",
"695 -334 OFFCURVE",
"678 -301 CURVE",
"669 -285 OFFCURVE",
"665 -268 OFFCURVE",
"665 -250 CURVE SMOOTH",
"665 -215 OFFCURVE",
"676 -175 OFFCURVE",
"695 -150 CURVE",
"742 -83 OFFCURVE",
"795 -51 OFFCURVE",
"886 0 CURVE",
"697 0 LINE",
"701 59 LINE",
"860 80 LINE",
"807 396 LINE",
"298 396 LINE",
"149 81 LINE",
"306 59 LINE",
"302 0 LINE",
"-103 0 LINE",
"-96 59 LINE",
"23 80 LINE",
"632 1309 LINE"
);
},
{
closed = 1;
nodes = (
"793 479 LINE",
"690 1095 LINE",
"679 1196 LINE",
"338 479 LINE"
);
}
);
width = 1154;
}
);
note = Aogonek;
unicode = 0104;
},
{
glyphname = Aring;
layers = (
{
layerId = "4C84AE98-85C0-4DB9-B47D-A9DF131BEAEE";
name = "Light Italic";
paths = (
{
closed = 1;
nodes = (
"628 1301 LINE",
"527 1324 OFFCURVE",
"470 1394 OFFCURVE",
"470 1489 CURVE SMOOTH",
"470 1580 OFFCURVE",
"536 1653 OFFCURVE",
"626 1690 CURVE SMOOTH",
"671 1708 OFFCURVE",
"716 1717 OFFCURVE",
"761 1717 CURVE SMOOTH",
"852 1717 OFFCURVE",
"923 1684 OFFCURVE",
"960 1629 CURVE SMOOTH",
"978 1601 OFFCURVE",
"987 1569 OFFCURVE",
"987 1534 CURVE SMOOTH",
"987 1449 OFFCURVE",
"942 1382 OFFCURVE",
"875 1342 CURVE SMOOTH",
"842 1321 OFFCURVE",
"805 1307 OFFCURVE",
"765 1299 CURVE",
"989 83 LINE",
"1134 59 LINE",
"1130 0 LINE",
"697 0 LINE",
"701 59 LINE",
"860 80 LINE",
"807 396 LINE",
"298 396 LINE",
"149 81 LINE",
"306 59 LINE",
"302 0 LINE",
"-103 0 LINE",
"-96 59 LINE",
"23 80 LINE"
);
},
{
closed = 1;
nodes = (
"900 1576 OFFCURVE",
"875 1619 OFFCURVE",
"829 1643 CURVE SMOOTH",
"806 1655 OFFCURVE",
"780 1661 OFFCURVE",
"751 1661 CURVE SMOOTH",
"687 1661 OFFCURVE",
"624 1634 OFFCURVE",
"586 1584 CURVE SMOOTH",
"567 1559 OFFCURVE",
"557 1529 OFFCURVE",
"557 1496 CURVE SMOOTH",
"557 1441 OFFCURVE",
"582 1395 OFFCURVE",
"629 1369 CURVE SMOOTH",
"652 1356 OFFCURVE",
"680 1349 OFFCURVE",
"711 1349 CURVE SMOOTH",
"776 1349 OFFCURVE",
"838 1376 OFFCURVE",
"874 1429 CURVE SMOOTH",
"891 1456 OFFCURVE",
"900 1488 OFFCURVE",
"900 1527 CURVE SMOOTH"
);
},
{
closed = 1;
nodes = (
"793 479 LINE",
"690 1095 LINE",
"679 1196 LINE",
"338 479 LINE"
);
}
);
width = 1154;
}
);
note = Aring;
unicode = 00C5;
},
{
glyphname = Atilde;
layers = (
{
layerId = "4C84AE98-85C0-4DB9-B47D-A9DF131BEAEE";
name = "Light Italic";
paths = (
{
closed = 1;
nodes = (
"764 1309 LINE",
"989 83 LINE",
"1134 59 LINE",
"1130 0 LINE",
"697 0 LINE",
"701 59 LINE",
"860 80 LINE",
"807 396 LINE",
"298 396 LINE",
"149 81 LINE",
"306 59 LINE",
"302 0 LINE",
"-103 0 LINE",
"-96 59 LINE",
"23 80 LINE",
"632 1309 LINE"
);
},
{
closed = 1;
nodes = (
"793 479 LINE",
"690 1095 LINE",
"679 1196 LINE",
"338 479 LINE"
);
},
{
closed = 1;
nodes = (
"422 1548 LINE",
"457 1629 OFFCURVE",
"522 1690 OFFCURVE",
"611 1690 CURVE SMOOTH",
"666 1690 OFFCURVE",
"697 1667 OFFCURVE",
"749 1623 CURVE SMOOTH",
"794 1583 OFFCURVE",
"822 1563 OFFCURVE",
"862 1563 CURVE SMOOTH",
"923 1563 OFFCURVE",
"957 1598 OFFCURVE",
"994 1650 CURVE",
"1033 1594 LINE",
"1002 1521 OFFCURVE",
"939 1452 OFFCURVE",
"850 1452 CURVE SMOOTH",
"793 1452 OFFCURVE",
"760 1475 OFFCURVE",
"709 1520 CURVE",
"668 1559 OFFCURVE",
"640 1578 OFFCURVE",
"597 1578 CURVE SMOOTH",
"540 1578 OFFCURVE",
"499 1547 OFFCURVE",
"460 1491 CURVE"
);
}
);
width = 1154;
}
);
note = Atilde;
unicode = 00C3;
},
{
glyphname = AE;
layers = (
{
layerId = "4C84AE98-85C0-4DB9-B47D-A9DF131BEAEE";
name = "Light Italic";
paths = (
{
closed = 1;
nodes = (
"718 80 LINE",
"760 430 LINE",
"326 430 LINE",
"149 81 LINE",
"343 59 LINE",
"339 0 LINE",
"-139 0 LINE",
"-128 59 LINE",
"15 80 LINE",
"627 1224 LINE",
"359 1240 LINE",
"369 1309 LINE",
"1511 1309 LINE",
"1505 1056 LINE",
"1434 1056 LINE",
"1405 1224 LINE",
"992 1233 LINE",
"925 717 LINE",
"1308 734 LINE",
"1299 620 LINE",
"918 631 LINE",
"851 81 LINE",
"1361 97 LINE",
"1442 279 LINE",
"1511 257 LINE",
"1449 0 LINE",
"599 0 LINE",
"606 59 LINE"
);
},
{
closed = 1;
nodes = (
"369 513 LINE",
"770 513 LINE",
"855 1218 LINE",
"729 1222 LINE"
);
}
);
width = 1563;
}
);
note = AE;
unicode = 00C6;
},
{
glyphname = AEacute;
layers = (
{
layerId = "4C84AE98-85C0-4DB9-B47D-A9DF131BEAEE";
name = "Light Italic";
paths = (
{
closed = 1;
nodes = (
"1208 1720 LINE",
"1289 1639 LINE",
"1248 1556 OFFCURVE",
"1107 1445 OFFCURVE",
"1007 1388 CURVE",
"964 1420 LINE"
);
},
{
closed = 1;
nodes = (
"718 80 LINE",
"760 430 LINE",
"326 430 LINE",
"149 81 LINE",
"343 59 LINE",
"339 0 LINE",
"-139 0 LINE",
"-128 59 LINE",
"15 80 LINE",
"627 1224 LINE",
"359 1240 LINE",
"369 1309 LINE",
"1511 1309 LINE",
"1505 1056 LINE",
"1434 1056 LINE",
"1405 1224 LINE",
"992 1233 LINE",
"925 717 LINE",
"1308 734 LINE",
"1299 620 LINE",
"918 631 LINE",
"851 81 LINE",
"1361 97 LINE",
"1442 279 LINE",
"1511 257 LINE",
"1449 0 LINE",
"599 0 LINE",
"606 59 LINE"
);
},
{
closed = 1;
nodes = (
"369 513 LINE",
"770 513 LINE",
"855 1218 LINE",
"729 1222 LINE"
);
}
);
width = 1563;
}
);
note = AEacute;
unicode = 01FC;
},
{
glyphname = B;
layers = (
{
layerId = "4C84AE98-85C0-4DB9-B47D-A9DF131BEAEE";
name = "Light Italic";
paths = (
{
closed = 1;
nodes = (
"158 81 LINE",
"302 1223 LINE",
"185 1239 LINE",
"193 1309 LINE",
"398 1309 LINE",
"420 1310 OFFCURVE",
"455 1312 OFFCURVE",
"502 1315 CURVE SMOOTH",
"562 1320 OFFCURVE",
"608 1322 OFFCURVE",
"639 1322 CURVE SMOOTH",
"808 1322 OFFCURVE",
"924 1269 OFFCURVE",
"978 1186 CURVE SMOOTH",
"1032 1103 OFFCURVE",
"1047 941 OFFCURVE",
"951 821 CURVE SMOOTH",
"903 760 OFFCURVE",
"836 718 OFFCURVE",
"749 693 CURVE",
"846 681 OFFCURVE",
"931 630 OFFCURVE",
"978 549 CURVE SMOOTH",
"1001 508 OFFCURVE",
"1013 463 OFFCURVE",
"1013 413 CURVE SMOOTH",
"1013 218 OFFCURVE",
"901 91 OFFCURVE",
"729 32 CURVE SMOOTH",
"642 3 OFFCURVE",
"546 -12 OFFCURVE",
"439 -12 CURVE SMOOTH",
"404 -12 OFFCURVE",
"339 -7 OFFCURVE",
"319 -6 CURVE",
"272 -2 OFFCURVE",
"236 0 OFFCURVE",
"209 0 CURVE SMOOTH",
"23 0 LINE",
"29 59 LINE"
);
},
{
closed = 1;
nodes = (
"367 722 LINE",
"381 722 OFFCURVE",
"403 722 OFFCURVE",
"433 722 CURVE SMOOTH",
"571 722 LINE SMOOTH",
"694 722 OFFCURVE",
"794 766 OFFCURVE",
"850 857 CURVE SMOOTH",
"878 902 OFFCURVE",
"892 958 OFFCURVE",
"892 1025 CURVE SMOOTH",
"892 1170 OFFCURVE",
"808 1241 OFFCURVE",
"609 1241 CURVE SMOOTH",
"569 1241 OFFCURVE",
"475 1236 OFFCURVE",
"430 1231 CURVE"
);
},
{
closed = 1;
nodes = (
"288 89 LINE",
"317 78 OFFCURVE",
"419 72 OFFCURVE",
"468 72 CURVE SMOOTH",
"716 72 OFFCURVE",
"875 171 OFFCURVE",
"875 399 CURVE SMOOTH",
"875 556 OFFCURVE",
"777 635 OFFCURVE",
"596 635 CURVE SMOOTH",
"486 635 OFFCURVE",
"406 633 OFFCURVE",
"355 630 CURVE"
);
}
);
width = 1099;
}
);
note = B;
unicode = 0042;
},
{
glyphname = C;
layers = (
{
layerId = "4C84AE98-85C0-4DB9-B47D-A9DF131BEAEE";
name = "Light Italic";
paths = (
{
closed = 1;
nodes = (
"845 1323 OFFCURVE",
"926 1305 OFFCURVE",
"1013 1281 CURVE SMOOTH",
"1050 1270 LINE",
"998 958 LINE",
"920 958 LINE",
"913 1195 LINE",
"868 1223 OFFCURVE",
"809 1240 OFFCURVE",
"696 1240 CURVE SMOOTH",
"488 1240 OFFCURVE",
"340 1090 OFFCURVE",
"268 883 CURVE SMOOTH",
"232 780 OFFCURVE",
"214 675 OFFCURVE",
"214 570 CURVE SMOOTH",
"214 398 OFFCURVE",
"257 237 OFFCURVE",
"358 141 CURVE SMOOTH",
"408 92 OFFCURVE",
"472 68 OFFCURVE",
"550 68 CURVE SMOOTH",
"649 68 OFFCURVE",
"767 101 OFFCURVE",
"811 153 CURVE",
"865 346 LINE",
"945 345 LINE",
"910 60 LINE",
"883 52 LINE SMOOTH",
"766 13 OFFCURVE",
"661 -14 OFFCURVE",
"525 -14 CURVE SMOOTH",
"320 -14 OFFCURVE",
"184 108 OFFCURVE",
"123 282 CURVE SMOOTH",
"92 369 OFFCURVE",
"77 461 OFFCURVE",
"77 559 CURVE SMOOTH",
"77 858 OFFCURVE",
"203 1099 OFFCURVE",
"396 1227 CURVE SMOOTH",
"493 1291 OFFCURVE",
"597 1323 OFFCURVE",
"710 1323 CURVE SMOOTH"
);
}
);
width = 1059;
}
);
note = C;
unicode = 0043;
},
{
glyphname = Cacute;
layers = (
{
layerId = "4C84AE98-85C0-4DB9-B47D-A9DF131BEAEE";
name = "Light Italic";
paths = (
{
closed = 1;
nodes = (
"845 1323 OFFCURVE",
"926 1305 OFFCURVE",
"1013 1281 CURVE SMOOTH",
"1050 1270 LINE",
"998 958 LINE",
"920 958 LINE",
"913 1195 LINE",
"868 1223 OFFCURVE",
"809 1240 OFFCURVE",
"696 1240 CURVE SMOOTH",
"488 1240 OFFCURVE",
"340 1090 OFFCURVE",
"268 883 CURVE SMOOTH",
"232 780 OFFCURVE",
"214 675 OFFCURVE",
"214 570 CURVE SMOOTH",
"214 398 OFFCURVE",
"257 237 OFFCURVE",
"358 141 CURVE SMOOTH",
"408 92 OFFCURVE",
"472 68 OFFCURVE",
"550 68 CURVE SMOOTH",
"649 68 OFFCURVE",
"767 101 OFFCURVE",
"811 153 CURVE",
"865 346 LINE",
"945 345 LINE",
"910 60 LINE",
"883 52 LINE SMOOTH",
"766 13 OFFCURVE",
"661 -14 OFFCURVE",
"525 -14 CURVE SMOOTH",
"320 -14 OFFCURVE",
"184 108 OFFCURVE",
"123 282 CURVE SMOOTH",
"92 369 OFFCURVE",
"77 461 OFFCURVE",
"77 559 CURVE SMOOTH",
"77 858 OFFCURVE",
"203 1099 OFFCURVE",
"396 1227 CURVE SMOOTH",
"493 1291 OFFCURVE",
"597 1323 OFFCURVE",
"710 1323 CURVE SMOOTH"
);
},
{
closed = 1;
nodes = (
"859 1720 LINE",
"940 1639 LINE",
"899 1556 OFFCURVE",
"758 1445 OFFCURVE",
"658 1388 CURVE",
"615 1420 LINE"
);
}
);
width = 1059;
}
);
note = Cacute;
unicode = 0106;
},
{
glyphname = Ccaron;
layers = (
{
layerId = "4C84AE98-85C0-4DB9-B47D-A9DF131BEAEE";
name = "Light Italic";
paths = (
{
closed = 1;
nodes = (
"845 1323 OFFCURVE",
"926 1305 OFFCURVE",
"1013 1281 CURVE SMOOTH",
"1050 1270 LINE",
"998 958 LINE",
"920 958 LINE",
"913 1195 LINE",
"868 1223 OFFCURVE",
"809 1240 OFFCURVE",
"696 1240 CURVE SMOOTH",
"488 1240 OFFCURVE",
"340 1090 OFFCURVE",
"268 883 CURVE SMOOTH",
"232 780 OFFCURVE",
"214 675 OFFCURVE",
"214 570 CURVE SMOOTH",
"214 398 OFFCURVE",
"257 237 OFFCURVE",
"358 141 CURVE SMOOTH",
"408 92 OFFCURVE",
"472 68 OFFCURVE",
"550 68 CURVE SMOOTH",
"649 68 OFFCURVE",
"767 101 OFFCURVE",
"811 153 CURVE",
"865 346 LINE",
"945 345 LINE",
"910 60 LINE",
"883 52 LINE SMOOTH",
"766 13 OFFCURVE",
"661 -14 OFFCURVE",
"525 -14 CURVE SMOOTH",
"320 -14 OFFCURVE",
"184 108 OFFCURVE",
"123 282 CURVE SMOOTH",
"92 369 OFFCURVE",
"77 461 OFFCURVE",
"77 559 CURVE SMOOTH",
"77 858 OFFCURVE",
"203 1099 OFFCURVE",
"396 1227 CURVE SMOOTH",
"493 1291 OFFCURVE",
"597 1323 OFFCURVE",
"710 1323 CURVE SMOOTH"
);
},
{
closed = 1;
nodes = (
"486 1720 LINE",
"687 1492 LINE",
"965 1720 LINE",
"1007 1680 LINE",
"742 1395 LINE",
"627 1395 LINE",
"436 1680 LINE"
);
}
);
width = 1059;
}
);
note = Ccaron;
unicode = 010C;
},
{
glyphname = Ccedilla;
layers = (
{
layerId = "4C84AE98-85C0-4DB9-B47D-A9DF131BEAEE";
name = "Light Italic";
paths = (
{
closed = 1;
nodes = (
"488 1240 OFFCURVE",
"340 1090 OFFCURVE",
"268 883 CURVE SMOOTH",
"232 780 OFFCURVE",
"214 675 OFFCURVE",
"214 570 CURVE SMOOTH",
"214 398 OFFCURVE",
"257 237 OFFCURVE",
"358 141 CURVE SMOOTH",
"408 92 OFFCURVE",
"472 68 OFFCURVE",
"550 68 CURVE SMOOTH",
"649 68 OFFCURVE",
"767 101 OFFCURVE",
"811 153 CURVE",
"865 346 LINE",
"945 345 LINE",
"910 60 LINE",
"883 52 LINE",
"788 20 OFFCURVE",
"701 -3 OFFCURVE",
"590 -11 CURVE",
"600 -39 OFFCURVE",
"605 -74 OFFCURVE",
"605 -115 CURVE SMOOTH",
"605 -242 OFFCURVE",
"561 -326 OFFCURVE",
"493 -366 CURVE SMOOTH",
"458 -387 OFFCURVE",
"419 -397 OFFCURVE",
"375 -397 CURVE SMOOTH",
"330 -397 OFFCURVE",
"283 -388 OFFCURVE",
"263 -373 CURVE",
"273 -270 LINE",
"289 -278 OFFCURVE",
"326 -285 OFFCURVE",
"361 -285 CURVE SMOOTH",
"465 -285 OFFCURVE",
"524 -201 OFFCURVE",
"524 -72 CURVE SMOOTH",
"524 -52 OFFCURVE",
"522 -33 OFFCURVE",
"518 -14 CURVE",
"315 -11 OFFCURVE",
"184 111 OFFCURVE",
"123 284 CURVE SMOOTH",
"92 370 OFFCURVE",
"77 462 OFFCURVE",
"77 559 CURVE SMOOTH",
"77 858 OFFCURVE",
"203 1099 OFFCURVE",
"396 1227 CURVE SMOOTH",
"493 1291 OFFCURVE",
"597 1323 OFFCURVE",
"710 1323 CURVE SMOOTH",
"845 1323 OFFCURVE",
"926 1305 OFFCURVE",
"1013 1281 CURVE SMOOTH",
"1050 1270 LINE",
"998 958 LINE",
"920 958 LINE",
"913 1195 LINE",
"868 1223 OFFCURVE",
"809 1240 OFFCURVE",
"696 1240 CURVE SMOOTH"
);
}
);
width = 1059;
}
);
note = Ccedilla;
unicode = 00C7;
},
{
glyphname = Ccircumflex;
layers = (
{
layerId = "4C84AE98-85C0-4DB9-B47D-A9DF131BEAEE";
name = "Light Italic";
paths = (
{
closed = 1;
nodes = (
"845 1323 OFFCURVE",
"926 1305 OFFCURVE",
"1013 1281 CURVE SMOOTH",
"1050 1270 LINE",
"998 958 LINE",
"920 958 LINE",
"913 1195 LINE",
"868 1223 OFFCURVE",
"809 1240 OFFCURVE",
"696 1240 CURVE SMOOTH",
"488 1240 OFFCURVE",
"340 1090 OFFCURVE",
"268 883 CURVE SMOOTH",
"232 780 OFFCURVE",
"214 675 OFFCURVE",
"214 570 CURVE SMOOTH",
"214 398 OFFCURVE",
"257 237 OFFCURVE",
"358 141 CURVE SMOOTH",
"408 92 OFFCURVE",
"472 68 OFFCURVE",
"550 68 CURVE SMOOTH",
"649 68 OFFCURVE",
"767 101 OFFCURVE",
"811 153 CURVE",
"865 346 LINE",
"945 345 LINE",
"910 60 LINE",
"883 52 LINE SMOOTH",
"766 13 OFFCURVE",
"661 -14 OFFCURVE",
"525 -14 CURVE SMOOTH",
"320 -14 OFFCURVE",
"184 108 OFFCURVE",
"123 282 CURVE SMOOTH",
"92 369 OFFCURVE",
"77 461 OFFCURVE",
"77 559 CURVE SMOOTH",
"77 858 OFFCURVE",
"203 1099 OFFCURVE",
"396 1227 CURVE SMOOTH",
"493 1291 OFFCURVE",
"597 1323 OFFCURVE",
"710 1323 CURVE SMOOTH"
);
},
{
closed = 1;
nodes = (
"680 1720 LINE",
"797 1720 LINE",
"987 1439 LINE",
"941 1398 LINE",
"733 1619 LINE",
"443 1400 LINE",
"402 1440 LINE"
);
}
);
width = 1059;
}
);
note = Ccircumflex;
unicode = 0108;
},
{
glyphname = Cdotaccent;
layers = (
{
layerId = "4C84AE98-85C0-4DB9-B47D-A9DF131BEAEE";
name = "Light Italic";
paths = (
{
closed = 1;
nodes = (
"621 1584 OFFCURVE",
"643 1619 OFFCURVE",
"672 1639 CURVE",
"687 1648 OFFCURVE",
"702 1653 OFFCURVE",
"717 1653 CURVE SMOOTH",
"765 1653 OFFCURVE",
"797 1621 OFFCURVE",
"797 1574 CURVE SMOOTH",
"797 1535 OFFCURVE",
"777 1498 OFFCURVE",
"746 1478 CURVE SMOOTH",
"731 1468 OFFCURVE",
"714 1463 OFFCURVE",
"696 1463 CURVE SMOOTH",
"655 1463 OFFCURVE",
"621 1497 OFFCURVE",
"621 1545 CURVE SMOOTH"
);
},
{
closed = 1;
nodes = (
"845 1323 OFFCURVE",
"926 1305 OFFCURVE",
"1013 1281 CURVE SMOOTH",
"1050 1270 LINE",
"998 958 LINE",
"920 958 LINE",
"913 1195 LINE",
"868 1223 OFFCURVE",
"809 1240 OFFCURVE",
"696 1240 CURVE SMOOTH",
"488 1240 OFFCURVE",
"340 1090 OFFCURVE",
"268 883 CURVE SMOOTH",
"232 780 OFFCURVE",
"214 675 OFFCURVE",
"214 570 CURVE SMOOTH",
"214 398 OFFCURVE",
"257 237 OFFCURVE",
"358 141 CURVE SMOOTH",
"408 92 OFFCURVE",
"472 68 OFFCURVE",
"550 68 CURVE SMOOTH",
"649 68 OFFCURVE",
"767 101 OFFCURVE",
"811 153 CURVE",
"865 346 LINE",
"945 345 LINE",
"910 60 LINE",
"883 52 LINE SMOOTH",
"766 13 OFFCURVE",
"661 -14 OFFCURVE",
"525 -14 CURVE SMOOTH",
"320 -14 OFFCURVE",
"184 108 OFFCURVE",
"123 282 CURVE SMOOTH",
"92 369 OFFCURVE",
"77 461 OFFCURVE",
"77 559 CURVE SMOOTH",
"77 858 OFFCURVE",
"203 1099 OFFCURVE",
"396 1227 CURVE SMOOTH",
"493 1291 OFFCURVE",
"597 1323 OFFCURVE",
"710 1323 CURVE SMOOTH"
);
}
);
width = 1059;
}
);
note = Cdotaccent;
unicode = 010A;
},
{
glyphname = D;
layers = (
{
layerId = "4C84AE98-85C0-4DB9-B47D-A9DF131BEAEE";
name = "Light Italic";
paths = (
{
closed = 1;
nodes = (
"157 81 LINE",
"302 1223 LINE",
"185 1239 LINE",
"193 1309 LINE",
"420 1309 LINE SMOOTH",
"445 1309 OFFCURVE",
"484 1311 OFFCURVE",
"535 1316 CURVE SMOOTH",
"592 1321 OFFCURVE",
"637 1323 OFFCURVE",
"668 1323 CURVE SMOOTH",
"1009 1323 OFFCURVE",
"1163 1121 OFFCURVE",
"1163 778 CURVE SMOOTH",
"1163 481 OFFCURVE",
"1044 224 OFFCURVE",
"841 85 CURVE SMOOTH",
"739 16 OFFCURVE",
"623 -17 OFFCURVE",
"493 -14 CURVE SMOOTH",
"456 -13 OFFCURVE",
"424 -11 OFFCURVE",
"396 -8 CURVE SMOOTH",
"356 -4 OFFCURVE",
"262 0 OFFCURVE",
"215 0 CURVE SMOOTH",
"22 0 LINE",
"28 59 LINE"
);
},
{
closed = 1;
nodes = (
"288 91 LINE",
"357 79 OFFCURVE",
"469 68 OFFCURVE",
"529 68 CURVE",
"748 80 OFFCURVE",
"903 228 OFFCURVE",
"977 441 CURVE SMOOTH",
"1051 654 OFFCURVE",
"1042 913 OFFCURVE",
"987 1047 CURVE SMOOTH",
"932 1181 OFFCURVE",
"821 1242 OFFCURVE",
"630 1242 CURVE SMOOTH",
"574 1242 OFFCURVE",
"494 1234 OFFCURVE",
"431 1226 CURVE"
);
}
);
width = 1222;
}
);
note = D;
unicode = 0044;
},
{
glyphname = Eth;
layers = (
{
layerId = "4C84AE98-85C0-4DB9-B47D-A9DF131BEAEE";
name = "Light Italic";
paths = (
{
closed = 1;
nodes = (
"232 719 LINE",
"296 1225 LINE",
"179 1241 LINE",
"187 1311 LINE",
"414 1311 LINE SMOOTH",
"439 1311 OFFCURVE",
"478 1313 OFFCURVE",
"529 1318 CURVE SMOOTH",
"586 1322 OFFCURVE",
"631 1324 OFFCURVE",
"662 1324 CURVE SMOOTH",
"1003 1324 OFFCURVE",
"1157 1123 OFFCURVE",
"1157 780 CURVE SMOOTH",
"1157 481 OFFCURVE",
"1038 226 OFFCURVE",
"835 87 CURVE SMOOTH",
"733 18 OFFCURVE",
"617 -15 OFFCURVE",
"487 -12 CURVE SMOOTH",
"450 -11 OFFCURVE",
"418 -9 OFFCURVE",
"390 -6 CURVE SMOOTH",
"349 -2 OFFCURVE",
"256 2 OFFCURVE",
"209 2 CURVE SMOOTH",
"16 2 LINE",
"22 61 LINE",
"151 83 LINE",
"220 629 LINE",
"83 629 LINE",
"93 719 LINE"
);
},
{
closed = 1;
nodes = (
"282 93 LINE",
"351 80 OFFCURVE",
"463 70 OFFCURVE",
"523 70 CURVE",
"742 82 OFFCURVE",
"897 230 OFFCURVE",
"971 443 CURVE SMOOTH",
"1045 656 OFFCURVE",
"1036 915 OFFCURVE",
"981 1049 CURVE SMOOTH",
"926 1183 OFFCURVE",
"815 1244 OFFCURVE",
"624 1244 CURVE SMOOTH",
"568 1244 OFFCURVE",
"488 1236 OFFCURVE",
"425 1227 CURVE",
"360 719 LINE",
"728 719 LINE",
"718 629 LINE",
"349 629 LINE"
);
}
);
width = 1219;
}
);
note = Eth;
unicode = 00D0;
},
{
glyphname = Dcaron;
layers = (
{
layerId = "4C84AE98-85C0-4DB9-B47D-A9DF131BEAEE";
name = "Light Italic";
paths = (
{
closed = 1;
nodes = (
"474 1720 LINE",
"675 1492 LINE",
"953 1720 LINE",
"995 1680 LINE",
"730 1395 LINE",
"615 1395 LINE",
"424 1680 LINE"
);
},
{
closed = 1;
nodes = (
"151 81 LINE",
"296 1223 LINE",
"179 1239 LINE",
"187 1309 LINE",
"414 1309 LINE SMOOTH",
"439 1309 OFFCURVE",
"478 1311 OFFCURVE",
"529 1316 CURVE SMOOTH",
"586 1321 OFFCURVE",
"631 1323 OFFCURVE",
"662 1323 CURVE SMOOTH",
"1003 1323 OFFCURVE",
"1157 1121 OFFCURVE",
"1157 778 CURVE SMOOTH",
"1157 481 OFFCURVE",
"1038 224 OFFCURVE",
"835 85 CURVE SMOOTH",
"733 16 OFFCURVE",
"617 -17 OFFCURVE",
"487 -14 CURVE SMOOTH",
"450 -13 OFFCURVE",
"418 -11 OFFCURVE",
"390 -8 CURVE SMOOTH",
"350 -4 OFFCURVE",
"256 0 OFFCURVE",
"209 0 CURVE SMOOTH",
"16 0 LINE",
"22 59 LINE"
);
},
{
closed = 1;
nodes = (
"282 91 LINE",
"351 79 OFFCURVE",
"463 68 OFFCURVE",
"523 68 CURVE",
"742 80 OFFCURVE",
"897 228 OFFCURVE",
"971 441 CURVE SMOOTH",
"1045 654 OFFCURVE",
"1036 913 OFFCURVE",
"981 1047 CURVE SMOOTH",
"926 1181 OFFCURVE",
"815 1242 OFFCURVE",
"624 1242 CURVE SMOOTH",
"568 1242 OFFCURVE",
"488 1234 OFFCURVE",
"425 1226 CURVE"
);
}
);
width = 1221;
}
);
note = Dcaron;
unicode = 010E;
},
{
glyphname = Dcroat;
layers = (
{
layerId = "4C84AE98-85C0-4DB9-B47D-A9DF131BEAEE";
name = "Light Italic";
paths = (
{
closed = 1;
nodes = (
"232 719 LINE",
"296 1225 LINE",
"179 1241 LINE",
"187 1311 LINE",
"414 1311 LINE SMOOTH",
"439 1311 OFFCURVE",
"478 1313 OFFCURVE",
"529 1318 CURVE SMOOTH",
"586 1322 OFFCURVE",
"631 1324 OFFCURVE",
"662 1324 CURVE SMOOTH",
"1003 1324 OFFCURVE",
"1157 1123 OFFCURVE",
"1157 780 CURVE SMOOTH",
"1157 481 OFFCURVE",
"1038 226 OFFCURVE",
"835 87 CURVE SMOOTH",
"733 18 OFFCURVE",
"617 -15 OFFCURVE",
"487 -12 CURVE SMOOTH",
"450 -11 OFFCURVE",
"418 -9 OFFCURVE",
"390 -6 CURVE SMOOTH",
"349 -2 OFFCURVE",
"256 2 OFFCURVE",
"209 2 CURVE SMOOTH",
"16 2 LINE",
"22 61 LINE",
"151 83 LINE",
"220 629 LINE",
"84 629 LINE",
"94 719 LINE"
);
},
{
closed = 1;
nodes = (
"282 93 LINE",
"351 80 OFFCURVE",
"463 70 OFFCURVE",
"523 70 CURVE",
"742 82 OFFCURVE",
"897 230 OFFCURVE",
"971 443 CURVE SMOOTH",
"1045 656 OFFCURVE",
"1036 915 OFFCURVE",
"981 1049 CURVE SMOOTH",
"926 1183 OFFCURVE",
"815 1244 OFFCURVE",
"624 1244 CURVE SMOOTH",
"568 1244 OFFCURVE",
"488 1236 OFFCURVE",
"425 1227 CURVE",
"360 719 LINE",
"729 719 LINE",
"720 629 LINE",
"349 629 LINE"
);
}
);
width = 1219;
}
);
note = Dcroat;
unicode = 0110;
},
{
glyphname = E;
layers = (
{
layerId = "4C84AE98-85C0-4DB9-B47D-A9DF131BEAEE";
name = "Light Italic";
paths = (
{
closed = 1;
nodes = (
"158 80 LINE",
"301 1223 LINE",
"184 1239 LINE",
"192 1309 LINE",
"981 1309 LINE",
"975 1042 LINE",
"904 1042 LINE",
"875 1225 LINE",
"434 1234 LINE",
"369 722 LINE",
"783 728 LINE",
"775 620 LINE",
"360 631 LINE",
"287 81 LINE",
"821 97 LINE",
"917 293 LINE",
"986 272 LINE",
"910 0 LINE",
"22 0 LINE",
"28 59 LINE"
);
}
);
width = 1050;
}
);
note = E;
unicode = 0045;
},
{
glyphname = Eacute;
layers = (
{
layerId = "4C84AE98-85C0-4DB9-B47D-A9DF131BEAEE";
name = "Light Italic";
paths = (
{
closed = 1;
nodes = (
"822 1720 LINE",
"903 1639 LINE",
"862 1556 OFFCURVE",
"721 1445 OFFCURVE",
"621 1388 CURVE",
"578 1420 LINE"
);
},
{
closed = 1;
nodes = (
"158 80 LINE",
"301 1223 LINE",
"184 1239 LINE",
"192 1309 LINE",
"981 1309 LINE",
"975 1042 LINE",
"904 1042 LINE",
"875 1225 LINE",
"434 1234 LINE",
"369 722 LINE",
"783 728 LINE",
"775 620 LINE",
"360 631 LINE",
"287 81 LINE",
"821 97 LINE",
"917 293 LINE",
"986 272 LINE",
"910 0 LINE",
"22 0 LINE",
"28 59 LINE"
);
}
);
width = 1050;
}
);
note = Eacute;
unicode = 00C9;
},
{
glyphname = Ebreve;
layers = (
{
layerId = "4C84AE98-85C0-4DB9-B47D-A9DF131BEAEE";
name = "Light Italic";
paths = (
{
closed = 1;
nodes = (
"410 1684 OFFCURVE",
"410 1695 OFFCURVE",
"411 1702 CURVE",
"482 1702 LINE",
"487 1598 OFFCURVE",
"532 1507 OFFCURVE",
"659 1507 CURVE SMOOTH",
"743 1507 OFFCURVE",
"804 1550 OFFCURVE",
"839 1610 CURVE SMOOTH",
"856 1640 OFFCURVE",
"867 1671 OFFCURVE",
"872 1702 CURVE",
"940 1702 LINE",
"940 1606 OFFCURVE",
"883 1506 OFFCURVE",
"796 1449 CURVE SMOOTH",
"752 1420 OFFCURVE",
"705 1406 OFFCURVE",
"656 1406 CURVE SMOOTH",
"547 1406 OFFCURVE",
"472 1459 OFFCURVE",
"437 1539 CURVE SMOOTH",
"419 1578 OFFCURVE",
"410 1621 OFFCURVE",
"410 1668 CURVE SMOOTH"
);
},
{
closed = 1;
nodes = (
"158 80 LINE",
"301 1223 LINE",
"184 1239 LINE",
"192 1309 LINE",
"981 1309 LINE",
"975 1042 LINE",
"904 1042 LINE",
"875 1225 LINE",
"434 1234 LINE",
"369 722 LINE",
"783 728 LINE",
"775 620 LINE",
"360 631 LINE",
"287 81 LINE",
"821 97 LINE",
"917 293 LINE",
"986 272 LINE",
"910 0 LINE",
"22 0 LINE",
"28 59 LINE"
);
}
);
width = 1050;
}
);
note = Ebreve;
unicode = 0114;
},
{
glyphname = Ecaron;
layers = (
{
layerId = "4C84AE98-85C0-4DB9-B47D-A9DF131BEAEE";
name = "Light Italic";
paths = (
{
closed = 1;
nodes = (
"449 1720 LINE",
"650 1492 LINE",
"928 1720 LINE",
"970 1680 LINE",
"705 1395 LINE",
"590 1395 LINE",
"399 1680 LINE"
);
},
{
closed = 1;
nodes = (
"158 80 LINE",
"301 1223 LINE",
"184 1239 LINE",
"192 1309 LINE",
"981 1309 LINE",
"975 1042 LINE",
"904 1042 LINE",
"875 1225 LINE",
"434 1234 LINE",
"369 722 LINE",
"783 728 LINE",
"775 620 LINE",
"360 631 LINE",
"287 81 LINE",
"821 97 LINE",
"917 293 LINE",
"986 272 LINE",
"910 0 LINE",
"22 0 LINE",
"28 59 LINE"
);
}
);
width = 1050;
}
);
note = Ecaron;
unicode = 011A;
},
{
glyphname = Ecircumflex;
layers = (
{
layerId = "4C84AE98-85C0-4DB9-B47D-A9DF131BEAEE";
name = "Light Italic";
paths = (
{
closed = 1;
nodes = (
"158 80 LINE",
"301 1223 LINE",
"184 1239 LINE",
"192 1309 LINE",
"981 1309 LINE",
"975 1042 LINE",
"904 1042 LINE",
"875 1225 LINE",
"434 1234 LINE",
"369 722 LINE",
"783 728 LINE",
"775 620 LINE",
"360 631 LINE",
"287 81 LINE",
"821 97 LINE",
"917 293 LINE",
"986 272 LINE",
"910 0 LINE",
"22 0 LINE",
"28 59 LINE"
);
},
{
closed = 1;
nodes = (
"643 1720 LINE",
"760 1720 LINE",
"950 1439 LINE",
"904 1398 LINE",
"696 1619 LINE",
"406 1400 LINE",
"365 1440 LINE"
);
}
);
width = 1050;
}
);
note = Ecircumflex;
unicode = 00CA;
},
{
glyphname = Edieresis;
layers = (
{
layerId = "4C84AE98-85C0-4DB9-B47D-A9DF131BEAEE";
name = "Light Italic";
paths = (
{
closed = 1;
nodes = (
"410 1617 OFFCURVE",
"431 1653 OFFCURVE",
"460 1673 CURVE SMOOTH",
"475 1683 OFFCURVE",
"490 1688 OFFCURVE",
"505 1688 CURVE SMOOTH",
"552 1688 OFFCURVE",
"583 1655 OFFCURVE",
"583 1607 CURVE SMOOTH",
"583 1568 OFFCURVE",
"564 1532 OFFCURVE",
"533 1513 CURVE SMOOTH",
"517 1503 OFFCURVE",
"500 1498 OFFCURVE",
"483 1498 CURVE SMOOTH",
"443 1498 OFFCURVE",
"410 1533 OFFCURVE",
"410 1580 CURVE SMOOTH"
);
},
{
closed = 1;
nodes = (
"770 1620 OFFCURVE",
"792 1654 OFFCURVE",
"822 1674 CURVE",
"837 1683 OFFCURVE",
"851 1688 OFFCURVE",
"866 1688 CURVE SMOOTH",
"914 1688 OFFCURVE",
"945 1655 OFFCURVE",
"945 1608 CURVE SMOOTH",
"945 1569 OFFCURVE",
"925 1533 OFFCURVE",
"894 1513 CURVE SMOOTH",
"879 1503 OFFCURVE",
"862 1498 OFFCURVE",
"844 1498 CURVE SMOOTH",
"801 1498 OFFCURVE",
"770 1533 OFFCURVE",
"770 1581 CURVE SMOOTH"
);
},
{
closed = 1;
nodes = (
"158 80 LINE",
"301 1223 LINE",
"184 1239 LINE",
"192 1309 LINE",
"981 1309 LINE",
"975 1042 LINE",
"904 1042 LINE",
"875 1225 LINE",
"434 1234 LINE",
"369 722 LINE",
"783 728 LINE",
"775 620 LINE",
"360 631 LINE",
"287 81 LINE",
"821 97 LINE",
"917 293 LINE",
"986 272 LINE",
"910 0 LINE",
"22 0 LINE",
"28 59 LINE"
);
}
);
width = 1050;
}
);
note = Edieresis;
unicode = 00CB;
},
{
glyphname = Edotaccent;
layers = (
{
layerId = "4C84AE98-85C0-4DB9-B47D-A9DF131BEAEE";
name = "Light Italic";
paths = (
{
closed = 1;
nodes = (
"584 1584 OFFCURVE",
"606 1619 OFFCURVE",
"635 1639 CURVE",
"650 1648 OFFCURVE",
"665 1653 OFFCURVE",
"680 1653 CURVE SMOOTH",
"728 1653 OFFCURVE",
"760 1621 OFFCURVE",
"760 1574 CURVE SMOOTH",
"760 1535 OFFCURVE",
"740 1498 OFFCURVE",
"709 1478 CURVE SMOOTH",
"694 1468 OFFCURVE",
"677 1463 OFFCURVE",
"659 1463 CURVE SMOOTH",
"618 1463 OFFCURVE",
"584 1497 OFFCURVE",
"584 1545 CURVE SMOOTH"
);
},
{
closed = 1;
nodes = (
"158 80 LINE",
"301 1223 LINE",
"184 1239 LINE",
"192 1309 LINE",
"981 1309 LINE",
"975 1042 LINE",
"904 1042 LINE",
"875 1225 LINE",
"434 1234 LINE",
"369 722 LINE",
"783 728 LINE",
"775 620 LINE",
"360 631 LINE",
"287 81 LINE",
"821 97 LINE",
"917 293 LINE",
"986 272 LINE",
"910 0 LINE",
"22 0 LINE",
"28 59 LINE"
);
}
);
width = 1050;
}
);
note = Edotaccent;
unicode = 0116;
},
{
glyphname = Egrave;
layers = (
{
layerId = "4C84AE98-85C0-4DB9-B47D-A9DF131BEAEE";
name = "Light Italic";
paths = (
{
closed = 1;
nodes = (
"476 1720 LINE",
"710 1420 LINE",
"666 1388 LINE",
"605 1423 OFFCURVE",
"523 1485 OFFCURVE",
"458 1550 CURVE SMOOTH",
"425 1582 OFFCURVE",
"403 1612 OFFCURVE",
"390 1639 CURVE"
);
},
{
closed = 1;
nodes = (
"158 80 LINE",
"301 1223 LINE",
"184 1239 LINE",
"192 1309 LINE",
"981 1309 LINE",
"975 1042 LINE",
"904 1042 LINE",
"875 1225 LINE",
"434 1234 LINE",
"369 722 LINE",
"783 728 LINE",
"775 620 LINE",
"360 631 LINE",
"287 81 LINE",
"821 97 LINE",
"917 293 LINE",
"986 272 LINE",
"910 0 LINE",
"22 0 LINE",
"28 59 LINE"
);
}
);
width = 1050;
}
);
note = Egrave;
unicode = 00C8;
},
{
glyphname = Emacron;
layers = (
{
layerId = "4C84AE98-85C0-4DB9-B47D-A9DF131BEAEE";
name = "Light Italic";
paths = (
{
closed = 1;
nodes = (
"878 1603 LINE",
"865 1501 LINE",
"427 1501 LINE",
"440 1603 LINE"
);
},
{
closed = 1;
nodes = (
"158 80 LINE",
"301 1223 LINE",
"184 1239 LINE",
"192 1309 LINE",
"981 1309 LINE",
"975 1042 LINE",
"904 1042 LINE",
"875 1225 LINE",
"434 1234 LINE",
"369 722 LINE",
"783 728 LINE",
"775 620 LINE",
"360 631 LINE",
"287 81 LINE",
"821 97 LINE",
"917 293 LINE",
"986 272 LINE",
"910 0 LINE",
"22 0 LINE",
"28 59 LINE"
);
}
);
width = 1050;
}
);
note = Emacron;
unicode = 0112;
},
{
glyphname = Eogonek;
layers = (
{
layerId = "4C84AE98-85C0-4DB9-B47D-A9DF131BEAEE";
name = "Light Italic";
paths = (
{
closed = 1;
nodes = (
"158 80 LINE",
"301 1223 LINE",
"184 1239 LINE",
"192 1309 LINE",
"981 1309 LINE",
"975 1042 LINE",
"904 1042 LINE",
"875 1225 LINE",
"434 1234 LINE",
"369 722 LINE",
"783 728 LINE",
"775 620 LINE",
"360 631 LINE",
"287 81 LINE",
"821 97 LINE",
"917 293 LINE",
"986 272 LINE",
"910 0 LINE",
"840 0 LINE",
"732 -80 OFFCURVE",
"669 -135 OFFCURVE",
"668 -194 CURVE",
"665 -243 OFFCURVE",
"691 -269 OFFCURVE",
"727 -269 CURVE SMOOTH",
"773 -269 OFFCURVE",
"818 -250 OFFCURVE",
"863 -211 CURVE",
"882 -277 LINE",
"821 -331 OFFCURVE",
"749 -358 OFFCURVE",
"666 -358 CURVE SMOOTH",
"610 -358 OFFCURVE",
"573 -334 OFFCURVE",
"555 -301 CURVE SMOOTH",
"546 -285 OFFCURVE",
"541 -268 OFFCURVE",
"541 -250 CURVE SMOOTH",
"541 -215 OFFCURVE",
"552 -175 OFFCURVE",
"571 -150 CURVE",
"604 -102 OFFCURVE",
"650 -65 OFFCURVE",
"686 -44 CURVE",
"703 -33 OFFCURVE",
"728 -19 OFFCURVE",
"761 0 CURVE",
"22 0 LINE",
"28 59 LINE"
);
}
);
width = 1046;
}
);
note = Eogonek;
unicode = 0118;
},
{
glyphname = F;
layers = (
{
layerId = "4C84AE98-85C0-4DB9-B47D-A9DF131BEAEE";
name = "Light Italic";
paths = (
{
closed = 1;
nodes = (
"158 81 LINE",
"301 1223 LINE",
"184 1239 LINE",
"192 1309 LINE",
"1014 1309 LINE",
"998 1042 LINE",
"918 1042 LINE",
"900 1220 LINE",
"432 1233 LINE",
"368 721 LINE",
"805 728 LINE",
"796 617 LINE",
"360 629 LINE",
"287 83 LINE",
"493 60 LINE",
"487 0 LINE",
"23 0 LINE",
"28 60 LINE"
);
}
);
width = 989;
}
);
note = F;
unicode = 0046;
},
{
glyphname = G;
layers = (
{
layerId = "4C84AE98-85C0-4DB9-B47D-A9DF131BEAEE";
name = "Light Italic";
paths = (
{
closed = 1;
nodes = (
"873 1323 OFFCURVE",
"970 1302 OFFCURVE",
"1065 1275 CURVE SMOOTH",
"1097 1265 LINE",
"1048 1010 LINE",
"965 1010 LINE",
"961 1183 LINE",
"908 1220 OFFCURVE",
"841 1241 OFFCURVE",
"705 1241 CURVE SMOOTH",
"501 1241 OFFCURVE",
"353 1089 OFFCURVE",
"279 881 CURVE SMOOTH",
"242 776 OFFCURVE",
"223 671 OFFCURVE",
"223 564 CURVE SMOOTH",
"223 393 OFFCURVE",
"269 234 OFFCURVE",
"370 138 CURVE SMOOTH",
"420 90 OFFCURVE",
"484 66 OFFCURVE",
"561 66 CURVE SMOOTH",
"669 66 OFFCURVE",
"797 98 OFFCURVE",
"857 153 CURVE",
"911 530 LINE",
"669 542 LINE",
"678 622 LINE",
"1056 622 LINE",
"980 81 LINE",
"961 79 OFFCURVE",
"935 73 OFFCURVE",
"900 62 CURVE",
"898 61 OFFCURVE",
"888 57 OFFCURVE",
"870 52 CURVE SMOOTH",
"775 24 OFFCURVE",
"730 10 OFFCURVE",
"647 -4 CURVE SMOOTH",
"606 -11 OFFCURVE",
"564 -15 OFFCURVE",
"523 -15 CURVE SMOOTH",
"324 -15 OFFCURVE",
"193 107 OFFCURVE",
"133 279 CURVE SMOOTH",
"102 365 OFFCURVE",
"87 456 OFFCURVE",
"87 553 CURVE SMOOTH",
"87 856 OFFCURVE",
"213 1099 OFFCURVE",
"406 1227 CURVE SMOOTH",
"503 1291 OFFCURVE",
"607 1323 OFFCURVE",
"720 1323 CURVE SMOOTH"
);
}
);
width = 1154;
}
);
note = G;
unicode = 0047;
},
{
glyphname = Gbreve;
layers = (
{
layerId = "4C84AE98-85C0-4DB9-B47D-A9DF131BEAEE";
name = "Light Italic";
paths = (
{
closed = 1;
nodes = (
"475 1684 OFFCURVE",
"475 1695 OFFCURVE",
"476 1702 CURVE",
"547 1702 LINE",
"552 1598 OFFCURVE",
"597 1507 OFFCURVE",
"724 1507 CURVE SMOOTH",
"808 1507 OFFCURVE",
"869 1550 OFFCURVE",
"904 1610 CURVE SMOOTH",
"921 1640 OFFCURVE",
"932 1671 OFFCURVE",
"937 1702 CURVE",
"1005 1702 LINE",
"1005 1606 OFFCURVE",
"948 1506 OFFCURVE",
"861 1449 CURVE SMOOTH",
"817 1420 OFFCURVE",
"770 1406 OFFCURVE",
"721 1406 CURVE SMOOTH",
"612 1406 OFFCURVE",
"537 1459 OFFCURVE",
"502 1539 CURVE SMOOTH",
"484 1578 OFFCURVE",
"475 1621 OFFCURVE",
"475 1668 CURVE SMOOTH"
);
},
{
closed = 1;
nodes = (
"873 1323 OFFCURVE",
"970 1302 OFFCURVE",
"1065 1275 CURVE SMOOTH",
"1097 1265 LINE",
"1048 1010 LINE",
"965 1010 LINE",
"961 1183 LINE",
"908 1220 OFFCURVE",
"841 1241 OFFCURVE",
"705 1241 CURVE SMOOTH",
"501 1241 OFFCURVE",
"353 1089 OFFCURVE",
"279 881 CURVE SMOOTH",
"242 776 OFFCURVE",
"223 671 OFFCURVE",
"223 564 CURVE SMOOTH",
"223 393 OFFCURVE",
"269 234 OFFCURVE",
"370 138 CURVE SMOOTH",
"420 90 OFFCURVE",
"484 66 OFFCURVE",
"561 66 CURVE SMOOTH",
"669 66 OFFCURVE",
"797 98 OFFCURVE",
"857 153 CURVE",
"911 530 LINE",
"669 542 LINE",
"678 622 LINE",
"1056 622 LINE",
"980 81 LINE",
"961 79 OFFCURVE",
"935 73 OFFCURVE",
"900 62 CURVE",
"898 61 OFFCURVE",
"888 57 OFFCURVE",
"870 52 CURVE SMOOTH",
"775 24 OFFCURVE",
"730 10 OFFCURVE",
"647 -4 CURVE SMOOTH",
"606 -11 OFFCURVE",
"564 -15 OFFCURVE",
"523 -15 CURVE SMOOTH",
"324 -15 OFFCURVE",
"193 107 OFFCURVE",
"133 279 CURVE SMOOTH",
"102 365 OFFCURVE",
"87 456 OFFCURVE",
"87 553 CURVE SMOOTH",
"87 856 OFFCURVE",
"213 1099 OFFCURVE",
"406 1227 CURVE SMOOTH",
"503 1291 OFFCURVE",
"607 1323 OFFCURVE",
"720 1323 CURVE SMOOTH"
);
}
);
width = 1154;
}
);
note = Gbreve;
unicode = 011E;
},
{
glyphname = Gcaron;
layers = (
{
layerId = "4C84AE98-85C0-4DB9-B47D-A9DF131BEAEE";
name = "Light Italic";
paths = (
{
closed = 1;
nodes = (
"873 1323 OFFCURVE",
"970 1302 OFFCURVE",
"1065 1275 CURVE SMOOTH",
"1097 1265 LINE",
"1048 1010 LINE",
"965 1010 LINE",
"961 1183 LINE",
"908 1220 OFFCURVE",
"841 1241 OFFCURVE",
"705 1241 CURVE SMOOTH",
"501 1241 OFFCURVE",
"353 1089 OFFCURVE",
"279 881 CURVE SMOOTH",
"242 776 OFFCURVE",
"223 671 OFFCURVE",
"223 564 CURVE SMOOTH",
"223 393 OFFCURVE",
"269 234 OFFCURVE",
"370 138 CURVE SMOOTH",
"420 90 OFFCURVE",
"484 66 OFFCURVE",
"561 66 CURVE SMOOTH",
"669 66 OFFCURVE",
"797 98 OFFCURVE",
"857 153 CURVE",
"911 530 LINE",
"669 542 LINE",
"678 622 LINE",
"1056 622 LINE",
"980 81 LINE",
"961 79 OFFCURVE",
"935 73 OFFCURVE",
"900 62 CURVE",
"898 61 OFFCURVE",
"888 57 OFFCURVE",
"870 52 CURVE SMOOTH",
"775 24 OFFCURVE",
"730 10 OFFCURVE",
"647 -4 CURVE SMOOTH",
"606 -11 OFFCURVE",
"564 -15 OFFCURVE",
"523 -15 CURVE SMOOTH",
"324 -15 OFFCURVE",
"193 107 OFFCURVE",
"133 279 CURVE SMOOTH",
"102 365 OFFCURVE",
"87 456 OFFCURVE",
"87 553 CURVE SMOOTH",
"87 856 OFFCURVE",
"213 1099 OFFCURVE",
"406 1227 CURVE SMOOTH",
"503 1291 OFFCURVE",
"607 1323 OFFCURVE",
"720 1323 CURVE SMOOTH"
);
},
{
closed = 1;
nodes = (
"514 1720 LINE",
"715 1492 LINE",
"993 1720 LINE",
"1035 1680 LINE",
"770 1395 LINE",
"655 1395 LINE",
"464 1680 LINE"
);
}
);
width = 1154;
}
);
note = Gcaron;
unicode = 01E6;
},
{
glyphname = Gcircumflex;
layers = (
{
layerId = "4C84AE98-85C0-4DB9-B47D-A9DF131BEAEE";
name = "Light Italic";
paths = (
{
closed = 1;
nodes = (
"873 1323 OFFCURVE",
"970 1302 OFFCURVE",
"1065 1275 CURVE SMOOTH",
"1097 1265 LINE",
"1048 1010 LINE",
"965 1010 LINE",
"961 1183 LINE",
"908 1220 OFFCURVE",
"841 1241 OFFCURVE",
"705 1241 CURVE SMOOTH",
"501 1241 OFFCURVE",
"353 1089 OFFCURVE",
"279 881 CURVE SMOOTH",
"242 776 OFFCURVE",
"223 671 OFFCURVE",
"223 564 CURVE SMOOTH",
"223 393 OFFCURVE",
"269 234 OFFCURVE",
"370 138 CURVE SMOOTH",
"420 90 OFFCURVE",
"484 66 OFFCURVE",
"561 66 CURVE SMOOTH",
"669 66 OFFCURVE",
"797 98 OFFCURVE",
"857 153 CURVE",
"911 530 LINE",
"669 542 LINE",
"678 622 LINE",
"1056 622 LINE",
"980 81 LINE",
"961 79 OFFCURVE",
"935 73 OFFCURVE",
"900 62 CURVE",
"898 61 OFFCURVE",
"888 57 OFFCURVE",
"870 52 CURVE SMOOTH",
"775 24 OFFCURVE",
"730 10 OFFCURVE",
"647 -4 CURVE SMOOTH",
"606 -11 OFFCURVE",
"564 -15 OFFCURVE",
"523 -15 CURVE SMOOTH",
"324 -15 OFFCURVE",
"193 107 OFFCURVE",
"133 279 CURVE SMOOTH",
"102 365 OFFCURVE",
"87 456 OFFCURVE",
"87 553 CURVE SMOOTH",
"87 856 OFFCURVE",
"213 1099 OFFCURVE",
"406 1227 CURVE SMOOTH",
"503 1291 OFFCURVE",
"607 1323 OFFCURVE",
"720 1323 CURVE SMOOTH"
);
},
{
closed = 1;
nodes = (
"709 1720 LINE",
"826 1720 LINE",
"1016 1439 LINE",
"970 1398 LINE",
"762 1619 LINE",
"472 1400 LINE",
"431 1440 LINE"
);
}
);
width = 1154;
}
);
note = Gcircumflex;
unicode = 011C;
},
{
glyphname = Gcommaaccent;
layers = (
{
layerId = "4C84AE98-85C0-4DB9-B47D-A9DF131BEAEE";
name = "Light Italic";
paths = (
{
closed = 1;
nodes = (
"437 -436 LINE",
"482 -404 OFFCURVE",
"517 -338 OFFCURVE",
"517 -270 CURVE SMOOTH",
"517 -222 OFFCURVE",
"491 -170 OFFCURVE",
"456 -157 CURVE",
"456 -114 LINE",
"540 -45 LINE",
"601 -64 OFFCURVE",
"636 -137 OFFCURVE",
"636 -220 CURVE SMOOTH",
"636 -308 OFFCURVE",
"599 -386 OFFCURVE",
"552 -435 CURVE SMOOTH",
"529 -460 OFFCURVE",
"507 -475 OFFCURVE",
"488 -482 CURVE",
"437 -453 LINE"
);
},
{
closed = 1;
nodes = (
"873 1323 OFFCURVE",
"970 1302 OFFCURVE",
"1065 1275 CURVE SMOOTH",
"1097 1265 LINE",
"1048 1010 LINE",
"965 1010 LINE",
"961 1183 LINE",
"908 1220 OFFCURVE",
"841 1241 OFFCURVE",
"705 1241 CURVE SMOOTH",
"501 1241 OFFCURVE",
"353 1089 OFFCURVE",
"279 881 CURVE SMOOTH",
"242 776 OFFCURVE",
"223 671 OFFCURVE",
"223 564 CURVE SMOOTH",
"223 393 OFFCURVE",
"269 234 OFFCURVE",
"370 138 CURVE SMOOTH",
"420 90 OFFCURVE",
"484 66 OFFCURVE",
"561 66 CURVE SMOOTH",
"669 66 OFFCURVE",
"797 98 OFFCURVE",
"857 153 CURVE",
"911 530 LINE",
"669 542 LINE",
"678 622 LINE",
"1056 622 LINE",
"980 81 LINE",
"961 79 OFFCURVE",
"935 73 OFFCURVE",
"900 62 CURVE",
"898 61 OFFCURVE",
"888 57 OFFCURVE",
"870 52 CURVE SMOOTH",
"775 24 OFFCURVE",
"730 10 OFFCURVE",
"647 -4 CURVE SMOOTH",
"606 -11 OFFCURVE",
"564 -15 OFFCURVE",
"523 -15 CURVE SMOOTH",
"324 -15 OFFCURVE",
"193 107 OFFCURVE",
"133 279 CURVE SMOOTH",
"102 365 OFFCURVE",
"87 456 OFFCURVE",
"87 553 CURVE SMOOTH",
"87 856 OFFCURVE",
"213 1099 OFFCURVE",
"406 1227 CURVE SMOOTH",
"503 1291 OFFCURVE",
"607 1323 OFFCURVE",
"720 1323 CURVE SMOOTH"
);
}
);
width = 1154;
}
);
note = Gcommaaccent;
unicode = 0122;
},
{
glyphname = Gdotaccent;
layers = (
{
layerId = "4C84AE98-85C0-4DB9-B47D-A9DF131BEAEE";
name = "Light Italic";
paths = (
{
closed = 1;
nodes = (
"649 1584 OFFCURVE",
"671 1619 OFFCURVE",
"700 1639 CURVE",
"715 1648 OFFCURVE",
"730 1653 OFFCURVE",
"745 1653 CURVE SMOOTH",
"793 1653 OFFCURVE",
"825 1621 OFFCURVE",
"825 1574 CURVE SMOOTH",
"825 1535 OFFCURVE",
"805 1498 OFFCURVE",
"774 1478 CURVE SMOOTH",
"759 1468 OFFCURVE",
"742 1463 OFFCURVE",
"724 1463 CURVE SMOOTH",
"683 1463 OFFCURVE",
"649 1497 OFFCURVE",
"649 1545 CURVE SMOOTH"
);
},
{
closed = 1;
nodes = (
"873 1323 OFFCURVE",
"970 1302 OFFCURVE",
"1065 1275 CURVE SMOOTH",
"1097 1265 LINE",
"1048 1010 LINE",
"965 1010 LINE",
"961 1183 LINE",
"908 1220 OFFCURVE",
"841 1241 OFFCURVE",
"705 1241 CURVE SMOOTH",
"501 1241 OFFCURVE",
"353 1089 OFFCURVE",
"279 881 CURVE SMOOTH",
"242 776 OFFCURVE",
"223 671 OFFCURVE",
"223 564 CURVE SMOOTH",
"223 393 OFFCURVE",
"269 234 OFFCURVE",
"370 138 CURVE SMOOTH",
"420 90 OFFCURVE",
"484 66 OFFCURVE",
"561 66 CURVE SMOOTH",
"669 66 OFFCURVE",
"797 98 OFFCURVE",
"857 153 CURVE",
"911 530 LINE",
"669 542 LINE",
"678 622 LINE",
"1056 622 LINE",
"980 81 LINE",
"961 79 OFFCURVE",
"935 73 OFFCURVE",
"900 62 CURVE",
"898 61 OFFCURVE",
"888 57 OFFCURVE",
"870 52 CURVE SMOOTH",
"775 24 OFFCURVE",
"730 10 OFFCURVE",
"647 -4 CURVE SMOOTH",
"606 -11 OFFCURVE",
"564 -15 OFFCURVE",
"523 -15 CURVE SMOOTH",
"324 -15 OFFCURVE",
"193 107 OFFCURVE",
"133 279 CURVE SMOOTH",
"102 365 OFFCURVE",
"87 456 OFFCURVE",
"87 553 CURVE SMOOTH",
"87 856 OFFCURVE",
"213 1099 OFFCURVE",
"406 1227 CURVE SMOOTH",
"503 1291 OFFCURVE",
"607 1323 OFFCURVE",
"720 1323 CURVE SMOOTH"
);
}
);
width = 1154;
}
);
note = Gdotaccent;
unicode = 0120;
},
{
glyphname = H;
layers = (
{
layerId = "4C84AE98-85C0-4DB9-B47D-A9DF131BEAEE";
name = "Light Italic";
paths = (
{
closed = 1;
nodes = (
"912 82 LINE",
"979 624 LINE",
"355 624 LINE",
"287 81 LINE",
"421 60 LINE",
"416 0 LINE",
"23 0 LINE",
"29 59 LINE",
"158 81 LINE",
"302 1223 LINE",
"185 1239 LINE",
"193 1309 LINE",
"568 1309 LINE",
"560 1239 LINE",
"431 1223 LINE",
"366 714 LINE",
"990 714 LINE",
"1054 1223 LINE",
"927 1239 LINE",
"933 1309 LINE",
"1312 1309 LINE",
"1304 1239 LINE",
"1182 1223 LINE",
"1040 82 LINE",
"1173 59 LINE",
"1167 0 LINE",
"769 0 LINE",
"774 60 LINE"
);
}
);
width = 1302;
}
);
note = H;
unicode = 0048;
},
{
glyphname = Hbar;
layers = (
{
layerId = "4C84AE98-85C0-4DB9-B47D-A9DF131BEAEE";
name = "Light Italic";
paths = (
{
closed = 1;
nodes = (
"905 82 LINE",
"965 563 LINE",
"341 563 LINE",
"281 81 LINE",
"415 60 LINE",
"409 0 LINE",
"17 0 LINE",
"23 59 LINE",
"151 81 LINE",
"252 882 LINE",
"73 882 LINE",
"83 972 LINE",
"263 972 LINE",
"295 1223 LINE",
"178 1239 LINE",
"187 1309 LINE",
"561 1309 LINE",
"554 1239 LINE",
"425 1223 LINE",
"393 972 LINE",
"1016 972 LINE",
"1047 1223 LINE",
"920 1239 LINE",
"927 1309 LINE",
"1305 1309 LINE",
"1297 1239 LINE",
"1176 1223 LINE",
"1145 972 LINE",
"1329 972 LINE",
"1319 882 LINE",
"1133 882 LINE",
"1034 82 LINE",
"1166 59 LINE",
"1161 0 LINE",
"763 0 LINE",
"768 60 LINE"
);
},
{
closed = 1;
nodes = (
"976 652 LINE",
"1004 882 LINE",
"382 882 LINE",
"353 652 LINE"
);
}
);
width = 1302;
}
);
note = Hbar;
unicode = 0126;
},
{
glyphname = Hcircumflex;
layers = (
{
layerId = "4C84AE98-85C0-4DB9-B47D-A9DF131BEAEE";
name = "Light Italic";
paths = (
{
closed = 1;
nodes = (
"912 82 LINE",
"979 624 LINE",
"355 624 LINE",
"287 81 LINE",
"421 60 LINE",
"416 0 LINE",
"23 0 LINE",
"29 59 LINE",
"158 81 LINE",
"302 1223 LINE",
"185 1239 LINE",
"193 1309 LINE",
"568 1309 LINE",
"560 1239 LINE",
"431 1223 LINE",
"366 714 LINE",
"990 714 LINE",
"1054 1223 LINE",
"927 1239 LINE",
"933 1309 LINE",
"1312 1309 LINE",
"1304 1239 LINE",
"1182 1223 LINE",
"1040 82 LINE",
"1173 59 LINE",
"1167 0 LINE",
"769 0 LINE",
"774 60 LINE"
);
},
{
closed = 1;
nodes = (
"753 1720 LINE",
"870 1720 LINE",
"1060 1439 LINE",
"1014 1398 LINE",
"806 1619 LINE",
"516 1400 LINE",
"475 1440 LINE"
);
}
);
width = 1302;
}
);
note = Hcircumflex;
unicode = 0124;
},
{
glyphname = I;
layers = (
{
layerId = "4C84AE98-85C0-4DB9-B47D-A9DF131BEAEE";
name = "Light Italic";
paths = (
{
closed = 1;
nodes = (
"175 81 LINE",
"318 1223 LINE",
"201 1239 LINE",
"210 1309 LINE",
"584 1309 LINE",
"577 1239 LINE",
"448 1223 LINE",
"304 81 LINE",
"438 60 LINE",
"433 0 LINE",
"40 0 LINE",
"46 59 LINE"
);
}
);
width = 593;
}
);
note = I;
unicode = 0049;
},
{
glyphname = IJ;
layers = (
{
layerId = "4C84AE98-85C0-4DB9-B47D-A9DF131BEAEE";
name = "Light Italic";
paths = (
{
closed = 1;
nodes = (
"175 81 LINE",
"318 1223 LINE",
"201 1239 LINE",
"210 1309 LINE",
"584 1309 LINE",
"577 1239 LINE",
"448 1223 LINE",
"304 81 LINE",
"438 60 LINE",
"433 0 LINE",
"40 0 LINE",
"46 59 LINE"
);
},
{
closed = 1;
nodes = (
"780 1239 LINE",
"789 1309 LINE",
"1205 1309 LINE",
"1198 1239 LINE",
"1049 1224 LINE",
"1048 1211 OFFCURVE",
"1046 1202 OFFCURVE",
"1045 1195 CURVE",
"1006 831 OFFCURVE",
"976 561 OFFCURVE",
"955 384 CURVE SMOOTH",
"913 30 OFFCURVE",
"897 -69 OFFCURVE",
"745 -184 CURVE SMOOTH",
"669 -242 OFFCURVE",
"582 -280 OFFCURVE",
"484 -297 CURVE",
"460 -236 LINE",
"563 -209 OFFCURVE",
"657 -142 OFFCURVE",
"720 -56 CURVE SMOOTH",
"751 -13 OFFCURVE",
"772 31 OFFCURVE",
"782 77 CURVE SMOOTH",
"821 257 OFFCURVE",
"848 494 OFFCURVE",
"889 899 CURVE SMOOTH",
"909 1086 OFFCURVE",
"921 1195 OFFCURVE",
"924 1224 CURVE"
);
}
);
width = 1200;
}
);
note = IJ;
unicode = 0132;
},
{
glyphname = Iacute;
layers = (
{
layerId = "4C84AE98-85C0-4DB9-B47D-A9DF131BEAEE";
name = "Light Italic";
paths = (
{
closed = 1;
nodes = (
"175 81 LINE",
"318 1223 LINE",
"201 1239 LINE",
"210 1309 LINE",
"584 1309 LINE",
"577 1239 LINE",
"448 1223 LINE",
"304 81 LINE",
"438 60 LINE",
"433 0 LINE",
"40 0 LINE",
"46 59 LINE"
);
},
{
closed = 1;
nodes = (
"601 1720 LINE",
"682 1639 LINE",
"641 1556 OFFCURVE",
"500 1445 OFFCURVE",
"400 1388 CURVE",
"357 1420 LINE"
);
}
);
width = 593;
}
);
note = Iacute;
unicode = 00CD;
},
{
glyphname = Ibreve;
layers = (
{
layerId = "4C84AE98-85C0-4DB9-B47D-A9DF131BEAEE";
name = "Light Italic";
paths = (
{
closed = 1;
nodes = (
"175 81 LINE",
"318 1223 LINE",
"201 1239 LINE",
"210 1309 LINE",
"584 1309 LINE",
"577 1239 LINE",
"448 1223 LINE",
"304 81 LINE",
"438 60 LINE",
"433 0 LINE",
"40 0 LINE",
"46 59 LINE"
);
},
{
closed = 1;
nodes = (
"189 1684 OFFCURVE",
"189 1695 OFFCURVE",
"190 1702 CURVE",
"261 1702 LINE",
"266 1598 OFFCURVE",
"311 1507 OFFCURVE",
"438 1507 CURVE SMOOTH",
"522 1507 OFFCURVE",
"583 1550 OFFCURVE",
"618 1610 CURVE SMOOTH",
"635 1640 OFFCURVE",
"646 1671 OFFCURVE",
"651 1702 CURVE",
"719 1702 LINE",
"719 1606 OFFCURVE",
"662 1506 OFFCURVE",
"575 1449 CURVE SMOOTH",
"531 1420 OFFCURVE",
"484 1406 OFFCURVE",
"435 1406 CURVE SMOOTH",
"326 1406 OFFCURVE",
"251 1459 OFFCURVE",
"216 1539 CURVE SMOOTH",
"198 1578 OFFCURVE",
"189 1621 OFFCURVE",
"189 1668 CURVE SMOOTH"
);
}
);
width = 593;
}
);
note = Ibreve;
unicode = 012C;
},
{
glyphname = Icircumflex;
layers = (
{
layerId = "4C84AE98-85C0-4DB9-B47D-A9DF131BEAEE";
name = "Light Italic";
paths = (
{
closed = 1;
nodes = (
"175 81 LINE",
"318 1223 LINE",
"201 1239 LINE",
"210 1309 LINE",
"584 1309 LINE",
"577 1239 LINE",
"448 1223 LINE",
"304 81 LINE",
"438 60 LINE",
"433 0 LINE",
"40 0 LINE",
"46 59 LINE"
);
},
{
closed = 1;
nodes = (
"422 1720 LINE",
"539 1720 LINE",
"729 1439 LINE",
"683 1398 LINE",
"475 1619 LINE",
"185 1400 LINE",
"144 1440 LINE"
);
}
);
width = 593;
}
);
note = Icircumflex;
unicode = 00CE;
},
{
glyphname = Idieresis;
layers = (
{
layerId = "4C84AE98-85C0-4DB9-B47D-A9DF131BEAEE";
name = "Light Italic";
paths = (
{
closed = 1;
nodes = (
"175 81 LINE",
"318 1223 LINE",
"201 1239 LINE",
"210 1309 LINE",
"584 1309 LINE",
"577 1239 LINE",
"448 1223 LINE",
"304 81 LINE",
"438 60 LINE",
"433 0 LINE",
"40 0 LINE",
"46 59 LINE"
);
},
{
closed = 1;
nodes = (
"189 1617 OFFCURVE",
"210 1653 OFFCURVE",
"239 1673 CURVE SMOOTH",
"254 1683 OFFCURVE",
"269 1688 OFFCURVE",
"284 1688 CURVE SMOOTH",
"331 1688 OFFCURVE",
"362 1655 OFFCURVE",
"362 1607 CURVE SMOOTH",
"362 1568 OFFCURVE",
"343 1532 OFFCURVE",
"312 1513 CURVE SMOOTH",
"296 1503 OFFCURVE",
"279 1498 OFFCURVE",
"262 1498 CURVE SMOOTH",
"222 1498 OFFCURVE",
"189 1533 OFFCURVE",
"189 1580 CURVE SMOOTH"
);
},
{
closed = 1;
nodes = (
"549 1620 OFFCURVE",
"571 1654 OFFCURVE",
"601 1674 CURVE",
"616 1683 OFFCURVE",
"630 1688 OFFCURVE",
"645 1688 CURVE SMOOTH",
"693 1688 OFFCURVE",
"724 1655 OFFCURVE",
"724 1608 CURVE SMOOTH",
"724 1569 OFFCURVE",
"704 1533 OFFCURVE",
"673 1513 CURVE SMOOTH",
"658 1503 OFFCURVE",
"641 1498 OFFCURVE",
"623 1498 CURVE SMOOTH",
"580 1498 OFFCURVE",
"549 1533 OFFCURVE",
"549 1581 CURVE SMOOTH"
);
}
);
width = 593;
}
);
note = Idieresis;
unicode = 00CF;
},
{
glyphname = Idotaccent;
layers = (
{
layerId = "4C84AE98-85C0-4DB9-B47D-A9DF131BEAEE";
name = "Light Italic";
paths = (
{
closed = 1;
nodes = (
"175 81 LINE",
"318 1223 LINE",
"201 1239 LINE",
"210 1309 LINE",
"584 1309 LINE",
"577 1239 LINE",
"448 1223 LINE",
"304 81 LINE",
"438 60 LINE",
"433 0 LINE",
"40 0 LINE",
"46 59 LINE"
);
},
{
closed = 1;
nodes = (
"363 1584 OFFCURVE",
"385 1619 OFFCURVE",
"414 1639 CURVE",
"429 1648 OFFCURVE",
"444 1653 OFFCURVE",
"459 1653 CURVE SMOOTH",
"507 1653 OFFCURVE",
"539 1621 OFFCURVE",
"539 1574 CURVE SMOOTH",
"539 1535 OFFCURVE",
"519 1498 OFFCURVE",
"488 1478 CURVE SMOOTH",
"473 1468 OFFCURVE",
"456 1463 OFFCURVE",
"438 1463 CURVE SMOOTH",
"397 1463 OFFCURVE",
"363 1497 OFFCURVE",
"363 1545 CURVE SMOOTH"
);
}
);
width = 593;
}
);
note = Idotaccent;
unicode = 0130;
},
{
glyphname = Igrave;
layers = (
{
layerId = "4C84AE98-85C0-4DB9-B47D-A9DF131BEAEE";
name = "Light Italic";
paths = (
{
closed = 1;
nodes = (
"175 81 LINE",
"318 1223 LINE",
"201 1239 LINE",
"210 1309 LINE",
"584 1309 LINE",
"577 1239 LINE",
"448 1223 LINE",
"304 81 LINE",
"438 60 LINE",
"433 0 LINE",
"40 0 LINE",
"46 59 LINE"
);
},
{
closed = 1;
nodes = (
"255 1720 LINE",
"489 1420 LINE",
"445 1388 LINE",
"384 1423 OFFCURVE",
"302 1485 OFFCURVE",
"237 1550 CURVE SMOOTH",
"204 1582 OFFCURVE",
"182 1612 OFFCURVE",
"169 1639 CURVE"
);
}
);
width = 593;
}
);
note = Igrave;
unicode = 00CC;
},
{
glyphname = Imacron;
layers = (
{
layerId = "4C84AE98-85C0-4DB9-B47D-A9DF131BEAEE";
name = "Light Italic";
paths = (
{
closed = 1;
nodes = (
"175 81 LINE",
"318 1223 LINE",
"201 1239 LINE",
"210 1309 LINE",
"584 1309 LINE",
"577 1239 LINE",
"448 1223 LINE",
"304 81 LINE",
"438 60 LINE",
"433 0 LINE",
"40 0 LINE",
"46 59 LINE"
);
},
{
closed = 1;
nodes = (
"657 1603 LINE",
"644 1501 LINE",
"206 1501 LINE",
"219 1603 LINE"
);
}
);
width = 593;
}
);
note = Imacron;
unicode = 012A;
},
{
glyphname = Iogonek;
layers = (
{
layerId = "4C84AE98-85C0-4DB9-B47D-A9DF131BEAEE";
name = "Light Italic";
paths = (
{
closed = 1;
nodes = (
"175 81 LINE",
"318 1223 LINE",
"201 1239 LINE",
"210 1309 LINE",
"584 1309 LINE",
"577 1239 LINE",
"448 1223 LINE",
"304 81 LINE",
"438 60 LINE",
"433 0 LINE",
"272 0 LINE",
"163 -80 OFFCURVE",
"101 -135 OFFCURVE",
"101 -194 CURVE",
"98 -243 OFFCURVE",
"123 -269 OFFCURVE",
"158 -269 CURVE SMOOTH",
"204 -269 OFFCURVE",
"250 -250 OFFCURVE",
"295 -211 CURVE",
"313 -277 LINE",
"252 -331 OFFCURVE",
"181 -358 OFFCURVE",
"98 -358 CURVE SMOOTH",
"41 -358 OFFCURVE",
"4 -334 OFFCURVE",
"-14 -301 CURVE SMOOTH",
"-23 -285 OFFCURVE",
"-28 -268 OFFCURVE",
"-28 -250 CURVE SMOOTH",
"-28 -215 OFFCURVE",
"-14 -175 OFFCURVE",
"3 -150 CURVE SMOOTH",
"36 -102 OFFCURVE",
"81 -65 OFFCURVE",
"118 -43 CURVE SMOOTH",
"136 -32 OFFCURVE",
"161 -18 OFFCURVE",
"194 0 CURVE",
"40 0 LINE",
"46 59 LINE"
);
}
);
width = 593;
}
);
note = Iogonek;
unicode = 012E;
},
{
glyphname = Itilde;
layers = (
{
layerId = "4C84AE98-85C0-4DB9-B47D-A9DF131BEAEE";
name = "Light Italic";
paths = (
{
closed = 1;
nodes = (
"175 81 LINE",
"318 1223 LINE",
"201 1239 LINE",
"210 1309 LINE",
"584 1309 LINE",
"577 1239 LINE",
"448 1223 LINE",
"304 81 LINE",
"438 60 LINE",
"433 0 LINE",
"40 0 LINE",
"46 59 LINE"
);
},
{
closed = 1;
nodes = (
"137 1548 LINE",
"172 1629 OFFCURVE",
"237 1690 OFFCURVE",
"326 1690 CURVE SMOOTH",
"381 1690 OFFCURVE",
"412 1667 OFFCURVE",
"464 1623 CURVE SMOOTH",
"509 1583 OFFCURVE",
"537 1563 OFFCURVE",
"577 1563 CURVE SMOOTH",
"638 1563 OFFCURVE",
"672 1598 OFFCURVE",
"709 1650 CURVE",
"748 1594 LINE",
"717 1521 OFFCURVE",
"654 1452 OFFCURVE",
"565 1452 CURVE SMOOTH",
"508 1452 OFFCURVE",
"475 1475 OFFCURVE",
"424 1520 CURVE",
"383 1559 OFFCURVE",
"355 1578 OFFCURVE",
"312 1578 CURVE SMOOTH",
"255 1578 OFFCURVE",
"214 1547 OFFCURVE",
"175 1491 CURVE"
);
}
);
width = 593;
}
);
note = Itilde;
unicode = 0128;
},
{
glyphname = J;
layers = (
{
layerId = "4C84AE98-85C0-4DB9-B47D-A9DF131BEAEE";
name = "Light Italic";
paths = (
{
closed = 1;
nodes = (
"187 1239 LINE",
"196 1309 LINE",
"612 1309 LINE",
"605 1239 LINE",
"456 1224 LINE",
"455 1211 OFFCURVE",
"453 1202 OFFCURVE",
"452 1195 CURVE",
"413 831 OFFCURVE",
"383 561 OFFCURVE",
"362 384 CURVE SMOOTH",
"320 30 OFFCURVE",
"304 -69 OFFCURVE",
"152 -184 CURVE SMOOTH",
"76 -242 OFFCURVE",
"-11 -280 OFFCURVE",
"-109 -297 CURVE",
"-133 -236 LINE",
"-30 -209 OFFCURVE",
"64 -142 OFFCURVE",
"127 -56 CURVE SMOOTH",
"158 -13 OFFCURVE",
"179 31 OFFCURVE",
"189 77 CURVE SMOOTH",
"228 257 OFFCURVE",
"255 494 OFFCURVE",
"296 899 CURVE SMOOTH",
"316 1086 OFFCURVE",
"328 1195 OFFCURVE",
"331 1224 CURVE"
);
}
);
width = 607;
}
);
note = J;
unicode = 004A;
},
{
glyphname = Jcircumflex;
layers = (
{
layerId = "4C84AE98-85C0-4DB9-B47D-A9DF131BEAEE";
name = "Light Italic";
paths = (
{
closed = 1;
nodes = (
"187 1239 LINE",
"196 1309 LINE",
"612 1309 LINE",
"605 1239 LINE",
"456 1224 LINE",
"455 1211 OFFCURVE",
"453 1202 OFFCURVE",
"452 1195 CURVE",
"413 831 OFFCURVE",
"383 561 OFFCURVE",
"362 384 CURVE SMOOTH",
"320 30 OFFCURVE",
"304 -69 OFFCURVE",
"152 -184 CURVE SMOOTH",
"76 -242 OFFCURVE",
"-11 -280 OFFCURVE",
"-109 -297 CURVE",
"-133 -236 LINE",
"-30 -209 OFFCURVE",
"64 -142 OFFCURVE",
"127 -56 CURVE SMOOTH",
"158 -13 OFFCURVE",
"179 31 OFFCURVE",
"189 77 CURVE SMOOTH",
"228 257 OFFCURVE",
"255 494 OFFCURVE",
"296 899 CURVE SMOOTH",
"316 1086 OFFCURVE",
"328 1195 OFFCURVE",
"331 1224 CURVE"
);
},
{
closed = 1;
nodes = (
"415 1720 LINE",
"532 1720 LINE",
"722 1439 LINE",
"676 1398 LINE",
"468 1619 LINE",
"178 1400 LINE",
"137 1440 LINE"
);
}
);
width = 607;
}
);
note = Jcircumflex;
unicode = 0134;
},
{
glyphname = K;
layers = (
{
layerId = "4C84AE98-85C0-4DB9-B47D-A9DF131BEAEE";
name = "Light Italic";
paths = (
{
closed = 1;
nodes = (
"676 347 OFFCURVE",
"643 402 OFFCURVE",
"602 474 CURVE SMOOTH",
"592 492 OFFCURVE",
"578 516 OFFCURVE",
"560 547 CURVE SMOOTH",
"542 578 OFFCURVE",
"528 602 OFFCURVE",
"518 619 CURVE",
"329 416 LINE",
"287 81 LINE",
"421 60 LINE",
"416 0 LINE",
"23 0 LINE",
"29 59 LINE",
"158 81 LINE",
"302 1223 LINE",
"185 1239 LINE",
"193 1309 LINE",
"568 1309 LINE",
"560 1239 LINE",
"431 1223 LINE",
"346 547 LINE",
"951 1223 LINE",
"831 1239 LINE",
"839 1309 LINE",
"1192 1309 LINE",
"1182 1239 LINE",
"1079 1224 LINE",
"598 705 LINE",
"606 692 OFFCURVE",
"616 676 OFFCURVE",
"627 657 CURVE SMOOTH",
"638 638 OFFCURVE",
"652 615 OFFCURVE",
"667 590 CURVE SMOOTH",
"736 475 OFFCURVE",
"784 396 OFFCURVE",
"813 352 CURVE SMOOTH",
"871 259 OFFCURVE",
"912 195 OFFCURVE",
"936 162 CURVE SMOOTH",
"959 128 OFFCURVE",
"980 106 OFFCURVE",
"997 95 CURVE",
"1113 64 LINE",
"1104 0 LINE",
"898 0 LINE",
"885 2 OFFCURVE",
"867 20 OFFCURVE",
"846 54 CURVE SMOOTH",
"824 87 OFFCURVE",
"795 137 OFFCURVE",
"759 202 CURVE SMOOTH",
"743 231 OFFCURVE",
"723 266 OFFCURVE",
"699 308 CURVE SMOOTH"
);
}
);
width = 1158;
}
);
note = K;
unicode = 004B;
},
{
glyphname = Kcommaaccent;
layers = (
{
layerId = "4C84AE98-85C0-4DB9-B47D-A9DF131BEAEE";
name = "Light Italic";
paths = (
{
closed = 1;
nodes = (
"445 -434 LINE",
"490 -402 OFFCURVE",
"525 -336 OFFCURVE",
"525 -268 CURVE SMOOTH",
"525 -220 OFFCURVE",
"499 -168 OFFCURVE",
"464 -155 CURVE",
"464 -112 LINE",
"548 -43 LINE",
"609 -62 OFFCURVE",
"644 -135 OFFCURVE",
"644 -218 CURVE SMOOTH",
"644 -306 OFFCURVE",
"607 -384 OFFCURVE",
"560 -433 CURVE SMOOTH",
"537 -458 OFFCURVE",
"515 -473 OFFCURVE",
"496 -480 CURVE",
"445 -451 LINE"
);
},
{
closed = 1;
nodes = (
"670 347 OFFCURVE",
"637 402 OFFCURVE",
"596 474 CURVE SMOOTH",
"586 492 OFFCURVE",
"572 516 OFFCURVE",
"554 547 CURVE SMOOTH",
"536 578 OFFCURVE",
"522 602 OFFCURVE",
"512 619 CURVE",
"323 416 LINE",
"281 81 LINE",
"415 60 LINE",
"410 0 LINE",
"17 0 LINE",
"23 59 LINE",
"152 81 LINE",
"296 1223 LINE",
"179 1239 LINE",
"187 1309 LINE",
"562 1309 LINE",
"554 1239 LINE",
"425 1223 LINE",
"340 547 LINE",
"945 1223 LINE",
"825 1239 LINE",
"833 1309 LINE",
"1186 1309 LINE",
"1176 1239 LINE",
"1073 1224 LINE",
"592 705 LINE",
"600 692 OFFCURVE",
"610 676 OFFCURVE",
"621 657 CURVE SMOOTH",
"632 638 OFFCURVE",
"646 615 OFFCURVE",
"661 590 CURVE SMOOTH",
"730 475 OFFCURVE",
"778 396 OFFCURVE",
"807 352 CURVE SMOOTH",
"865 259 OFFCURVE",
"906 195 OFFCURVE",
"930 162 CURVE SMOOTH",
"953 128 OFFCURVE",
"974 106 OFFCURVE",
"991 95 CURVE",
"1107 64 LINE",
"1098 0 LINE",
"892 0 LINE",
"879 2 OFFCURVE",
"861 20 OFFCURVE",
"840 54 CURVE SMOOTH",
"818 87 OFFCURVE",
"789 137 OFFCURVE",
"753 202 CURVE SMOOTH",
"737 231 OFFCURVE",
"717 266 OFFCURVE",
"693 308 CURVE SMOOTH"
);
}
);
width = 1152;
}
);
note = Kcommaaccent;
unicode = 0136;
},
{
glyphname = L;
layers = (
{
layerId = "4C84AE98-85C0-4DB9-B47D-A9DF131BEAEE";
name = "Light Italic";
paths = (
{
closed = 1;
nodes = (
"158 81 LINE",
"302 1223 LINE",
"185 1239 LINE",
"193 1309 LINE",
"589 1309 LINE",
"582 1239 LINE",
"431 1223 LINE",
"287 81 LINE",
"756 89 LINE",
"863 386 LINE",
"941 371 LINE",
"858 0 LINE",
"24 0 LINE",
"29 60 LINE"
);
}
);
width = 1004;
}
);
note = L;
unicode = 004C;
},
{
glyphname = Lacute;
layers = (
{
layerId = "4C84AE98-85C0-4DB9-B47D-A9DF131BEAEE";
name = "Light Italic";
paths = (
{
closed = 1;
nodes = (
"594 1722 LINE",
"675 1641 LINE",
"634 1558 OFFCURVE",
"493 1447 OFFCURVE",
"393 1390 CURVE",
"350 1422 LINE"
);
},
{
closed = 1;
nodes = (
"158 81 LINE",
"302 1223 LINE",
"185 1239 LINE",
"193 1309 LINE",
"589 1309 LINE",
"582 1239 LINE",
"431 1223 LINE",
"287 81 LINE",
"756 89 LINE",
"863 386 LINE",
"941 371 LINE",
"858 0 LINE",
"24 0 LINE",
"29 60 LINE"
);
}
);
width = 1004;
}
);
note = Lacute;
unicode = 0139;
},
{
glyphname = Lcaron;
layers = (
{
layerId = "4C84AE98-85C0-4DB9-B47D-A9DF131BEAEE";
name = "Light Italic";
paths = (
{
closed = 1;
nodes = (
"158 81 LINE",
"302 1223 LINE",
"185 1239 LINE",
"193 1309 LINE",
"589 1309 LINE",
"582 1239 LINE",
"431 1223 LINE",
"287 81 LINE",
"756 89 LINE",
"863 386 LINE",
"941 371 LINE",
"858 0 LINE",
"24 0 LINE",
"29 60 LINE"
);
},
{
closed = 1;
nodes = (
"756 883 LINE",
"792 976 OFFCURVE",
"814 1066 OFFCURVE",
"823 1153 CURVE SMOOTH",
"825 1168 OFFCURVE",
"826 1183 OFFCURVE",
"826 1197 CURVE SMOOTH",
"826 1253 OFFCURVE",
"815 1307 OFFCURVE",
"799 1330 CURVE",
"811 1359 LINE",
"913 1391 LINE",
"932 1370 OFFCURVE",
"941 1329 OFFCURVE",
"941 1268 CURVE SMOOTH",
"941 1246 OFFCURVE",
"940 1221 OFFCURVE",
"937 1194 CURVE SMOOTH",
"922 1051 OFFCURVE",
"864 921 OFFCURVE",
"801 845 CURVE",
"760 865 LINE"
);
}
);
width = 1004;
}
);
note = Lcaron;
unicode = 013D;
},
{
glyphname = Lcommaaccent;
layers = (
{
layerId = "4C84AE98-85C0-4DB9-B47D-A9DF131BEAEE";
name = "Light Italic";
paths = (
{
closed = 1;
nodes = (
"373 -434 LINE",
"418 -402 OFFCURVE",
"453 -336 OFFCURVE",
"453 -268 CURVE SMOOTH",
"453 -220 OFFCURVE",
"427 -168 OFFCURVE",
"392 -155 CURVE",
"392 -112 LINE",
"476 -43 LINE",
"537 -62 OFFCURVE",
"572 -135 OFFCURVE",
"572 -218 CURVE SMOOTH",
"572 -306 OFFCURVE",
"535 -384 OFFCURVE",
"488 -433 CURVE SMOOTH",
"465 -458 OFFCURVE",
"443 -473 OFFCURVE",
"424 -480 CURVE",
"373 -451 LINE"
);
},
{
closed = 1;
nodes = (
"158 81 LINE",
"302 1223 LINE",
"185 1239 LINE",
"193 1309 LINE",
"589 1309 LINE",
"582 1239 LINE",
"431 1223 LINE",
"287 81 LINE",
"756 89 LINE",
"863 386 LINE",
"941 371 LINE",
"858 0 LINE",
"24 0 LINE",
"29 60 LINE"
);
}
);
width = 1004;
}
);
note = Lcommaaccent;
unicode = 013B;
},
{
glyphname = Ldot;
layers = (
{
layerId = "4C84AE98-85C0-4DB9-B47D-A9DF131BEAEE";
name = "Light Italic";
paths = (
{
closed = 1;
nodes = (
"158 81 LINE",
"302 1223 LINE",
"185 1239 LINE",
"193 1309 LINE",
"589 1309 LINE",
"582 1239 LINE",
"431 1223 LINE",
"287 81 LINE",
"756 89 LINE",
"863 386 LINE",
"941 371 LINE",
"858 0 LINE",
"24 0 LINE",
"29 60 LINE"
);
},
{
closed = 1;
nodes = (
"958 837 OFFCURVE",
"984 808 OFFCURVE",
"984 764 CURVE SMOOTH",
"984 756 OFFCURVE",
"984 750 OFFCURVE",
"983 746 CURVE",
"974 682 OFFCURVE",
"925 641 OFFCURVE",
"872 641 CURVE SMOOTH",
"828 641 OFFCURVE",
"800 668 OFFCURVE",
"800 716 CURVE SMOOTH",
"800 723 OFFCURVE",
"800 729 OFFCURVE",
"801 732 CURVE",
"809 792 OFFCURVE",
"855 837 OFFCURVE",
"906 837 CURVE SMOOTH"
);
}
);
width = 1004;
}
);
note = Ldot;
unicode = 013F;
},
{
glyphname = Lslash;
layers = (
{
layerId = "4C84AE98-85C0-4DB9-B47D-A9DF131BEAEE";
name = "Light Italic";
paths = (
{
closed = 1;
nodes = (
"223 596 LINE",
"302 1225 LINE",
"185 1241 LINE",
"193 1311 LINE",
"589 1311 LINE",
"582 1241 LINE",
"431 1225 LINE",
"359 655 LINE",
"746 823 LINE",
"769 735 LINE",
"347 556 LINE",
"287 83 LINE",
"756 90 LINE",
"863 388 LINE",
"941 372 LINE",
"858 2 LINE",
"24 2 LINE",
"29 62 LINE",
"158 83 LINE",
"210 497 LINE",
"76 440 LINE",
"52 522 LINE"
);
}
);
width = 1004;
}
);
note = Lslash;
unicode = 0141;
},
{
glyphname = M;
layers = (
{
layerId = "4C84AE98-85C0-4DB9-B47D-A9DF131BEAEE";
name = "Light Italic";
paths = (
{
closed = 1;
nodes = (
"113 81 LINE",
"397 1223 LINE",
"238 1239 LINE",
"246 1309 LINE",
"587 1309 LINE",
"740 398 LINE",
"766 206 LINE",
"854 395 LINE",
"895 500 OFFCURVE",
"955 628 OFFCURVE",
"1066 857 CURVE",
"1074 876 OFFCURVE",
"1095 920 OFFCURVE",
"1129 991 CURVE SMOOTH",
"1197 1132 OFFCURVE",
"1243 1238 OFFCURVE",
"1272 1309 CURVE",
"1594 1309 LINE",
"1587 1239 LINE",
"1430 1223 LINE",
"1397 82 LINE",
"1543 60 LINE",
"1537 0 LINE",
"1101 0 LINE",
"1108 60 LINE",
"1268 80 LINE",
"1303 875 LINE",
"1328 1238 LINE",
"1192 917 LINE",
"770 -3 LINE",
"696 -15 LINE",
"541 896 LINE",
"482 1237 LINE",
"411 889 LINE",
"219 81 LINE",
"391 60 LINE",
"386 0 LINE",
"-42 0 LINE",
"-35 60 LINE"
);
}
);
width = 1611;
}
);
note = M;
unicode = 004D;
},
{
glyphname = N;
layers = (
{
layerId = "4C84AE98-85C0-4DB9-B47D-A9DF131BEAEE";
name = "Light Italic";
paths = (
{
closed = 1;
nodes = (
"152 79 LINE",
"301 1223 LINE",
"175 1239 LINE",
"187 1309 LINE",
"440 1309 LINE",
"885 322 LINE",
"953 126 LINE",
"1083 1224 LINE",
"944 1239 LINE",
"953 1309 LINE",
"1325 1309 LINE",
"1318 1239 LINE",
"1186 1223 LINE",
"1018 0 LINE",
"894 0 LINE",
"452 979 LINE",
"384 1176 LINE",
"262 81 LINE",
"409 60 LINE",
"403 0 LINE",
"26 0 LINE",
"31 59 LINE"
);
}
);
width = 1298;
}
);
note = N;
unicode = 004E;
},
{
glyphname = Nacute;
layers = (
{
layerId = "4C84AE98-85C0-4DB9-B47D-A9DF131BEAEE";
name = "Light Italic";
paths = (
{
closed = 1;
nodes = (
"923 1720 LINE",
"1004 1639 LINE",
"963 1556 OFFCURVE",
"822 1445 OFFCURVE",
"722 1388 CURVE",
"679 1420 LINE"
);
},
{
closed = 1;
nodes = (
"152 79 LINE",
"301 1223 LINE",
"175 1239 LINE",
"187 1309 LINE",
"440 1309 LINE",
"885 322 LINE",
"953 126 LINE",
"1083 1224 LINE",
"944 1239 LINE",
"953 1309 LINE",
"1325 1309 LINE",
"1318 1239 LINE",
"1186 1223 LINE",
"1018 0 LINE",
"894 0 LINE",
"452 979 LINE",
"384 1176 LINE",
"262 81 LINE",
"409 60 LINE",
"403 0 LINE",
"26 0 LINE",
"31 59 LINE"
);
}
);
width = 1298;
}
);
note = Nacute;
unicode = 0143;
},
{
glyphname = Ncaron;
layers = (
{
layerId = "4C84AE98-85C0-4DB9-B47D-A9DF131BEAEE";
name = "Light Italic";
paths = (
{
closed = 1;
nodes = (
"550 1720 LINE",
"751 1492 LINE",
"1029 1720 LINE",
"1071 1680 LINE",
"806 1395 LINE",
"691 1395 LINE",
"500 1680 LINE"
);
},
{
closed = 1;
nodes = (
"152 79 LINE",
"301 1223 LINE",
"175 1239 LINE",
"187 1309 LINE",
"440 1309 LINE",
"885 322 LINE",
"953 126 LINE",
"1083 1224 LINE",
"944 1239 LINE",
"953 1309 LINE",
"1325 1309 LINE",
"1318 1239 LINE",
"1186 1223 LINE",
"1018 0 LINE",
"894 0 LINE",
"452 979 LINE",
"384 1176 LINE",
"262 81 LINE",
"409 60 LINE",
"403 0 LINE",
"26 0 LINE",
"31 59 LINE"
);
}
);
width = 1298;
}
);
note = Ncaron;
unicode = 0147;
},
{
glyphname = Ncommaaccent;
layers = (
{
layerId = "4C84AE98-85C0-4DB9-B47D-A9DF131BEAEE";
name = "Light Italic";
paths = (
{
closed = 1;
nodes = (
"472 -436 LINE",
"517 -404 OFFCURVE",
"552 -338 OFFCURVE",
"552 -270 CURVE SMOOTH",
"552 -222 OFFCURVE",
"526 -170 OFFCURVE",
"491 -157 CURVE",
"491 -114 LINE",
"575 -45 LINE",
"636 -64 OFFCURVE",
"671 -137 OFFCURVE",
"671 -220 CURVE SMOOTH",
"671 -308 OFFCURVE",
"634 -386 OFFCURVE",
"587 -435 CURVE SMOOTH",
"564 -460 OFFCURVE",
"542 -475 OFFCURVE",
"523 -482 CURVE",
"472 -453 LINE"
);
},
{
closed = 1;
nodes = (
"152 79 LINE",
"301 1223 LINE",
"175 1239 LINE",
"187 1309 LINE",
"440 1309 LINE",
"885 322 LINE",
"953 126 LINE",
"1083 1224 LINE",
"944 1239 LINE",
"953 1309 LINE",
"1325 1309 LINE",
"1318 1239 LINE",
"1186 1223 LINE",
"1018 0 LINE",
"894 0 LINE",
"452 979 LINE",
"384 1176 LINE",
"262 81 LINE",
"409 60 LINE",
"403 0 LINE",
"26 0 LINE",
"31 59 LINE"
);
}
);
width = 1298;
}
);
note = Ncommaaccent;
unicode = 0145;
},
{
glyphname = Eng;
layers = (
{
layerId = "4C84AE98-85C0-4DB9-B47D-A9DF131BEAEE";
name = "Light Italic";
paths = (
{
closed = 1;
nodes = (
"151 79 LINE",
"304 1225 LINE",
"175 1241 LINE",
"186 1311 LINE",
"440 1311 LINE",
"889 322 LINE",
"951 152 LINE",
"1076 1225 LINE",
"944 1241 LINE",
"952 1311 LINE",
"1322 1311 LINE",
"1315 1241 LINE",
"1183 1225 LINE",
"1018 0 LINE SMOOTH",
"993 -184 OFFCURVE",
"823 -275 OFFCURVE",
"620 -314 CURVE",
"597 -253 LINE",
"750 -206 OFFCURVE",
"870 -123 OFFCURVE",
"894 -3 CURVE",
"449 967 LINE",
"384 1139 LINE",
"266 81 LINE",
"408 60 LINE",
"403 0 LINE",
"25 0 LINE",
"31 59 LINE"
);
}
);
width = 1298;
}
);
note = Eng;
unicode = 014A;
},
{
glyphname = Ntilde;
layers = (
{
layerId = "4C84AE98-85C0-4DB9-B47D-A9DF131BEAEE";
name = "Light Italic";
paths = (
{
closed = 1;
nodes = (
"458 1548 LINE",
"493 1629 OFFCURVE",
"558 1690 OFFCURVE",
"647 1690 CURVE SMOOTH",
"702 1690 OFFCURVE",
"733 1667 OFFCURVE",
"785 1623 CURVE SMOOTH",
"830 1583 OFFCURVE",
"858 1563 OFFCURVE",
"898 1563 CURVE SMOOTH",
"959 1563 OFFCURVE",
"993 1598 OFFCURVE",
"1030 1650 CURVE",
"1069 1594 LINE",
"1038 1521 OFFCURVE",
"975 1452 OFFCURVE",
"886 1452 CURVE SMOOTH",
"829 1452 OFFCURVE",
"796 1475 OFFCURVE",
"745 1520 CURVE",
"704 1559 OFFCURVE",
"676 1578 OFFCURVE",
"633 1578 CURVE SMOOTH",
"576 1578 OFFCURVE",
"535 1547 OFFCURVE",
"496 1491 CURVE"
);
},
{
closed = 1;
nodes = (
"152 79 LINE",
"301 1223 LINE",
"175 1239 LINE",
"187 1309 LINE",
"440 1309 LINE",
"885 322 LINE",
"953 126 LINE",
"1083 1224 LINE",
"944 1239 LINE",
"953 1309 LINE",
"1325 1309 LINE",
"1318 1239 LINE",
"1186 1223 LINE",
"1018 0 LINE",
"894 0 LINE",
"452 979 LINE",
"384 1176 LINE",
"262 81 LINE",
"409 60 LINE",
"403 0 LINE",
"26 0 LINE",
"31 59 LINE"
);
}
);
width = 1298;
}
);
note = Ntilde;
unicode = 00D1;
},
{
glyphname = O;
layers = (
{
layerId = "4C84AE98-85C0-4DB9-B47D-A9DF131BEAEE";
name = "Light Italic";
paths = (
{
closed = 1;
nodes = (
"883 1326 OFFCURVE",
"1013 1218 OFFCURVE",
"1076 1047 CURVE SMOOTH",
"1107 961 OFFCURVE",
"1123 866 OFFCURVE",
"1123 761 CURVE SMOOTH",
"1123 468 OFFCURVE",
"1013 220 OFFCURVE",
"833 85 CURVE SMOOTH",
"743 17 OFFCURVE",
"643 -17 OFFCURVE",
"532 -17 CURVE SMOOTH",
"348 -17 OFFCURVE",
"216 89 OFFCURVE",
"150 260 CURVE SMOOTH",
"117 345 OFFCURVE",
"100 441 OFFCURVE",
"100 548 CURVE SMOOTH",
"100 843 OFFCURVE",
"211 1092 OFFCURVE",
"393 1226 CURVE SMOOTH",
"484 1293 OFFCURVE",
"585 1326 OFFCURVE",
"696 1326 CURVE SMOOTH"
);
},
{
closed = 1;
nodes = (
"988 936 OFFCURVE",
"942 1092 OFFCURVE",
"848 1176 CURVE SMOOTH",
"801 1218 OFFCURVE",
"743 1239 OFFCURVE",
"674 1239 CURVE SMOOTH",
"509 1239 OFFCURVE",
"368 1118 OFFCURVE",
"290 914 CURVE SMOOTH",
"251 812 OFFCURVE",
"231 697 OFFCURVE",
"231 568 CURVE SMOOTH",
"231 365 OFFCURVE",
"283 211 OFFCURVE",
"379 128 CURVE SMOOTH",
"427 86 OFFCURVE",
"484 65 OFFCURVE",
"550 65 CURVE SMOOTH",
"714 65 OFFCURVE",
"854 187 OFFCURVE",
"931 391 CURVE SMOOTH",
"969 493 OFFCURVE",
"988 608 OFFCURVE",
"988 735 CURVE SMOOTH"
);
}
);
width = 1188;
}
);
note = O;
unicode = 004F;
},
{
glyphname = Oacute;
layers = (
{
layerId = "4C84AE98-85C0-4DB9-B47D-A9DF131BEAEE";
name = "Light Italic";
paths = (
{
closed = 1;
nodes = (
"887 1720 LINE",
"968 1639 LINE",
"927 1556 OFFCURVE",
"786 1445 OFFCURVE",
"686 1388 CURVE",
"643 1420 LINE"
);
},
{
closed = 1;
nodes = (
"883 1326 OFFCURVE",
"1013 1218 OFFCURVE",
"1076 1047 CURVE SMOOTH",
"1107 961 OFFCURVE",
"1123 866 OFFCURVE",
"1123 761 CURVE SMOOTH",
"1123 468 OFFCURVE",
"1013 220 OFFCURVE",
"833 85 CURVE SMOOTH",
"743 17 OFFCURVE",
"643 -17 OFFCURVE",
"532 -17 CURVE SMOOTH",
"348 -17 OFFCURVE",
"216 89 OFFCURVE",
"150 260 CURVE SMOOTH",
"117 345 OFFCURVE",
"100 441 OFFCURVE",
"100 548 CURVE SMOOTH",
"100 843 OFFCURVE",
"211 1092 OFFCURVE",
"393 1226 CURVE SMOOTH",
"484 1293 OFFCURVE",
"585 1326 OFFCURVE",
"696 1326 CURVE SMOOTH"
);
},
{
closed = 1;
nodes = (
"988 936 OFFCURVE",
"942 1092 OFFCURVE",
"848 1176 CURVE SMOOTH",
"801 1218 OFFCURVE",
"743 1239 OFFCURVE",
"674 1239 CURVE SMOOTH",
"509 1239 OFFCURVE",
"368 1118 OFFCURVE",
"290 914 CURVE SMOOTH",
"251 812 OFFCURVE",
"231 697 OFFCURVE",
"231 568 CURVE SMOOTH",
"231 365 OFFCURVE",
"283 211 OFFCURVE",
"379 128 CURVE SMOOTH",
"427 86 OFFCURVE",
"484 65 OFFCURVE",
"550 65 CURVE SMOOTH",
"714 65 OFFCURVE",
"854 187 OFFCURVE",
"931 391 CURVE SMOOTH",
"969 493 OFFCURVE",
"988 608 OFFCURVE",
"988 735 CURVE SMOOTH"
);
}
);
width = 1188;
}
);
note = Oacute;
unicode = 00D3;
},
{
glyphname = Obreve;
layers = (
{
layerId = "4C84AE98-85C0-4DB9-B47D-A9DF131BEAEE";
name = "Light Italic";
paths = (
{
closed = 1;
nodes = (
"474 1684 OFFCURVE",
"474 1695 OFFCURVE",
"475 1702 CURVE",
"546 1702 LINE",
"551 1598 OFFCURVE",
"596 1507 OFFCURVE",
"723 1507 CURVE SMOOTH",
"807 1507 OFFCURVE",
"868 1550 OFFCURVE",
"903 1610 CURVE SMOOTH",
"920 1640 OFFCURVE",
"931 1671 OFFCURVE",
"936 1702 CURVE",
"1004 1702 LINE",
"1004 1606 OFFCURVE",
"947 1506 OFFCURVE",
"860 1449 CURVE SMOOTH",
"816 1420 OFFCURVE",
"769 1406 OFFCURVE",
"720 1406 CURVE SMOOTH",
"611 1406 OFFCURVE",
"536 1459 OFFCURVE",
"501 1539 CURVE SMOOTH",
"483 1578 OFFCURVE",
"474 1621 OFFCURVE",
"474 1668 CURVE SMOOTH"
);
},
{
closed = 1;
nodes = (
"883 1326 OFFCURVE",
"1013 1218 OFFCURVE",
"1076 1047 CURVE SMOOTH",
"1107 961 OFFCURVE",
"1123 866 OFFCURVE",
"1123 761 CURVE SMOOTH",
"1123 468 OFFCURVE",
"1013 220 OFFCURVE",
"833 85 CURVE SMOOTH",
"743 17 OFFCURVE",
"643 -17 OFFCURVE",
"532 -17 CURVE SMOOTH",
"348 -17 OFFCURVE",
"216 89 OFFCURVE",
"150 260 CURVE SMOOTH",
"117 345 OFFCURVE",
"100 441 OFFCURVE",
"100 548 CURVE SMOOTH",
"100 843 OFFCURVE",
"211 1092 OFFCURVE",
"393 1226 CURVE SMOOTH",
"484 1293 OFFCURVE",
"585 1326 OFFCURVE",
"696 1326 CURVE SMOOTH"
);
},
{
closed = 1;
nodes = (
"988 936 OFFCURVE",
"942 1092 OFFCURVE",
"848 1176 CURVE SMOOTH",
"801 1218 OFFCURVE",
"743 1239 OFFCURVE",
"674 1239 CURVE SMOOTH",
"509 1239 OFFCURVE",
"368 1118 OFFCURVE",
"290 914 CURVE SMOOTH",
"251 812 OFFCURVE",
"231 697 OFFCURVE",
"231 568 CURVE SMOOTH",
"231 365 OFFCURVE",
"283 211 OFFCURVE",
"379 128 CURVE SMOOTH",
"427 86 OFFCURVE",
"484 65 OFFCURVE",
"550 65 CURVE SMOOTH",
"714 65 OFFCURVE",
"854 187 OFFCURVE",
"931 391 CURVE SMOOTH",
"969 493 OFFCURVE",
"988 608 OFFCURVE",
"988 735 CURVE SMOOTH"
);
}
);
width = 1188;
}
);
note = Obreve;
unicode = 014E;
},
{
glyphname = Ocircumflex;
layers = (
{
layerId = "4C84AE98-85C0-4DB9-B47D-A9DF131BEAEE";
name = "Light Italic";
paths = (
{
closed = 1;
nodes = (
"883 1326 OFFCURVE",
"1013 1218 OFFCURVE",
"1076 1047 CURVE SMOOTH",
"1107 961 OFFCURVE",
"1123 866 OFFCURVE",
"1123 761 CURVE SMOOTH",
"1123 468 OFFCURVE",
"1013 220 OFFCURVE",
"833 85 CURVE SMOOTH",
"743 17 OFFCURVE",
"643 -17 OFFCURVE",
"532 -17 CURVE SMOOTH",
"348 -17 OFFCURVE",
"216 89 OFFCURVE",
"150 260 CURVE SMOOTH",
"117 345 OFFCURVE",
"100 441 OFFCURVE",
"100 548 CURVE SMOOTH",
"100 843 OFFCURVE",
"211 1092 OFFCURVE",
"393 1226 CURVE SMOOTH",
"484 1293 OFFCURVE",
"585 1326 OFFCURVE",
"696 1326 CURVE SMOOTH"
);
},
{
closed = 1;
nodes = (
"988 936 OFFCURVE",
"942 1092 OFFCURVE",
"848 1176 CURVE SMOOTH",
"801 1218 OFFCURVE",
"743 1239 OFFCURVE",
"674 1239 CURVE SMOOTH",
"509 1239 OFFCURVE",
"368 1118 OFFCURVE",
"290 914 CURVE SMOOTH",
"251 812 OFFCURVE",
"231 697 OFFCURVE",
"231 568 CURVE SMOOTH",
"231 365 OFFCURVE",
"283 211 OFFCURVE",
"379 128 CURVE SMOOTH",
"427 86 OFFCURVE",
"484 65 OFFCURVE",
"550 65 CURVE SMOOTH",
"714 65 OFFCURVE",
"854 187 OFFCURVE",
"931 391 CURVE SMOOTH",
"969 493 OFFCURVE",
"988 608 OFFCURVE",
"988 735 CURVE SMOOTH"
);
},
{
closed = 1;
nodes = (
"709 1720 LINE",
"826 1720 LINE",
"1016 1439 LINE",
"970 1398 LINE",
"762 1619 LINE",
"472 1400 LINE",
"431 1440 LINE"
);
}
);
width = 1188;
}
);
note = Ocircumflex;
unicode = 00D4;
},
{
glyphname = Odieresis;
layers = (
{
layerId = "4C84AE98-85C0-4DB9-B47D-A9DF131BEAEE";
name = "Light Italic";
paths = (
{
closed = 1;
nodes = (
"474 1617 OFFCURVE",
"495 1653 OFFCURVE",
"524 1673 CURVE SMOOTH",
"539 1683 OFFCURVE",
"554 1688 OFFCURVE",
"569 1688 CURVE SMOOTH",
"616 1688 OFFCURVE",
"647 1655 OFFCURVE",
"647 1607 CURVE SMOOTH",
"647 1568 OFFCURVE",
"628 1532 OFFCURVE",
"597 1513 CURVE SMOOTH",
"581 1503 OFFCURVE",
"564 1498 OFFCURVE",
"547 1498 CURVE SMOOTH",
"507 1498 OFFCURVE",
"474 1533 OFFCURVE",
"474 1580 CURVE SMOOTH"
);
},
{
closed = 1;
nodes = (
"834 1620 OFFCURVE",
"856 1654 OFFCURVE",
"886 1674 CURVE",
"901 1683 OFFCURVE",
"915 1688 OFFCURVE",
"930 1688 CURVE SMOOTH",
"978 1688 OFFCURVE",
"1009 1655 OFFCURVE",
"1009 1608 CURVE SMOOTH",
"1009 1569 OFFCURVE",
"989 1533 OFFCURVE",
"958 1513 CURVE SMOOTH",
"943 1503 OFFCURVE",
"926 1498 OFFCURVE",
"908 1498 CURVE SMOOTH",
"865 1498 OFFCURVE",
"834 1533 OFFCURVE",
"834 1581 CURVE SMOOTH"
);
},
{
closed = 1;
nodes = (
"883 1326 OFFCURVE",
"1013 1218 OFFCURVE",
"1076 1047 CURVE SMOOTH",
"1107 961 OFFCURVE",
"1123 866 OFFCURVE",
"1123 761 CURVE SMOOTH",
"1123 468 OFFCURVE",
"1013 220 OFFCURVE",
"833 85 CURVE SMOOTH",
"743 17 OFFCURVE",
"643 -17 OFFCURVE",
"532 -17 CURVE SMOOTH",
"348 -17 OFFCURVE",
"216 89 OFFCURVE",
"150 260 CURVE SMOOTH",
"117 345 OFFCURVE",
"100 441 OFFCURVE",
"100 548 CURVE SMOOTH",
"100 843 OFFCURVE",
"211 1092 OFFCURVE",
"393 1226 CURVE SMOOTH",
"484 1293 OFFCURVE",
"585 1326 OFFCURVE",
"696 1326 CURVE SMOOTH"
);
},
{
closed = 1;
nodes = (
"988 936 OFFCURVE",
"942 1092 OFFCURVE",
"848 1176 CURVE SMOOTH",
"801 1218 OFFCURVE",
"743 1239 OFFCURVE",
"674 1239 CURVE SMOOTH",
"509 1239 OFFCURVE",
"368 1118 OFFCURVE",
"290 914 CURVE SMOOTH",
"251 812 OFFCURVE",
"231 697 OFFCURVE",
"231 568 CURVE SMOOTH",
"231 365 OFFCURVE",
"283 211 OFFCURVE",
"379 128 CURVE SMOOTH",
"427 86 OFFCURVE",
"484 65 OFFCURVE",
"550 65 CURVE SMOOTH",
"714 65 OFFCURVE",
"854 187 OFFCURVE",
"931 391 CURVE SMOOTH",
"969 493 OFFCURVE",
"988 608 OFFCURVE",
"988 735 CURVE SMOOTH"
);
}
);
width = 1188;
}
);
note = Odieresis;
unicode = 00D6;
},
{
glyphname = Ograve;
layers = (
{
layerId = "4C84AE98-85C0-4DB9-B47D-A9DF131BEAEE";
name = "Light Italic";
paths = (
{
closed = 1;
nodes = (
"540 1720 LINE",
"774 1420 LINE",
"730 1388 LINE",
"669 1423 OFFCURVE",
"587 1485 OFFCURVE",
"522 1550 CURVE SMOOTH",
"489 1582 OFFCURVE",
"467 1612 OFFCURVE",
"454 1639 CURVE"
);
},
{
closed = 1;
nodes = (
"883 1326 OFFCURVE",
"1013 1218 OFFCURVE",
"1076 1047 CURVE SMOOTH",
"1107 961 OFFCURVE",
"1123 866 OFFCURVE",
"1123 761 CURVE SMOOTH",
"1123 468 OFFCURVE",
"1013 220 OFFCURVE",
"833 85 CURVE SMOOTH",
"743 17 OFFCURVE",
"643 -17 OFFCURVE",
"532 -17 CURVE SMOOTH",
"348 -17 OFFCURVE",
"216 89 OFFCURVE",
"150 260 CURVE SMOOTH",
"117 345 OFFCURVE",
"100 441 OFFCURVE",
"100 548 CURVE SMOOTH",
"100 843 OFFCURVE",
"211 1092 OFFCURVE",
"393 1226 CURVE SMOOTH",
"484 1293 OFFCURVE",
"585 1326 OFFCURVE",
"696 1326 CURVE SMOOTH"
);
},
{
closed = 1;
nodes = (
"988 936 OFFCURVE",
"942 1092 OFFCURVE",
"848 1176 CURVE SMOOTH",
"801 1218 OFFCURVE",
"743 1239 OFFCURVE",
"674 1239 CURVE SMOOTH",
"509 1239 OFFCURVE",
"368 1118 OFFCURVE",
"290 914 CURVE SMOOTH",
"251 812 OFFCURVE",
"231 697 OFFCURVE",
"231 568 CURVE SMOOTH",
"231 365 OFFCURVE",
"283 211 OFFCURVE",
"379 128 CURVE SMOOTH",
"427 86 OFFCURVE",
"484 65 OFFCURVE",
"550 65 CURVE SMOOTH",
"714 65 OFFCURVE",
"854 187 OFFCURVE",
"931 391 CURVE SMOOTH",
"969 493 OFFCURVE",
"988 608 OFFCURVE",
"988 735 CURVE SMOOTH"
);
}
);
width = 1188;
}
);
note = Ograve;
unicode = 00D2;
},
{
glyphname = Ohungarumlaut;
layers = (
{
layerId = "4C84AE98-85C0-4DB9-B47D-A9DF131BEAEE";
name = "Light Italic";
paths = (
{
closed = 1;
nodes = (
"883 1326 OFFCURVE",
"1013 1218 OFFCURVE",
"1076 1047 CURVE SMOOTH",
"1107 961 OFFCURVE",
"1123 866 OFFCURVE",
"1123 761 CURVE SMOOTH",
"1123 468 OFFCURVE",
"1013 220 OFFCURVE",
"833 85 CURVE SMOOTH",
"743 17 OFFCURVE",
"643 -17 OFFCURVE",
"532 -17 CURVE SMOOTH",
"348 -17 OFFCURVE",
"216 89 OFFCURVE",
"150 260 CURVE SMOOTH",
"117 345 OFFCURVE",
"100 441 OFFCURVE",
"100 548 CURVE SMOOTH",
"100 843 OFFCURVE",
"211 1092 OFFCURVE",
"393 1226 CURVE SMOOTH",
"484 1293 OFFCURVE",
"585 1326 OFFCURVE",
"696 1326 CURVE SMOOTH"
);
},
{
closed = 1;
nodes = (
"988 936 OFFCURVE",
"942 1092 OFFCURVE",
"848 1176 CURVE SMOOTH",
"801 1218 OFFCURVE",
"743 1239 OFFCURVE",
"674 1239 CURVE SMOOTH",
"509 1239 OFFCURVE",
"368 1118 OFFCURVE",
"290 914 CURVE SMOOTH",
"251 812 OFFCURVE",
"231 697 OFFCURVE",
"231 568 CURVE SMOOTH",
"231 365 OFFCURVE",
"283 211 OFFCURVE",
"379 128 CURVE SMOOTH",
"427 86 OFFCURVE",
"484 65 OFFCURVE",
"550 65 CURVE SMOOTH",
"714 65 OFFCURVE",
"854 187 OFFCURVE",
"931 391 CURVE SMOOTH",
"969 493 OFFCURVE",
"988 608 OFFCURVE",
"988 735 CURVE SMOOTH"
);
},
{
closed = 1;
nodes = (
"1107 1717 LINE",
"1195 1636 LINE",
"1138 1545 OFFCURVE",
"1029 1450 OFFCURVE",
"924 1385 CURVE",
"862 1430 LINE"
);
},
{
closed = 1;
nodes = (
"738 1716 LINE",
"826 1635 LINE",
"785 1552 OFFCURVE",
"685 1476 OFFCURVE",
"550 1384 CURVE",
"494 1428 LINE"
);
}
);
width = 1188;
}
);
note = Ohungarumlaut;
unicode = 0150;
},
{
glyphname = Omacron;
layers = (
{
layerId = "4C84AE98-85C0-4DB9-B47D-A9DF131BEAEE";
name = "Light Italic";
paths = (
{
closed = 1;
nodes = (
"942 1603 LINE",
"929 1501 LINE",
"491 1501 LINE",
"504 1603 LINE"
);
},
{
closed = 1;
nodes = (
"883 1326 OFFCURVE",
"1013 1218 OFFCURVE",
"1076 1047 CURVE SMOOTH",
"1107 961 OFFCURVE",
"1123 866 OFFCURVE",
"1123 761 CURVE SMOOTH",
"1123 468 OFFCURVE",
"1013 220 OFFCURVE",
"833 85 CURVE SMOOTH",
"743 17 OFFCURVE",
"643 -17 OFFCURVE",
"532 -17 CURVE SMOOTH",
"348 -17 OFFCURVE",
"216 89 OFFCURVE",
"150 260 CURVE SMOOTH",
"117 345 OFFCURVE",
"100 441 OFFCURVE",
"100 548 CURVE SMOOTH",
"100 843 OFFCURVE",
"211 1092 OFFCURVE",
"393 1226 CURVE SMOOTH",
"484 1293 OFFCURVE",
"585 1326 OFFCURVE",
"696 1326 CURVE SMOOTH"
);
},
{
closed = 1;
nodes = (
"988 936 OFFCURVE",
"942 1092 OFFCURVE",
"848 1176 CURVE SMOOTH",
"801 1218 OFFCURVE",
"743 1239 OFFCURVE",
"674 1239 CURVE SMOOTH",
"509 1239 OFFCURVE",
"368 1118 OFFCURVE",
"290 914 CURVE SMOOTH",
"251 812 OFFCURVE",
"231 697 OFFCURVE",
"231 568 CURVE SMOOTH",
"231 365 OFFCURVE",
"283 211 OFFCURVE",
"379 128 CURVE SMOOTH",
"427 86 OFFCURVE",
"484 65 OFFCURVE",
"550 65 CURVE SMOOTH",
"714 65 OFFCURVE",
"854 187 OFFCURVE",
"931 391 CURVE SMOOTH",
"969 493 OFFCURVE",
"988 608 OFFCURVE",
"988 735 CURVE SMOOTH"
);
}
);
width = 1188;
}
);
note = Omacron;
unicode = 014C;
},
{
glyphname = Oslash;
layers = (
{
layerId = "4C84AE98-85C0-4DB9-B47D-A9DF131BEAEE";
name = "Light Italic";
paths = (
{
closed = 1;
nodes = (
"775 1328 OFFCURVE",
"844 1309 OFFCURVE",
"905 1271 CURVE",
"1016 1456 LINE",
"1077 1426 LINE",
"961 1228 LINE",
"1068 1128 OFFCURVE",
"1123 959 OFFCURVE",
"1123 763 CURVE SMOOTH",
"1123 470 OFFCURVE",
"1013 221 OFFCURVE",
"833 86 CURVE SMOOTH",
"743 19 OFFCURVE",
"643 -15 OFFCURVE",
"532 -15 CURVE SMOOTH",
"441 -15 OFFCURVE",
"362 10 OFFCURVE",
"296 59 CURVE",
"172 -143 LINE",
"110 -112 LINE",
"242 108 LINE",
"149 209 OFFCURVE",
"100 367 OFFCURVE",
"100 550 CURVE SMOOTH",
"100 845 OFFCURVE",
"211 1094 OFFCURVE",
"393 1228 CURVE SMOOTH",
"484 1295 OFFCURVE",
"585 1328 OFFCURVE",
"696 1328 CURVE SMOOTH"
);
},
{
closed = 1;
nodes = (
"851 1173 LINE",
"802 1218 OFFCURVE",
"743 1241 OFFCURVE",
"674 1241 CURVE SMOOTH",
"509 1241 OFFCURVE",
"368 1120 OFFCURVE",
"290 916 CURVE SMOOTH",
"251 814 OFFCURVE",
"231 698 OFFCURVE",
"231 569 CURVE SMOOTH",
"231 421 OFFCURVE",
"260 297 OFFCURVE",
"312 209 CURVE"
);
},
{
closed = 1;
nodes = (
"988 901 OFFCURVE",
"956 1038 OFFCURVE",
"893 1126 CURVE",
"352 156 LINE",
"406 97 OFFCURVE",
"472 67 OFFCURVE",
"550 67 CURVE SMOOTH",
"714 67 OFFCURVE",
"854 189 OFFCURVE",
"931 393 CURVE SMOOTH",
"969 495 OFFCURVE",
"988 610 OFFCURVE",
"988 737 CURVE SMOOTH"
);
}
);
width = 1191;
}
);
note = Oslash;
unicode = 00D8;
},
{
glyphname = Oslashacute;
layers = (
{
layerId = "4C84AE98-85C0-4DB9-B47D-A9DF131BEAEE";
name = "Light Italic";
paths = (
{
closed = 1;
nodes = (
"775 1328 OFFCURVE",
"844 1309 OFFCURVE",
"905 1271 CURVE",
"1016 1456 LINE",
"1077 1426 LINE",
"961 1228 LINE",
"1068 1128 OFFCURVE",
"1123 959 OFFCURVE",
"1123 763 CURVE SMOOTH",
"1123 470 OFFCURVE",
"1013 221 OFFCURVE",
"833 86 CURVE SMOOTH",
"743 19 OFFCURVE",
"643 -15 OFFCURVE",
"532 -15 CURVE SMOOTH",
"441 -15 OFFCURVE",
"362 10 OFFCURVE",
"296 59 CURVE",
"172 -143 LINE",
"110 -112 LINE",
"242 108 LINE",
"149 209 OFFCURVE",
"100 367 OFFCURVE",
"100 550 CURVE SMOOTH",
"100 845 OFFCURVE",
"211 1094 OFFCURVE",
"393 1228 CURVE SMOOTH",
"484 1295 OFFCURVE",
"585 1328 OFFCURVE",
"696 1328 CURVE SMOOTH"
);
},
{
closed = 1;
nodes = (
"851 1173 LINE",
"802 1218 OFFCURVE",
"743 1241 OFFCURVE",
"674 1241 CURVE SMOOTH",
"509 1241 OFFCURVE",
"368 1120 OFFCURVE",
"290 916 CURVE SMOOTH",
"251 814 OFFCURVE",
"231 698 OFFCURVE",
"231 569 CURVE SMOOTH",
"231 421 OFFCURVE",
"260 297 OFFCURVE",
"312 209 CURVE"
);
},
{
closed = 1;
nodes = (
"988 901 OFFCURVE",
"956 1038 OFFCURVE",
"893 1126 CURVE",
"352 156 LINE",
"406 97 OFFCURVE",
"472 67 OFFCURVE",
"550 67 CURVE SMOOTH",
"714 67 OFFCURVE",
"854 189 OFFCURVE",
"931 393 CURVE SMOOTH",
"969 495 OFFCURVE",
"988 610 OFFCURVE",
"988 737 CURVE SMOOTH"
);
},
{
closed = 1;
nodes = (
"930 1720 LINE",
"1011 1639 LINE",
"970 1556 OFFCURVE",
"829 1445 OFFCURVE",
"729 1388 CURVE",
"686 1420 LINE"
);
}
);
width = 1191;
}
);
note = Oslashacute;
unicode = 01FE;
},
{
glyphname = Otilde;
layers = (
{
layerId = "4C84AE98-85C0-4DB9-B47D-A9DF131BEAEE";
name = "Light Italic";
paths = (
{
closed = 1;
nodes = (
"422 1548 LINE",
"457 1629 OFFCURVE",
"522 1690 OFFCURVE",
"611 1690 CURVE SMOOTH",
"666 1690 OFFCURVE",
"697 1667 OFFCURVE",
"749 1623 CURVE SMOOTH",
"794 1583 OFFCURVE",
"822 1563 OFFCURVE",
"862 1563 CURVE SMOOTH",
"923 1563 OFFCURVE",
"957 1598 OFFCURVE",
"994 1650 CURVE",
"1033 1594 LINE",
"1002 1521 OFFCURVE",
"939 1452 OFFCURVE",
"850 1452 CURVE SMOOTH",
"793 1452 OFFCURVE",
"760 1475 OFFCURVE",
"709 1520 CURVE",
"668 1559 OFFCURVE",
"640 1578 OFFCURVE",
"597 1578 CURVE SMOOTH",
"540 1578 OFFCURVE",
"499 1547 OFFCURVE",
"460 1491 CURVE"
);
},
{
closed = 1;
nodes = (
"883 1326 OFFCURVE",
"1013 1218 OFFCURVE",
"1076 1047 CURVE SMOOTH",
"1107 961 OFFCURVE",
"1123 866 OFFCURVE",
"1123 761 CURVE SMOOTH",
"1123 468 OFFCURVE",
"1013 220 OFFCURVE",
"833 85 CURVE SMOOTH",
"743 17 OFFCURVE",
"643 -17 OFFCURVE",
"532 -17 CURVE SMOOTH",
"348 -17 OFFCURVE",
"216 89 OFFCURVE",
"150 260 CURVE SMOOTH",
"117 345 OFFCURVE",
"100 441 OFFCURVE",
"100 548 CURVE SMOOTH",
"100 843 OFFCURVE",
"211 1092 OFFCURVE",
"393 1226 CURVE SMOOTH",
"484 1293 OFFCURVE",
"585 1326 OFFCURVE",
"696 1326 CURVE SMOOTH"
);
},
{
closed = 1;
nodes = (
"988 936 OFFCURVE",
"942 1092 OFFCURVE",
"848 1176 CURVE SMOOTH",
"801 1218 OFFCURVE",
"743 1239 OFFCURVE",
"674 1239 CURVE SMOOTH",
"509 1239 OFFCURVE",
"368 1118 OFFCURVE",
"290 914 CURVE SMOOTH",
"251 812 OFFCURVE",
"231 697 OFFCURVE",
"231 568 CURVE SMOOTH",
"231 365 OFFCURVE",
"283 211 OFFCURVE",
"379 128 CURVE SMOOTH",
"427 86 OFFCURVE",
"484 65 OFFCURVE",
"550 65 CURVE SMOOTH",
"714 65 OFFCURVE",
"854 187 OFFCURVE",
"931 391 CURVE SMOOTH",
"969 493 OFFCURVE",
"988 608 OFFCURVE",
"988 735 CURVE SMOOTH"
);
}
);
width = 1188;
}
);
note = Otilde;
unicode = 00D5;
},
{
glyphname = OE;
layers = (
{
layerId = "4C84AE98-85C0-4DB9-B47D-A9DF131BEAEE";
name = "Light Italic";
paths = (
{
closed = 1;
nodes = (
"884 1324 OFFCURVE",
"1014 1201 OFFCURVE",
"1073 1005 CURVE",
"1109 1309 LINE",
"1756 1309 LINE",
"1750 1056 LINE",
"1680 1056 LINE",
"1650 1224 LINE",
"1237 1234 LINE",
"1169 717 LINE",
"1552 734 LINE",
"1543 620 LINE",
"1162 631 LINE",
"1094 81 LINE",
"1604 97 LINE",
"1686 279 LINE",
"1754 257 LINE",
"1693 0 LINE",
"953 0 LINE",
"985 270 LINE",
"880 90 OFFCURVE",
"718 -17 OFFCURVE",
"531 -17 CURVE SMOOTH",
"354 -17 OFFCURVE",
"216 77 OFFCURVE",
"143 249 CURVE SMOOTH",
"106 335 OFFCURVE",
"88 437 OFFCURVE",
"88 555 CURVE SMOOTH",
"88 847 OFFCURVE",
"204 1093 OFFCURVE",
"389 1225 CURVE SMOOTH",
"481 1291 OFFCURVE",
"582 1324 OFFCURVE",
"692 1324 CURVE SMOOTH"
);
},
{
closed = 1;
nodes = (
"987 1069 OFFCURVE",
"882 1238 OFFCURVE",
"671 1238 CURVE SMOOTH",
"507 1238 OFFCURVE",
"361 1121 OFFCURVE",
"281 929 CURVE SMOOTH",
"241 833 OFFCURVE",
"221 726 OFFCURVE",
"221 609 CURVE SMOOTH",
"221 261 OFFCURVE",
"331 65 OFFCURVE",
"551 65 CURVE SMOOTH",
"714 65 OFFCURVE",
"854 188 OFFCURVE",
"930 392 CURVE SMOOTH",
"968 493 OFFCURVE",
"987 607 OFFCURVE",
"987 732 CURVE SMOOTH"
);
}
);
width = 1814;
}
);
note = OE;
unicode = 0152;
},
{
glyphname = P;
layers = (
{
layerId = "4C84AE98-85C0-4DB9-B47D-A9DF131BEAEE";
name = "Light Italic";
paths = (
{
closed = 1;
nodes = (
"158 81 LINE",
"301 1223 LINE",
"185 1239 LINE",
"193 1309 LINE",
"388 1309 LINE SMOOTH",
"425 1309 OFFCURVE",
"469 1312 OFFCURVE",
"519 1317 CURVE SMOOTH",
"576 1322 OFFCURVE",
"619 1324 OFFCURVE",
"648 1324 CURVE SMOOTH",
"904 1324 OFFCURVE",
"1041 1210 OFFCURVE",
"1041 978 CURVE SMOOTH",
"1041 766 OFFCURVE",
"938 607 OFFCURVE",
"778 528 CURVE SMOOTH",
"697 488 OFFCURVE",
"609 468 OFFCURVE",
"513 468 CURVE SMOOTH",
"456 468 OFFCURVE",
"397 471 OFFCURVE",
"335 476 CURVE",
"288 81 LINE",
"446 60 LINE",
"440 0 LINE",
"23 0 LINE",
"29 59 LINE"
);
},
{
closed = 1;
nodes = (
"776 553 OFFCURVE",
"904 697 OFFCURVE",
"904 983 CURVE SMOOTH",
"904 1155 OFFCURVE",
"830 1241 OFFCURVE",
"642 1241 CURVE SMOOTH",
"590 1241 OFFCURVE",
"496 1233 OFFCURVE",
"432 1224 CURVE",
"345 565 LINE",
"397 556 OFFCURVE",
"467 550 OFFCURVE",
"519 550 CURVE SMOOTH"
);
}
);
width = 1051;
}
);
note = P;
unicode = 0050;
},
{
glyphname = Thorn;
layers = (
{
layerId = "4C84AE98-85C0-4DB9-B47D-A9DF131BEAEE";
name = "Light Italic";
paths = (
{
closed = 1;
nodes = (
"158 81 LINE",
"302 1230 LINE",
"185 1246 LINE",
"193 1316 LINE",
"568 1316 LINE",
"560 1246 LINE",
"431 1230 LINE",
"405 1027 LINE",
"468 1038 OFFCURVE",
"553 1043 OFFCURVE",
"620 1043 CURVE SMOOTH",
"877 1043 OFFCURVE",
"1017 925 OFFCURVE",
"1017 713 CURVE SMOOTH",
"1017 536 OFFCURVE",
"921 397 OFFCURVE",
"766 325 CURVE SMOOTH",
"689 288 OFFCURVE",
"604 270 OFFCURVE",
"511 270 CURVE SMOOTH",
"430 270 OFFCURVE",
"364 272 OFFCURVE",
"311 276 CURVE",
"287 81 LINE",
"432 60 LINE",
"427 0 LINE",
"23 0 LINE",
"29 59 LINE"
);
},
{
closed = 1;
nodes = (
"322 359 LINE",
"373 352 OFFCURVE",
"436 348 OFFCURVE",
"509 348 CURVE SMOOTH",
"666 348 OFFCURVE",
"783 408 OFFCURVE",
"843 508 CURVE SMOOTH",
"873 558 OFFCURVE",
"888 615 OFFCURVE",
"888 680 CURVE SMOOTH",
"888 808 OFFCURVE",
"854 888 OFFCURVE",
"767 930 CURVE SMOOTH",
"723 951 OFFCURVE",
"663 961 OFFCURVE",
"587 961 CURVE SMOOTH",
"531 961 OFFCURVE",
"439 952 OFFCURVE",
"395 944 CURVE"
);
}
);
width = 1055;
}
);
note = Thorn;
unicode = 00DE;
},
{
glyphname = Q;
layers = (
{
layerId = "4C84AE98-85C0-4DB9-B47D-A9DF131BEAEE";
name = "Light Italic";
paths = (
{
closed = 1;
nodes = (
"880 1327 OFFCURVE",
"1010 1219 OFFCURVE",
"1074 1048 CURVE SMOOTH",
"1105 963 OFFCURVE",
"1121 868 OFFCURVE",
"1121 763 CURVE SMOOTH",
"1121 486 OFFCURVE",
"1023 247 OFFCURVE",
"860 108 CURVE SMOOTH",
"779 38 OFFCURVE",
"687 -2 OFFCURVE",
"584 -13 CURVE",
"587 -148 OFFCURVE",
"685 -187 OFFCURVE",
"840 -187 CURVE SMOOTH",
"900 -187 OFFCURVE",
"984 -168 OFFCURVE",
"1033 -143 CURVE",
"1035 -236 LINE",
"988 -273 OFFCURVE",
"885 -308 OFFCURVE",
"796 -308 CURVE SMOOTH",
"688 -308 OFFCURVE",
"592 -271 OFFCURVE",
"536 -198 CURVE SMOOTH",
"508 -162 OFFCURVE",
"494 -117 OFFCURVE",
"494 -64 CURVE SMOOTH",
"494 -51 OFFCURVE",
"496 -34 OFFCURVE",
"499 -15 CURVE",
"327 -4 OFFCURVE",
"204 103 OFFCURVE",
"143 270 CURVE SMOOTH",
"112 353 OFFCURVE",
"97 446 OFFCURVE",
"97 549 CURVE SMOOTH",
"97 844 OFFCURVE",
"209 1093 OFFCURVE",
"390 1227 CURVE SMOOTH",
"481 1294 OFFCURVE",
"582 1327 OFFCURVE",
"693 1327 CURVE SMOOTH"
);
},
{
closed = 1;
nodes = (
"986 937 OFFCURVE",
"939 1093 OFFCURVE",
"845 1177 CURVE SMOOTH",
"798 1219 OFFCURVE",
"740 1240 OFFCURVE",
"672 1240 CURVE SMOOTH",
"507 1240 OFFCURVE",
"366 1119 OFFCURVE",
"288 915 CURVE SMOOTH",
"249 813 OFFCURVE",
"229 697 OFFCURVE",
"229 568 CURVE SMOOTH",
"229 367 OFFCURVE",
"280 212 OFFCURVE",
"376 129 CURVE SMOOTH",
"424 87 OFFCURVE",
"481 66 OFFCURVE",
"548 66 CURVE SMOOTH",
"712 66 OFFCURVE",
"851 188 OFFCURVE",
"928 392 CURVE SMOOTH",
"967 494 OFFCURVE",
"986 609 OFFCURVE",
"986 736 CURVE SMOOTH"
);
}
);
width = 1191;
}
);
note = Q;
unicode = 0051;
},
{
glyphname = R;
layers = (
{
layerId = "4C84AE98-85C0-4DB9-B47D-A9DF131BEAEE";
name = "Light Italic";
paths = (
{
closed = 1;
nodes = (
"158 81 LINE",
"302 1223 LINE",
"185 1239 LINE",
"193 1309 LINE",
"398 1309 LINE SMOOTH",
"421 1309 OFFCURVE",
"458 1311 OFFCURVE",
"509 1316 CURVE SMOOTH",
"558 1321 OFFCURVE",
"595 1323 OFFCURVE",
"619 1323 CURVE SMOOTH",
"812 1323 OFFCURVE",
"930 1281 OFFCURVE",
"987 1193 CURVE SMOOTH",
"1016 1148 OFFCURVE",
"1030 1091 OFFCURVE",
"1030 1020 CURVE SMOOTH",
"1030 881 OFFCURVE",
"972 762 OFFCURVE",
"868 681 CURVE SMOOTH",
"816 640 OFFCURVE",
"755 611 OFFCURVE",
"686 593 CURVE",
"733 560 OFFCURVE",
"798 459 OFFCURVE",
"881 290 CURVE SMOOTH",
"910 227 LINE SMOOTH",
"935 173 OFFCURVE",
"953 137 OFFCURVE",
"965 118 CURVE SMOOTH",
"988 80 OFFCURVE",
"1014 69 OFFCURVE",
"1089 68 CURVE",
"1086 0 LINE",
"923 0 LINE SMOOTH",
"908 0 OFFCURVE",
"895 6 OFFCURVE",
"882 17 CURVE SMOOTH",
"869 28 OFFCURVE",
"855 50 OFFCURVE",
"839 81 CURVE SMOOTH",
"822 112 OFFCURVE",
"802 156 OFFCURVE",
"778 215 CURVE SMOOTH",
"714 366 OFFCURVE",
"674 455 OFFCURVE",
"622 525 CURVE SMOOTH",
"595 560 OFFCURVE",
"570 577 OFFCURVE",
"545 577 CURVE SMOOTH",
"424 577 LINE",
"341 577 LINE",
"283 81 LINE",
"445 60 LINE",
"440 0 LINE",
"36 0 LINE",
"42 59 LINE"
);
},
{
closed = 1;
nodes = (
"704 665 OFFCURVE",
"807 733 OFFCURVE",
"860 837 CURVE SMOOTH",
"887 889 OFFCURVE",
"900 947 OFFCURVE",
"900 1010 CURVE SMOOTH",
"900 1117 OFFCURVE",
"867 1183 OFFCURVE",
"779 1216 CURVE SMOOTH",
"734 1233 OFFCURVE",
"674 1241 OFFCURVE",
"598 1241 CURVE SMOOTH",
"567 1241 OFFCURVE",
"470 1234 OFFCURVE",
"427 1227 CURVE",
"351 659 LINE",
"380 657 OFFCURVE",
"431 656 OFFCURVE",
"505 656 CURVE SMOOTH",
"542 656 OFFCURVE",
"564 656 OFFCURVE",
"572 657 CURVE"
);
}
);
width = 1143;
}
);
note = R;
unicode = 0052;
},
{
glyphname = Racute;
layers = (
{
layerId = "4C84AE98-85C0-4DB9-B47D-A9DF131BEAEE";
name = "Light Italic";
paths = (
{
closed = 1;
nodes = (
"158 81 LINE",
"302 1223 LINE",
"185 1239 LINE",
"193 1309 LINE",
"398 1309 LINE SMOOTH",
"421 1309 OFFCURVE",
"458 1311 OFFCURVE",
"509 1316 CURVE SMOOTH",
"558 1321 OFFCURVE",
"595 1323 OFFCURVE",
"619 1323 CURVE SMOOTH",
"812 1323 OFFCURVE",
"930 1281 OFFCURVE",
"987 1193 CURVE SMOOTH",
"1016 1148 OFFCURVE",
"1030 1091 OFFCURVE",
"1030 1020 CURVE SMOOTH",
"1030 881 OFFCURVE",
"972 762 OFFCURVE",
"868 681 CURVE SMOOTH",
"816 640 OFFCURVE",
"755 611 OFFCURVE",
"686 593 CURVE",
"733 560 OFFCURVE",
"798 459 OFFCURVE",
"881 290 CURVE SMOOTH",
"910 227 LINE SMOOTH",
"935 173 OFFCURVE",
"953 137 OFFCURVE",
"965 118 CURVE SMOOTH",
"988 80 OFFCURVE",
"1014 69 OFFCURVE",
"1089 68 CURVE",
"1086 0 LINE",
"923 0 LINE SMOOTH",
"908 0 OFFCURVE",
"895 6 OFFCURVE",
"882 17 CURVE SMOOTH",
"869 28 OFFCURVE",
"855 50 OFFCURVE",
"839 81 CURVE SMOOTH",
"822 112 OFFCURVE",
"802 156 OFFCURVE",
"778 215 CURVE SMOOTH",
"714 366 OFFCURVE",
"674 455 OFFCURVE",
"622 525 CURVE SMOOTH",
"595 560 OFFCURVE",
"570 577 OFFCURVE",
"545 577 CURVE SMOOTH",
"424 577 LINE",
"341 577 LINE",
"283 81 LINE",
"445 60 LINE",
"440 0 LINE",
"36 0 LINE",
"42 59 LINE"
);
},
{
closed = 1;
nodes = (
"704 665 OFFCURVE",
"807 733 OFFCURVE",
"860 837 CURVE SMOOTH",
"887 889 OFFCURVE",
"900 947 OFFCURVE",
"900 1010 CURVE SMOOTH",
"900 1117 OFFCURVE",
"867 1183 OFFCURVE",
"779 1216 CURVE SMOOTH",
"734 1233 OFFCURVE",
"674 1241 OFFCURVE",
"598 1241 CURVE SMOOTH",
"567 1241 OFFCURVE",
"470 1234 OFFCURVE",
"427 1227 CURVE",
"351 659 LINE",
"380 657 OFFCURVE",
"431 656 OFFCURVE",
"505 656 CURVE SMOOTH",
"542 656 OFFCURVE",
"564 656 OFFCURVE",
"572 657 CURVE"
);
},
{
closed = 1;
nodes = (
"866 1720 LINE",
"947 1639 LINE",
"906 1556 OFFCURVE",
"765 1445 OFFCURVE",
"665 1388 CURVE",
"622 1420 LINE"
);
}
);
width = 1143;
}
);
note = Racute;
unicode = 0154;
},
{
glyphname = Rcaron;
layers = (
{
layerId = "4C84AE98-85C0-4DB9-B47D-A9DF131BEAEE";
name = "Light Italic";
paths = (
{
closed = 1;
nodes = (
"447 1720 LINE",
"648 1492 LINE",
"926 1720 LINE",
"968 1680 LINE",
"703 1395 LINE",
"588 1395 LINE",
"397 1680 LINE"
);
},
{
closed = 1;
nodes = (
"152 81 LINE",
"296 1223 LINE",
"179 1239 LINE",
"187 1309 LINE",
"392 1309 LINE SMOOTH",
"415 1309 OFFCURVE",
"452 1311 OFFCURVE",
"503 1316 CURVE SMOOTH",
"552 1321 OFFCURVE",
"589 1323 OFFCURVE",
"613 1323 CURVE SMOOTH",
"806 1323 OFFCURVE",
"924 1281 OFFCURVE",
"981 1193 CURVE SMOOTH",
"1010 1148 OFFCURVE",
"1024 1091 OFFCURVE",
"1024 1020 CURVE SMOOTH",
"1024 881 OFFCURVE",
"966 762 OFFCURVE",
"862 681 CURVE SMOOTH",
"810 640 OFFCURVE",
"749 611 OFFCURVE",
"680 593 CURVE",
"727 560 OFFCURVE",
"792 459 OFFCURVE",
"875 290 CURVE SMOOTH",
"904 227 LINE SMOOTH",
"929 173 OFFCURVE",
"947 137 OFFCURVE",
"959 118 CURVE SMOOTH",
"982 80 OFFCURVE",
"1008 69 OFFCURVE",
"1083 68 CURVE",
"1080 0 LINE",
"917 0 LINE SMOOTH",
"902 0 OFFCURVE",
"889 6 OFFCURVE",
"876 17 CURVE SMOOTH",
"863 28 OFFCURVE",
"849 50 OFFCURVE",
"833 81 CURVE SMOOTH",
"816 112 OFFCURVE",
"796 156 OFFCURVE",
"772 215 CURVE SMOOTH",
"708 366 OFFCURVE",
"668 455 OFFCURVE",
"616 525 CURVE SMOOTH",
"589 560 OFFCURVE",
"564 577 OFFCURVE",
"539 577 CURVE SMOOTH",
"418 577 LINE",
"335 577 LINE",
"277 81 LINE",
"439 60 LINE",
"434 0 LINE",
"30 0 LINE",
"36 59 LINE"
);
},
{
closed = 1;
nodes = (
"698 665 OFFCURVE",
"801 733 OFFCURVE",
"854 837 CURVE SMOOTH",
"881 889 OFFCURVE",
"894 947 OFFCURVE",
"894 1010 CURVE SMOOTH",
"894 1117 OFFCURVE",
"861 1183 OFFCURVE",
"773 1216 CURVE SMOOTH",
"728 1233 OFFCURVE",
"668 1241 OFFCURVE",
"592 1241 CURVE SMOOTH",
"561 1241 OFFCURVE",
"464 1234 OFFCURVE",
"421 1227 CURVE",
"345 659 LINE",
"374 657 OFFCURVE",
"425 656 OFFCURVE",
"499 656 CURVE SMOOTH",
"536 656 OFFCURVE",
"558 656 OFFCURVE",
"566 657 CURVE"
);
}
);
width = 1136;
}
);
note = Rcaron;
unicode = 0158;
},
{
glyphname = Rcommaaccent;
layers = (
{
layerId = "4C84AE98-85C0-4DB9-B47D-A9DF131BEAEE";
name = "Light Italic";
paths = (
{
closed = 1;
nodes = (
"455 -436 LINE",
"500 -404 OFFCURVE",
"535 -338 OFFCURVE",
"535 -270 CURVE SMOOTH",
"535 -222 OFFCURVE",
"509 -170 OFFCURVE",
"474 -157 CURVE",
"474 -114 LINE",
"558 -45 LINE",
"619 -64 OFFCURVE",
"654 -137 OFFCURVE",
"654 -220 CURVE SMOOTH",
"654 -308 OFFCURVE",
"617 -386 OFFCURVE",
"570 -435 CURVE SMOOTH",
"547 -460 OFFCURVE",
"525 -475 OFFCURVE",
"506 -482 CURVE",
"455 -453 LINE"
);
},
{
closed = 1;
nodes = (
"152 81 LINE",
"296 1223 LINE",
"179 1239 LINE",
"187 1309 LINE",
"392 1309 LINE SMOOTH",
"415 1309 OFFCURVE",
"452 1311 OFFCURVE",
"503 1316 CURVE SMOOTH",
"552 1321 OFFCURVE",
"589 1323 OFFCURVE",
"613 1323 CURVE SMOOTH",
"806 1323 OFFCURVE",
"924 1281 OFFCURVE",
"981 1193 CURVE SMOOTH",
"1010 1148 OFFCURVE",
"1024 1091 OFFCURVE",
"1024 1020 CURVE SMOOTH",
"1024 881 OFFCURVE",
"966 762 OFFCURVE",
"862 681 CURVE SMOOTH",
"810 640 OFFCURVE",
"749 611 OFFCURVE",
"680 593 CURVE",
"727 560 OFFCURVE",
"792 459 OFFCURVE",
"875 290 CURVE SMOOTH",
"904 227 LINE SMOOTH",
"929 173 OFFCURVE",
"947 137 OFFCURVE",
"959 118 CURVE SMOOTH",
"982 80 OFFCURVE",
"1008 69 OFFCURVE",
"1083 68 CURVE",
"1080 0 LINE",
"917 0 LINE SMOOTH",
"902 0 OFFCURVE",
"889 6 OFFCURVE",
"876 17 CURVE SMOOTH",
"863 28 OFFCURVE",
"849 50 OFFCURVE",
"833 81 CURVE SMOOTH",
"816 112 OFFCURVE",
"796 156 OFFCURVE",
"772 215 CURVE SMOOTH",
"708 366 OFFCURVE",
"668 455 OFFCURVE",
"616 525 CURVE SMOOTH",
"589 560 OFFCURVE",
"564 577 OFFCURVE",
"539 577 CURVE SMOOTH",
"418 577 LINE",
"335 577 LINE",
"277 81 LINE",
"439 60 LINE",
"434 0 LINE",
"30 0 LINE",
"36 59 LINE"
);
},
{
closed = 1;
nodes = (
"698 665 OFFCURVE",
"801 733 OFFCURVE",
"854 837 CURVE SMOOTH",
"881 889 OFFCURVE",
"894 947 OFFCURVE",
"894 1010 CURVE SMOOTH",
"894 1117 OFFCURVE",
"861 1183 OFFCURVE",
"773 1216 CURVE SMOOTH",
"728 1233 OFFCURVE",
"668 1241 OFFCURVE",
"592 1241 CURVE SMOOTH",
"561 1241 OFFCURVE",
"464 1234 OFFCURVE",
"421 1227 CURVE",
"345 659 LINE",
"374 657 OFFCURVE",
"425 656 OFFCURVE",
"499 656 CURVE SMOOTH",
"536 656 OFFCURVE",
"558 656 OFFCURVE",
"566 657 CURVE"
);
}
);
width = 1136;
}
);
note = Rcommaaccent;
unicode = 0156;
},
{
glyphname = S;
layers = (
{
layerId = "4C84AE98-85C0-4DB9-B47D-A9DF131BEAEE";
name = "Light Italic";
paths = (
{
closed = 1;
nodes = (
"158 297 LINE",
"169 116 LINE",
"217 84 OFFCURVE",
"313 62 OFFCURVE",
"398 62 CURVE SMOOTH",
"497 62 OFFCURVE",
"598 97 OFFCURVE",
"659 173 CURVE SMOOTH",
"690 210 OFFCURVE",
"705 257 OFFCURVE",
"705 312 CURVE SMOOTH",
"705 403 OFFCURVE",
"657 472 OFFCURVE",
"596 521 CURVE SMOOTH",
"565 546 OFFCURVE",
"526 573 OFFCURVE",
"477 603 CURVE SMOOTH",
"349 683 OFFCURVE",
"276 733 OFFCURVE",
"217 826 CURVE SMOOTH",
"188 873 OFFCURVE",
"173 926 OFFCURVE",
"173 987 CURVE SMOOTH",
"173 1119 OFFCURVE",
"252 1227 OFFCURVE",
"376 1284 CURVE SMOOTH",
"437 1312 OFFCURVE",
"504 1326 OFFCURVE",
"576 1326 CURVE SMOOTH",
"724 1326 OFFCURVE",
"831 1292 OFFCURVE",
"890 1253 CURVE",
"851 1029 LINE",
"780 1029 LINE",
"771 1196 LINE",
"731 1224 OFFCURVE",
"656 1244 OFFCURVE",
"565 1244 CURVE SMOOTH",
"477 1244 OFFCURVE",
"391 1214 OFFCURVE",
"340 1150 CURVE SMOOTH",
"315 1117 OFFCURVE",
"302 1077 OFFCURVE",
"302 1030 CURVE SMOOTH",
"302 934 OFFCURVE",
"355 858 OFFCURVE",
"422 806 CURVE SMOOTH",
"455 779 OFFCURVE",
"498 750 OFFCURVE",
"551 717 CURVE SMOOTH",
"574 703 LINE SMOOTH",
"689 631 OFFCURVE",
"750 588 OFFCURVE",
"798 505 CURVE SMOOTH",
"822 464 OFFCURVE",
"834 415 OFFCURVE",
"834 359 CURVE SMOOTH",
"834 204 OFFCURVE",
"752 86 OFFCURVE",
"619 26 CURVE SMOOTH",
"552 -5 OFFCURVE",
"477 -20 OFFCURVE",
"394 -20 CURVE SMOOTH",
"295 -20 OFFCURVE",
"193 -2 OFFCURVE",
"122 22 CURVE SMOOTH",
"86 34 OFFCURVE",
"61 45 OFFCURVE",
"46 56 CURVE",
"82 297 LINE"
);
}
);
width = 932;
}
);
note = S;
unicode = 0053;
},
{
glyphname = Sacute;
layers = (
{
layerId = "4C84AE98-85C0-4DB9-B47D-A9DF131BEAEE";
name = "Light Italic";
paths = (
{
closed = 1;
nodes = (
"158 297 LINE",
"169 116 LINE",
"217 84 OFFCURVE",
"313 62 OFFCURVE",
"398 62 CURVE SMOOTH",
"497 62 OFFCURVE",
"598 97 OFFCURVE",
"659 173 CURVE SMOOTH",
"690 210 OFFCURVE",
"705 257 OFFCURVE",
"705 312 CURVE SMOOTH",
"705 403 OFFCURVE",
"657 472 OFFCURVE",
"596 521 CURVE SMOOTH",
"565 546 OFFCURVE",
"526 573 OFFCURVE",
"477 603 CURVE SMOOTH",
"349 683 OFFCURVE",
"276 733 OFFCURVE",
"217 826 CURVE SMOOTH",
"188 873 OFFCURVE",
"173 926 OFFCURVE",
"173 987 CURVE SMOOTH",
"173 1119 OFFCURVE",
"252 1227 OFFCURVE",
"376 1284 CURVE SMOOTH",
"437 1312 OFFCURVE",
"504 1326 OFFCURVE",
"576 1326 CURVE SMOOTH",
"724 1326 OFFCURVE",
"831 1292 OFFCURVE",
"890 1253 CURVE",
"851 1029 LINE",
"780 1029 LINE",
"771 1196 LINE",
"731 1224 OFFCURVE",
"656 1244 OFFCURVE",
"565 1244 CURVE SMOOTH",
"477 1244 OFFCURVE",
"391 1214 OFFCURVE",
"340 1150 CURVE SMOOTH",
"315 1117 OFFCURVE",
"302 1077 OFFCURVE",
"302 1030 CURVE SMOOTH",
"302 934 OFFCURVE",
"355 858 OFFCURVE",
"422 806 CURVE SMOOTH",
"455 779 OFFCURVE",
"498 750 OFFCURVE",
"551 717 CURVE SMOOTH",
"574 703 LINE SMOOTH",
"689 631 OFFCURVE",
"750 588 OFFCURVE",
"798 505 CURVE SMOOTH",
"822 464 OFFCURVE",
"834 415 OFFCURVE",
"834 359 CURVE SMOOTH",
"834 204 OFFCURVE",
"752 86 OFFCURVE",
"619 26 CURVE SMOOTH",
"552 -5 OFFCURVE",
"477 -20 OFFCURVE",
"394 -20 CURVE SMOOTH",
"295 -20 OFFCURVE",
"193 -2 OFFCURVE",
"122 22 CURVE SMOOTH",
"86 34 OFFCURVE",
"61 45 OFFCURVE",
"46 56 CURVE",
"82 297 LINE"
);
},
{
closed = 1;
nodes = (
"778 1720 LINE",
"859 1639 LINE",
"818 1556 OFFCURVE",
"677 1445 OFFCURVE",
"577 1388 CURVE",
"534 1420 LINE"
);
}
);
width = 932;
}
);
note = Sacute;
unicode = 015A;
},
{
glyphname = Scaron;
layers = (
{
layerId = "4C84AE98-85C0-4DB9-B47D-A9DF131BEAEE";
name = "Light Italic";
paths = (
{
closed = 1;
nodes = (
"158 297 LINE",
"169 116 LINE",
"217 84 OFFCURVE",
"313 62 OFFCURVE",
"398 62 CURVE SMOOTH",
"497 62 OFFCURVE",
"598 97 OFFCURVE",
"659 173 CURVE SMOOTH",
"690 210 OFFCURVE",
"705 257 OFFCURVE",
"705 312 CURVE SMOOTH",
"705 403 OFFCURVE",
"657 472 OFFCURVE",
"596 521 CURVE SMOOTH",
"565 546 OFFCURVE",
"526 573 OFFCURVE",
"477 603 CURVE SMOOTH",
"349 683 OFFCURVE",
"276 733 OFFCURVE",
"217 826 CURVE SMOOTH",
"188 873 OFFCURVE",
"173 926 OFFCURVE",
"173 987 CURVE SMOOTH",
"173 1119 OFFCURVE",
"252 1227 OFFCURVE",
"376 1284 CURVE SMOOTH",
"437 1312 OFFCURVE",
"504 1326 OFFCURVE",
"576 1326 CURVE SMOOTH",
"724 1326 OFFCURVE",
"831 1292 OFFCURVE",
"890 1253 CURVE",
"851 1029 LINE",
"780 1029 LINE",
"771 1196 LINE",
"731 1224 OFFCURVE",
"656 1244 OFFCURVE",
"565 1244 CURVE SMOOTH",
"477 1244 OFFCURVE",
"391 1214 OFFCURVE",
"340 1150 CURVE SMOOTH",
"315 1117 OFFCURVE",
"302 1077 OFFCURVE",
"302 1030 CURVE SMOOTH",
"302 934 OFFCURVE",
"355 858 OFFCURVE",
"422 806 CURVE SMOOTH",
"455 779 OFFCURVE",
"498 750 OFFCURVE",
"551 717 CURVE SMOOTH",
"574 703 LINE SMOOTH",
"689 631 OFFCURVE",
"750 588 OFFCURVE",
"798 505 CURVE SMOOTH",
"822 464 OFFCURVE",
"834 415 OFFCURVE",
"834 359 CURVE SMOOTH",
"834 204 OFFCURVE",
"752 86 OFFCURVE",
"619 26 CURVE SMOOTH",
"552 -5 OFFCURVE",
"477 -20 OFFCURVE",
"394 -20 CURVE SMOOTH",
"295 -20 OFFCURVE",
"193 -2 OFFCURVE",
"122 22 CURVE SMOOTH",
"86 34 OFFCURVE",
"61 45 OFFCURVE",
"46 56 CURVE",
"82 297 LINE"
);
},
{
closed = 1;
nodes = (
"404 1720 LINE",
"605 1492 LINE",
"883 1720 LINE",
"925 1680 LINE",
"660 1395 LINE",
"545 1395 LINE",
"354 1680 LINE"
);
}
);
width = 932;
}
);
note = Scaron;
unicode = 0160;
},
{
glyphname = Scedilla;
layers = (
{
layerId = "4C84AE98-85C0-4DB9-B47D-A9DF131BEAEE";
name = "Light Italic";
paths = (
{
closed = 1;
nodes = (
"477 1244 OFFCURVE",
"391 1214 OFFCURVE",
"340 1150 CURVE SMOOTH",
"315 1117 OFFCURVE",
"302 1077 OFFCURVE",
"302 1030 CURVE SMOOTH",
"302 934 OFFCURVE",
"355 858 OFFCURVE",
"422 806 CURVE SMOOTH",
"455 779 OFFCURVE",
"498 750 OFFCURVE",
"551 717 CURVE SMOOTH",
"574 703 LINE SMOOTH",
"689 631 OFFCURVE",
"750 588 OFFCURVE",
"798 505 CURVE SMOOTH",
"822 463 OFFCURVE",
"834 414 OFFCURVE",
"834 358 CURVE SMOOTH",
"834 214 OFFCURVE",
"763 101 OFFCURVE",
"643 38 CURVE SMOOTH",
"583 7 OFFCURVE",
"515 -12 OFFCURVE",
"439 -18 CURVE",
"448 -47 OFFCURVE",
"453 -80 OFFCURVE",
"453 -117 CURVE SMOOTH",
"453 -244 OFFCURVE",
"410 -328 OFFCURVE",
"342 -368 CURVE SMOOTH",
"307 -389 OFFCURVE",
"268 -399 OFFCURVE",
"224 -399 CURVE SMOOTH",
"177 -399 OFFCURVE",
"131 -388 OFFCURVE",
"112 -375 CURVE",
"122 -272 LINE",
"137 -280 OFFCURVE",
"174 -286 OFFCURVE",
"210 -286 CURVE SMOOTH",
"314 -286 OFFCURVE",
"372 -203 OFFCURVE",
"372 -74 CURVE SMOOTH",
"372 -53 OFFCURVE",
"370 -35 OFFCURVE",
"367 -20 CURVE",
"275 -16 OFFCURVE",
"182 2 OFFCURVE",
"116 24 CURVE SMOOTH",
"83 35 OFFCURVE",
"59 45 OFFCURVE",
"46 56 CURVE",
"82 297 LINE",
"158 297 LINE",
"169 116 LINE",
"217 84 OFFCURVE",
"313 62 OFFCURVE",
"398 62 CURVE SMOOTH",
"497 62 OFFCURVE",
"598 97 OFFCURVE",
"659 173 CURVE SMOOTH",
"690 210 OFFCURVE",
"705 257 OFFCURVE",
"705 312 CURVE SMOOTH",
"705 403 OFFCURVE",
"657 472 OFFCURVE",
"596 521 CURVE SMOOTH",
"565 546 OFFCURVE",
"526 573 OFFCURVE",
"477 603 CURVE SMOOTH",
"349 683 OFFCURVE",
"276 733 OFFCURVE",
"217 826 CURVE SMOOTH",
"188 873 OFFCURVE",
"173 926 OFFCURVE",
"173 987 CURVE SMOOTH",
"173 1119 OFFCURVE",
"252 1227 OFFCURVE",
"376 1284 CURVE SMOOTH",
"437 1312 OFFCURVE",
"504 1326 OFFCURVE",
"576 1326 CURVE SMOOTH",
"724 1326 OFFCURVE",
"831 1292 OFFCURVE",
"890 1253 CURVE",
"851 1029 LINE",
"780 1029 LINE",
"771 1196 LINE",
"731 1224 OFFCURVE",
"656 1244 OFFCURVE",
"565 1244 CURVE SMOOTH"
);
}
);
width = 932;
}
);
note = Scedilla;
unicode = 015E;
},
{
glyphname = Scircumflex;
layers = (
{
layerId = "4C84AE98-85C0-4DB9-B47D-A9DF131BEAEE";
name = "Light Italic";
paths = (
{
closed = 1;
nodes = (
"158 297 LINE",
"169 116 LINE",
"217 84 OFFCURVE",
"313 62 OFFCURVE",
"398 62 CURVE SMOOTH",
"497 62 OFFCURVE",
"598 97 OFFCURVE",
"659 173 CURVE SMOOTH",
"690 210 OFFCURVE",
"705 257 OFFCURVE",
"705 312 CURVE SMOOTH",
"705 403 OFFCURVE",
"657 472 OFFCURVE",
"596 521 CURVE SMOOTH",
"565 546 OFFCURVE",
"526 573 OFFCURVE",
"477 603 CURVE SMOOTH",
"349 683 OFFCURVE",
"276 733 OFFCURVE",
"217 826 CURVE SMOOTH",
"188 873 OFFCURVE",
"173 926 OFFCURVE",
"173 987 CURVE SMOOTH",
"173 1119 OFFCURVE",
"252 1227 OFFCURVE",
"376 1284 CURVE SMOOTH",
"437 1312 OFFCURVE",
"504 1326 OFFCURVE",
"576 1326 CURVE SMOOTH",
"724 1326 OFFCURVE",
"831 1292 OFFCURVE",
"890 1253 CURVE",
"851 1029 LINE",
"780 1029 LINE",
"771 1196 LINE",
"731 1224 OFFCURVE",
"656 1244 OFFCURVE",
"565 1244 CURVE SMOOTH",
"477 1244 OFFCURVE",
"391 1214 OFFCURVE",
"340 1150 CURVE SMOOTH",
"315 1117 OFFCURVE",
"302 1077 OFFCURVE",
"302 1030 CURVE SMOOTH",
"302 934 OFFCURVE",
"355 858 OFFCURVE",
"422 806 CURVE SMOOTH",
"455 779 OFFCURVE",
"498 750 OFFCURVE",
"551 717 CURVE SMOOTH",
"574 703 LINE SMOOTH",
"689 631 OFFCURVE",
"750 588 OFFCURVE",
"798 505 CURVE SMOOTH",
"822 464 OFFCURVE",
"834 415 OFFCURVE",
"834 359 CURVE SMOOTH",
"834 204 OFFCURVE",
"752 86 OFFCURVE",
"619 26 CURVE SMOOTH",
"552 -5 OFFCURVE",
"477 -20 OFFCURVE",
"394 -20 CURVE SMOOTH",
"295 -20 OFFCURVE",
"193 -2 OFFCURVE",
"122 22 CURVE SMOOTH",
"86 34 OFFCURVE",
"61 45 OFFCURVE",
"46 56 CURVE",
"82 297 LINE"
);
},
{
closed = 1;
nodes = (
"599 1720 LINE",
"716 1720 LINE",
"906 1439 LINE",
"860 1398 LINE",
"652 1619 LINE",
"362 1400 LINE",
"321 1440 LINE"
);
}
);
width = 932;
}
);
note = Scircumflex;
unicode = 015C;
},
{
glyphname = Scommaaccent;
layers = (
{
layerId = "4C84AE98-85C0-4DB9-B47D-A9DF131BEAEE";
name = "Light Italic";
paths = (
{
closed = 1;
nodes = (
"297 -436 LINE",
"342 -404 OFFCURVE",
"377 -338 OFFCURVE",
"377 -270 CURVE SMOOTH",
"377 -222 OFFCURVE",
"351 -170 OFFCURVE",
"316 -157 CURVE",
"316 -114 LINE",
"400 -45 LINE",
"461 -64 OFFCURVE",
"496 -137 OFFCURVE",
"496 -220 CURVE SMOOTH",
"496 -308 OFFCURVE",
"459 -386 OFFCURVE",
"412 -435 CURVE SMOOTH",
"389 -460 OFFCURVE",
"367 -475 OFFCURVE",
"348 -482 CURVE",
"297 -453 LINE"
);
},
{
closed = 1;
nodes = (
"158 297 LINE",
"169 116 LINE",
"217 84 OFFCURVE",
"313 62 OFFCURVE",
"398 62 CURVE SMOOTH",
"497 62 OFFCURVE",
"598 97 OFFCURVE",
"659 173 CURVE SMOOTH",
"690 210 OFFCURVE",
"705 257 OFFCURVE",
"705 312 CURVE SMOOTH",
"705 403 OFFCURVE",
"657 472 OFFCURVE",
"596 521 CURVE SMOOTH",
"565 546 OFFCURVE",
"526 573 OFFCURVE",
"477 603 CURVE SMOOTH",
"349 683 OFFCURVE",
"276 733 OFFCURVE",
"217 826 CURVE SMOOTH",
"188 873 OFFCURVE",
"173 926 OFFCURVE",
"173 987 CURVE SMOOTH",
"173 1119 OFFCURVE",
"252 1227 OFFCURVE",
"376 1284 CURVE SMOOTH",
"437 1312 OFFCURVE",
"504 1326 OFFCURVE",
"576 1326 CURVE SMOOTH",
"724 1326 OFFCURVE",
"831 1292 OFFCURVE",
"890 1253 CURVE",
"851 1029 LINE",
"780 1029 LINE",
"771 1196 LINE",
"731 1224 OFFCURVE",
"656 1244 OFFCURVE",
"565 1244 CURVE SMOOTH",
"477 1244 OFFCURVE",
"391 1214 OFFCURVE",
"340 1150 CURVE SMOOTH",
"315 1117 OFFCURVE",
"302 1077 OFFCURVE",
"302 1030 CURVE SMOOTH",
"302 934 OFFCURVE",
"355 858 OFFCURVE",
"422 806 CURVE SMOOTH",
"455 779 OFFCURVE",
"498 750 OFFCURVE",
"551 717 CURVE SMOOTH",
"574 703 LINE SMOOTH",
"689 631 OFFCURVE",
"750 588 OFFCURVE",
"798 505 CURVE SMOOTH",
"822 464 OFFCURVE",
"834 415 OFFCURVE",
"834 359 CURVE SMOOTH",
"834 204 OFFCURVE",
"752 86 OFFCURVE",
"619 26 CURVE SMOOTH",
"552 -5 OFFCURVE",
"477 -20 OFFCURVE",
"394 -20 CURVE SMOOTH",
"295 -20 OFFCURVE",
"193 -2 OFFCURVE",
"122 22 CURVE SMOOTH",
"86 34 OFFCURVE",
"61 45 OFFCURVE",
"46 56 CURVE",
"82 297 LINE"
);
}
);
width = 932;
}
);
note = Scommaaccent;
unicode = 0218;
},
{
glyphname = uni1E9E;
layers = (
{
layerId = "4C84AE98-85C0-4DB9-B47D-A9DF131BEAEE";
name = "Light Italic";
paths = (
{
closed = 1;
nodes = (
"831 789 LINE",
"971 722 OFFCURVE",
"1060 674 OFFCURVE",
"1134 572 CURVE SMOOTH",
"1171 521 OFFCURVE",
"1189 460 OFFCURVE",
"1189 390 CURVE SMOOTH",
"1189 239 OFFCURVE",
"1112 107 OFFCURVE",
"988 35 CURVE SMOOTH",
"925 -2 OFFCURVE",
"855 -20 OFFCURVE",
"778 -20 CURVE SMOOTH",
"678 -20 OFFCURVE",
"608 1 OFFCURVE",
"528 34 CURVE",
"517 38 OFFCURVE",
"506 42 OFFCURVE",
"496 46 CURVE SMOOTH",
"485 50 OFFCURVE",
"477 52 OFFCURVE",
"470 52 CURVE",
"509 335 LINE",
"589 335 LINE",
"596 126 LINE",
"617 91 OFFCURVE",
"706 59 OFFCURVE",
"794 59 CURVE SMOOTH",
"909 59 OFFCURVE",
"993 121 OFFCURVE",
"1036 210 CURVE SMOOTH",
"1057 255 OFFCURVE",
"1068 302 OFFCURVE",
"1068 352 CURVE SMOOTH",
"1068 472 OFFCURVE",
"971 576 OFFCURVE",
"860 643 CURVE SMOOTH",
"805 676 OFFCURVE",
"753 701 OFFCURVE",
"706 717 CURVE",
"710 739 LINE",
"987 1138 LINE",
"951 1186 OFFCURVE",
"876 1237 OFFCURVE",
"740 1237 CURVE SMOOTH",
"605 1237 OFFCURVE",
"494 1168 OFFCURVE",
"425 1040 CURVE SMOOTH",
"390 976 OFFCURVE",
"368 900 OFFCURVE",
"358 811 CURVE SMOOTH",
"261 -10 LINE",
"34 -10 LINE",
"40 58 LINE",
"146 78 LINE",
"230 784 LINE SMOOTH",
"255 981 OFFCURVE",
"352 1151 OFFCURVE",
"507 1244 CURVE SMOOTH",
"584 1291 OFFCURVE",
"671 1314 OFFCURVE",
"768 1314 CURVE SMOOTH",
"940 1314 OFFCURVE",
"1028 1278 OFFCURVE",
"1115 1215 CURVE",
"1110 1175 LINE"
);
}
);
width = 1258;
}
);
note = uni1E9E;
unicode = 1E9E;
},
{
glyphname = uni018F;
layers = (
{
layerId = "4C84AE98-85C0-4DB9-B47D-A9DF131BEAEE";
name = "Light Italic";
paths = (
{
closed = 1;
nodes = (
"925 663 LINE",
"929 702 OFFCURVE",
"931 744 OFFCURVE",
"931 789 CURVE SMOOTH",
"931 982 OFFCURVE",
"869 1123 OFFCURVE",
"768 1193 CURVE SMOOTH",
"717 1228 OFFCURVE",
"661 1245 OFFCURVE",
"598 1245 CURVE SMOOTH",
"451 1245 OFFCURVE",
"338 1203 OFFCURVE",
"279 1155 CURVE",
"228 1005 LINE",
"157 1005 LINE",
"198 1255 LINE",
"229 1256 OFFCURVE",
"252 1262 OFFCURVE",
"312 1277 CURVE SMOOTH",
"419 1306 OFFCURVE",
"500 1323 OFFCURVE",
"632 1323 CURVE SMOOTH",
"809 1323 OFFCURVE",
"938 1232 OFFCURVE",
"1005 1074 CURVE SMOOTH",
"1038 995 OFFCURVE",
"1055 902 OFFCURVE",
"1055 796 CURVE SMOOTH",
"1055 489 OFFCURVE",
"932 227 OFFCURVE",
"739 86 CURVE SMOOTH",
"642 15 OFFCURVE",
"538 -20 OFFCURVE",
"425 -20 CURVE SMOOTH",
"272 -20 OFFCURVE",
"162 50 OFFCURVE",
"106 179 CURVE SMOOTH",
"77 243 OFFCURVE",
"63 321 OFFCURVE",
"63 412 CURVE SMOOTH",
"63 509 OFFCURVE",
"79 609 OFFCURVE",
"96 661 CURVE"
);
},
{
closed = 1;
nodes = (
"611 59 OFFCURVE",
"739 141 OFFCURVE",
"826 299 CURVE SMOOTH",
"869 378 OFFCURVE",
"899 474 OFFCURVE",
"916 587 CURVE",
"213 586 LINE",
"196 515 OFFCURVE",
"187 449 OFFCURVE",
"187 389 CURVE SMOOTH",
"187 274 OFFCURVE",
"230 168 OFFCURVE",
"315 106 CURVE SMOOTH",
"357 75 OFFCURVE",
"408 59 OFFCURVE",
"467 59 CURVE SMOOTH"
);
}
);
width = 1116;
}
);
note = uni018F;
unicode = 018F;
},
{
glyphname = T;
layers = (
{
layerId = "4C84AE98-85C0-4DB9-B47D-A9DF131BEAEE";
name = "Light Italic";
paths = (
{
closed = 1;
nodes = (
"396 81 LINE",
"544 1234 LINE",
"219 1220 LINE",
"148 926 LINE",
"72 924 LINE",
"134 1309 LINE",
"1112 1309 LINE",
"1060 924 LINE",
"987 924 LINE",
"1002 1220 LINE",
"674 1234 LINE",
"525 81 LINE",
"740 64 LINE",
"734 0 LINE",
"181 0 LINE",
"186 64 LINE"
);
}
);
width = 1053;
}
);
note = T;
unicode = 0054;
},
{
glyphname = Tbar;
layers = (
{
layerId = "4C84AE98-85C0-4DB9-B47D-A9DF131BEAEE";
name = "Light Italic";
paths = (
{
closed = 1;
nodes = (
"477 719 LINE",
"544 1234 LINE",
"219 1220 LINE",
"148 926 LINE",
"72 924 LINE",
"134 1309 LINE",
"1112 1309 LINE",
"1060 924 LINE",
"987 924 LINE",
"1002 1220 LINE",
"674 1234 LINE",
"607 719 LINE",
"886 719 LINE",
"875 629 LINE",
"596 629 LINE",
"525 81 LINE",
"740 64 LINE",
"734 0 LINE",
"181 0 LINE",
"186 64 LINE",
"396 81 LINE",
"465 629 LINE",
"236 629 LINE",
"248 719 LINE"
);
}
);
width = 1053;
}
);
note = Tbar;
unicode = 0166;
},
{
glyphname = Tcaron;
layers = (
{
layerId = "4C84AE98-85C0-4DB9-B47D-A9DF131BEAEE";
name = "Light Italic";
paths = (
{
closed = 1;
nodes = (
"439 1720 LINE",
"640 1492 LINE",
"918 1720 LINE",
"960 1680 LINE",
"695 1395 LINE",
"580 1395 LINE",
"389 1680 LINE"
);
},
{
closed = 1;
nodes = (
"396 81 LINE",
"544 1234 LINE",
"219 1220 LINE",
"148 926 LINE",
"72 924 LINE",
"134 1309 LINE",
"1112 1309 LINE",
"1060 924 LINE",
"987 924 LINE",
"1002 1220 LINE",
"674 1234 LINE",
"525 81 LINE",
"740 64 LINE",
"734 0 LINE",
"181 0 LINE",
"186 64 LINE"
);
}
);
width = 1053;
}
);
note = Tcaron;
unicode = 0164;
},
{
glyphname = U;
layers = (
{
layerId = "4C84AE98-85C0-4DB9-B47D-A9DF131BEAEE";
name = "Light Italic";
paths = (
{
closed = 1;
nodes = (
"233 1224 LINE",
"113 1240 LINE",
"120 1309 LINE",
"504 1309 LINE",
"497 1240 LINE",
"365 1222 LINE",
"271 522 LINE SMOOTH",
"258 413 OFFCURVE",
"242 243 OFFCURVE",
"333 138 CURVE SMOOTH",
"378 85 OFFCURVE",
"445 59 OFFCURVE",
"533 59 CURVE SMOOTH",
"753 59 OFFCURVE",
"875 214 OFFCURVE",
"914 539 CURVE SMOOTH",
"1004 1222 LINE",
"888 1239 LINE",
"895 1309 LINE",
"1238 1309 LINE",
"1232 1239 LINE",
"1119 1224 LINE",
"1029 539 LINE SMOOTH",
"994 271 OFFCURVE",
"909 113 OFFCURVE",
"770 39 CURVE SMOOTH",
"700 2 OFFCURVE",
"615 -17 OFFCURVE",
"514 -17 CURVE SMOOTH",
"353 -17 OFFCURVE",
"238 46 OFFCURVE",
"179 162 CURVE SMOOTH",
"119 277 OFFCURVE",
"127 417 OFFCURVE",
"138 510 CURVE SMOOTH"
);
}
);
width = 1185;
}
);
note = U;
unicode = 0055;
},
{
glyphname = Uacute;
layers = (
{
layerId = "4C84AE98-85C0-4DB9-B47D-A9DF131BEAEE";
name = "Light Italic";
paths = (
{
closed = 1;
nodes = (
"872 1720 LINE",
"953 1639 LINE",
"912 1556 OFFCURVE",
"771 1445 OFFCURVE",
"671 1388 CURVE",
"628 1420 LINE"
);
},
{
closed = 1;
nodes = (
"233 1224 LINE",
"113 1240 LINE",
"120 1309 LINE",
"504 1309 LINE",
"497 1240 LINE",
"365 1222 LINE",
"271 522 LINE SMOOTH",
"258 413 OFFCURVE",
"242 243 OFFCURVE",
"333 138 CURVE SMOOTH",
"378 85 OFFCURVE",
"445 59 OFFCURVE",
"533 59 CURVE SMOOTH",
"753 59 OFFCURVE",
"875 214 OFFCURVE",
"914 539 CURVE SMOOTH",
"1004 1222 LINE",
"888 1239 LINE",
"895 1309 LINE",
"1238 1309 LINE",
"1232 1239 LINE",
"1119 1224 LINE",
"1029 539 LINE SMOOTH",
"994 271 OFFCURVE",
"909 113 OFFCURVE",
"770 39 CURVE SMOOTH",
"700 2 OFFCURVE",
"615 -17 OFFCURVE",
"514 -17 CURVE SMOOTH",
"353 -17 OFFCURVE",
"238 46 OFFCURVE",
"179 162 CURVE SMOOTH",
"119 277 OFFCURVE",
"127 417 OFFCURVE",
"138 510 CURVE SMOOTH"
);
}
);
width = 1185;
}
);
note = Uacute;
unicode = 00DA;
},
{
glyphname = Ubreve;
layers = (
{
layerId = "4C84AE98-85C0-4DB9-B47D-A9DF131BEAEE";
name = "Light Italic";
paths = (
{
closed = 1;
nodes = (
"459 1684 OFFCURVE",
"459 1695 OFFCURVE",
"460 1702 CURVE",
"531 1702 LINE",
"536 1598 OFFCURVE",
"581 1507 OFFCURVE",
"708 1507 CURVE SMOOTH",
"792 1507 OFFCURVE",
"853 1550 OFFCURVE",
"888 1610 CURVE SMOOTH",
"905 1640 OFFCURVE",
"916 1671 OFFCURVE",
"921 1702 CURVE",
"989 1702 LINE",
"989 1606 OFFCURVE",
"932 1506 OFFCURVE",
"845 1449 CURVE SMOOTH",
"801 1420 OFFCURVE",
"754 1406 OFFCURVE",
"705 1406 CURVE SMOOTH",
"596 1406 OFFCURVE",
"521 1459 OFFCURVE",
"486 1539 CURVE SMOOTH",
"468 1578 OFFCURVE",
"459 1621 OFFCURVE",
"459 1668 CURVE SMOOTH"
);
},
{
closed = 1;
nodes = (
"233 1224 LINE",
"113 1240 LINE",
"120 1309 LINE",
"504 1309 LINE",
"497 1240 LINE",
"365 1222 LINE",
"271 522 LINE SMOOTH",
"258 413 OFFCURVE",
"242 243 OFFCURVE",
"333 138 CURVE SMOOTH",
"378 85 OFFCURVE",
"445 59 OFFCURVE",
"533 59 CURVE SMOOTH",
"753 59 OFFCURVE",
"875 214 OFFCURVE",
"914 539 CURVE SMOOTH",
"1004 1222 LINE",
"888 1239 LINE",
"895 1309 LINE",
"1238 1309 LINE",
"1232 1239 LINE",
"1119 1224 LINE",
"1029 539 LINE SMOOTH",
"994 271 OFFCURVE",
"909 113 OFFCURVE",
"770 39 CURVE SMOOTH",
"700 2 OFFCURVE",
"615 -17 OFFCURVE",
"514 -17 CURVE SMOOTH",
"353 -17 OFFCURVE",
"238 46 OFFCURVE",
"179 162 CURVE SMOOTH",
"119 277 OFFCURVE",
"127 417 OFFCURVE",
"138 510 CURVE SMOOTH"
);
}
);
width = 1185;
}
);
note = Ubreve;
unicode = 016C;
},
{
glyphname = Ucircumflex;
layers = (
{
layerId = "4C84AE98-85C0-4DB9-B47D-A9DF131BEAEE";
name = "Light Italic";
paths = (
{
closed = 1;
nodes = (
"233 1224 LINE",
"113 1240 LINE",
"120 1309 LINE",
"504 1309 LINE",
"497 1240 LINE",
"365 1222 LINE",
"271 522 LINE SMOOTH",
"258 413 OFFCURVE",
"242 243 OFFCURVE",
"333 138 CURVE SMOOTH",
"378 85 OFFCURVE",
"445 59 OFFCURVE",
"533 59 CURVE SMOOTH",
"753 59 OFFCURVE",
"875 214 OFFCURVE",
"914 539 CURVE SMOOTH",
"1004 1222 LINE",
"888 1239 LINE",
"895 1309 LINE",
"1238 1309 LINE",
"1232 1239 LINE",
"1119 1224 LINE",
"1029 539 LINE SMOOTH",
"994 271 OFFCURVE",
"909 113 OFFCURVE",
"770 39 CURVE SMOOTH",
"700 2 OFFCURVE",
"615 -17 OFFCURVE",
"514 -17 CURVE SMOOTH",
"353 -17 OFFCURVE",
"238 46 OFFCURVE",
"179 162 CURVE SMOOTH",
"119 277 OFFCURVE",
"127 417 OFFCURVE",
"138 510 CURVE SMOOTH"
);
},
{
closed = 1;
nodes = (
"693 1720 LINE",
"810 1720 LINE",
"1000 1439 LINE",
"954 1398 LINE",
"746 1619 LINE",
"456 1400 LINE",
"415 1440 LINE"
);
}
);
width = 1185;
}
);
note = Ucircumflex;
unicode = 00DB;
},
{
glyphname = Udieresis;
layers = (
{
layerId = "4C84AE98-85C0-4DB9-B47D-A9DF131BEAEE";
name = "Light Italic";
paths = (
{
closed = 1;
nodes = (
"460 1617 OFFCURVE",
"481 1653 OFFCURVE",
"510 1673 CURVE SMOOTH",
"525 1683 OFFCURVE",
"540 1688 OFFCURVE",
"555 1688 CURVE SMOOTH",
"602 1688 OFFCURVE",
"633 1655 OFFCURVE",
"633 1607 CURVE SMOOTH",
"633 1568 OFFCURVE",
"614 1532 OFFCURVE",
"583 1513 CURVE SMOOTH",
"567 1503 OFFCURVE",
"550 1498 OFFCURVE",
"533 1498 CURVE SMOOTH",
"493 1498 OFFCURVE",
"460 1533 OFFCURVE",
"460 1580 CURVE SMOOTH"
);
},
{
closed = 1;
nodes = (
"820 1620 OFFCURVE",
"842 1654 OFFCURVE",
"872 1674 CURVE",
"887 1683 OFFCURVE",
"901 1688 OFFCURVE",
"916 1688 CURVE SMOOTH",
"964 1688 OFFCURVE",
"995 1655 OFFCURVE",
"995 1608 CURVE SMOOTH",
"995 1569 OFFCURVE",
"975 1533 OFFCURVE",
"944 1513 CURVE SMOOTH",
"929 1503 OFFCURVE",
"912 1498 OFFCURVE",
"894 1498 CURVE SMOOTH",
"851 1498 OFFCURVE",
"820 1533 OFFCURVE",
"820 1581 CURVE SMOOTH"
);
},
{
closed = 1;
nodes = (
"233 1224 LINE",
"113 1240 LINE",
"120 1309 LINE",
"504 1309 LINE",
"497 1240 LINE",
"365 1222 LINE",
"271 522 LINE SMOOTH",
"258 413 OFFCURVE",
"242 243 OFFCURVE",
"333 138 CURVE SMOOTH",
"378 85 OFFCURVE",
"445 59 OFFCURVE",
"533 59 CURVE SMOOTH",
"753 59 OFFCURVE",
"875 214 OFFCURVE",
"914 539 CURVE SMOOTH",
"1004 1222 LINE",
"888 1239 LINE",
"895 1309 LINE",
"1238 1309 LINE",
"1232 1239 LINE",
"1119 1224 LINE",
"1029 539 LINE SMOOTH",
"994 271 OFFCURVE",
"909 113 OFFCURVE",
"770 39 CURVE SMOOTH",
"700 2 OFFCURVE",
"615 -17 OFFCURVE",
"514 -17 CURVE SMOOTH",
"353 -17 OFFCURVE",
"238 46 OFFCURVE",
"179 162 CURVE SMOOTH",
"119 277 OFFCURVE",
"127 417 OFFCURVE",
"138 510 CURVE SMOOTH"
);
}
);
width = 1185;
}
);
note = Udieresis;
unicode = 00DC;
},
{
glyphname = Ugrave;
layers = (
{
layerId = "4C84AE98-85C0-4DB9-B47D-A9DF131BEAEE";
name = "Light Italic";
paths = (
{
closed = 1;
nodes = (
"526 1720 LINE",
"760 1420 LINE",
"716 1388 LINE",
"655 1423 OFFCURVE",
"573 1485 OFFCURVE",
"508 1550 CURVE SMOOTH",
"475 1582 OFFCURVE",
"453 1612 OFFCURVE",
"440 1639 CURVE"
);
},
{
closed = 1;
nodes = (
"233 1224 LINE",
"113 1240 LINE",
"120 1309 LINE",
"504 1309 LINE",
"497 1240 LINE",
"365 1222 LINE",
"271 522 LINE SMOOTH",
"258 413 OFFCURVE",
"242 243 OFFCURVE",
"333 138 CURVE SMOOTH",
"378 85 OFFCURVE",
"445 59 OFFCURVE",
"533 59 CURVE SMOOTH",
"753 59 OFFCURVE",
"875 214 OFFCURVE",
"914 539 CURVE SMOOTH",
"1004 1222 LINE",
"888 1239 LINE",
"895 1309 LINE",
"1238 1309 LINE",
"1232 1239 LINE",
"1119 1224 LINE",
"1029 539 LINE SMOOTH",
"994 271 OFFCURVE",
"909 113 OFFCURVE",
"770 39 CURVE SMOOTH",
"700 2 OFFCURVE",
"615 -17 OFFCURVE",
"514 -17 CURVE SMOOTH",
"353 -17 OFFCURVE",
"238 46 OFFCURVE",
"179 162 CURVE SMOOTH",
"119 277 OFFCURVE",
"127 417 OFFCURVE",
"138 510 CURVE SMOOTH"
);
}
);
width = 1185;
}
);
note = Ugrave;
unicode = 00D9;
},
{
glyphname = Uhungarumlaut;
layers = (
{
layerId = "4C84AE98-85C0-4DB9-B47D-A9DF131BEAEE";
name = "Light Italic";
paths = (
{
closed = 1;
nodes = (
"233 1224 LINE",
"113 1240 LINE",
"120 1309 LINE",
"504 1309 LINE",
"497 1240 LINE",
"365 1222 LINE",
"271 522 LINE SMOOTH",
"258 413 OFFCURVE",
"242 243 OFFCURVE",
"333 138 CURVE SMOOTH",
"378 85 OFFCURVE",
"445 59 OFFCURVE",
"533 59 CURVE SMOOTH",
"753 59 OFFCURVE",
"875 214 OFFCURVE",
"914 539 CURVE SMOOTH",
"1004 1222 LINE",
"888 1239 LINE",
"895 1309 LINE",
"1238 1309 LINE",
"1232 1239 LINE",
"1119 1224 LINE",
"1029 539 LINE SMOOTH",
"994 271 OFFCURVE",
"909 113 OFFCURVE",
"770 39 CURVE SMOOTH",
"700 2 OFFCURVE",
"615 -17 OFFCURVE",
"514 -17 CURVE SMOOTH",
"353 -17 OFFCURVE",
"238 46 OFFCURVE",
"179 162 CURVE SMOOTH",
"119 277 OFFCURVE",
"127 417 OFFCURVE",
"138 510 CURVE SMOOTH"
);
},
{
closed = 1;
nodes = (
"1091 1717 LINE",
"1179 1636 LINE",
"1122 1545 OFFCURVE",
"1013 1450 OFFCURVE",
"908 1385 CURVE",
"846 1430 LINE"
);
},
{
closed = 1;
nodes = (
"722 1716 LINE",
"810 1635 LINE",
"769 1552 OFFCURVE",
"669 1476 OFFCURVE",
"534 1384 CURVE",
"478 1428 LINE"
);
}
);
width = 1185;
}
);
note = Uhungarumlaut;
unicode = 0170;
},
{
glyphname = Umacron;
layers = (
{
layerId = "4C84AE98-85C0-4DB9-B47D-A9DF131BEAEE";
name = "Light Italic";
paths = (
{
closed = 1;
nodes = (
"927 1603 LINE",
"914 1501 LINE",
"476 1501 LINE",
"489 1603 LINE"
);
},
{
closed = 1;
nodes = (
"233 1224 LINE",
"113 1240 LINE",
"120 1309 LINE",
"504 1309 LINE",
"497 1240 LINE",
"365 1222 LINE",
"271 522 LINE SMOOTH",
"258 413 OFFCURVE",
"242 243 OFFCURVE",
"333 138 CURVE SMOOTH",
"378 85 OFFCURVE",
"445 59 OFFCURVE",
"533 59 CURVE SMOOTH",
"753 59 OFFCURVE",
"875 214 OFFCURVE",
"914 539 CURVE SMOOTH",
"1004 1222 LINE",
"888 1239 LINE",
"895 1309 LINE",
"1238 1309 LINE",
"1232 1239 LINE",
"1119 1224 LINE",
"1029 539 LINE SMOOTH",
"994 271 OFFCURVE",
"909 113 OFFCURVE",
"770 39 CURVE SMOOTH",
"700 2 OFFCURVE",
"615 -17 OFFCURVE",
"514 -17 CURVE SMOOTH",
"353 -17 OFFCURVE",
"238 46 OFFCURVE",
"179 162 CURVE SMOOTH",
"119 277 OFFCURVE",
"127 417 OFFCURVE",
"138 510 CURVE SMOOTH"
);
}
);
width = 1185;
}
);
note = Umacron;
unicode = 016A;
},
{
glyphname = Uogonek;
layers = (
{
layerId = "4C84AE98-85C0-4DB9-B47D-A9DF131BEAEE";
name = "Light Italic";
paths = (
{
closed = 1;
nodes = (
"233 1224 LINE",
"113 1240 LINE",
"120 1309 LINE",
"504 1309 LINE",
"497 1240 LINE",
"365 1222 LINE",
"271 522 LINE SMOOTH",
"258 413 OFFCURVE",
"242 243 OFFCURVE",
"333 138 CURVE SMOOTH",
"378 85 OFFCURVE",
"445 59 OFFCURVE",
"533 59 CURVE SMOOTH",
"753 59 OFFCURVE",
"875 214 OFFCURVE",
"914 539 CURVE SMOOTH",
"1004 1222 LINE",
"888 1239 LINE",
"895 1309 LINE",
"1238 1309 LINE",
"1232 1239 LINE",
"1119 1224 LINE",
"1029 539 LINE SMOOTH",
"984 195 OFFCURVE",
"859 32 OFFCURVE",
"631 -8 CURVE",
"554 -79 OFFCURVE",
"499 -147 OFFCURVE",
"498 -194 CURVE",
"495 -243 OFFCURVE",
"520 -269 OFFCURVE",
"556 -269 CURVE SMOOTH",
"601 -269 OFFCURVE",
"647 -250 OFFCURVE",
"692 -211 CURVE",
"710 -277 LINE",
"649 -331 OFFCURVE",
"578 -358 OFFCURVE",
"495 -358 CURVE SMOOTH",
"438 -358 OFFCURVE",
"400 -334 OFFCURVE",
"383 -301 CURVE",
"374 -285 OFFCURVE",
"370 -268 OFFCURVE",
"370 -250 CURVE SMOOTH",
"370 -215 OFFCURVE",
"382 -175 OFFCURVE",
"401 -150 CURVE",
"441 -91 OFFCURVE",
"491 -56 OFFCURVE",
"560 -15 CURVE",
"541 -16 OFFCURVE",
"525 -17 OFFCURVE",
"514 -17 CURVE SMOOTH",
"353 -17 OFFCURVE",
"238 46 OFFCURVE",
"179 162 CURVE SMOOTH",
"119 277 OFFCURVE",
"127 417 OFFCURVE",
"138 510 CURVE SMOOTH"
);
}
);
width = 1185;
}
);
note = Uogonek;
unicode = 0172;
},
{
glyphname = Uring;
layers = (
{
layerId = "4C84AE98-85C0-4DB9-B47D-A9DF131BEAEE";
name = "Light Italic";
paths = (
{
closed = 1;
nodes = (
"233 1224 LINE",
"113 1240 LINE",
"120 1309 LINE",
"504 1309 LINE",
"497 1240 LINE",
"365 1222 LINE",
"271 522 LINE SMOOTH",
"258 413 OFFCURVE",
"242 243 OFFCURVE",
"333 138 CURVE SMOOTH",
"378 85 OFFCURVE",
"445 59 OFFCURVE",
"533 59 CURVE SMOOTH",
"753 59 OFFCURVE",
"875 214 OFFCURVE",
"914 539 CURVE SMOOTH",
"1004 1222 LINE",
"888 1239 LINE",
"895 1309 LINE",
"1238 1309 LINE",
"1232 1239 LINE",
"1119 1224 LINE",
"1029 539 LINE SMOOTH",
"994 271 OFFCURVE",
"909 113 OFFCURVE",
"770 39 CURVE SMOOTH",
"700 2 OFFCURVE",
"615 -17 OFFCURVE",
"514 -17 CURVE SMOOTH",
"353 -17 OFFCURVE",
"238 46 OFFCURVE",
"179 162 CURVE SMOOTH",
"119 277 OFFCURVE",
"127 417 OFFCURVE",
"138 510 CURVE SMOOTH"
);
},
{
closed = 1;
nodes = (
"459 1684 OFFCURVE",
"524 1748 OFFCURVE",
"613 1780 CURVE SMOOTH",
"658 1795 OFFCURVE",
"703 1803 OFFCURVE",
"750 1803 CURVE SMOOTH",
"890 1803 OFFCURVE",
"976 1744 OFFCURVE",
"976 1637 CURVE SMOOTH",
"976 1537 OFFCURVE",
"913 1467 OFFCURVE",
"826 1433 CURVE SMOOTH",
"783 1416 OFFCURVE",
"738 1407 OFFCURVE",
"691 1407 CURVE SMOOTH",
"543 1407 OFFCURVE",
"459 1477 OFFCURVE",
"459 1592 CURVE SMOOTH"
);
},
{
closed = 1;
nodes = (
"889 1704 OFFCURVE",
"828 1747 OFFCURVE",
"739 1747 CURVE SMOOTH",
"672 1747 OFFCURVE",
"611 1727 OFFCURVE",
"574 1683 CURVE SMOOTH",
"555 1660 OFFCURVE",
"546 1633 OFFCURVE",
"546 1600 CURVE SMOOTH",
"546 1516 OFFCURVE",
"604 1462 OFFCURVE",
"700 1462 CURVE SMOOTH",
"805 1462 OFFCURVE",
"889 1516 OFFCURVE",
"889 1631 CURVE SMOOTH"
);
}
);
width = 1185;
}
);
note = Uring;
unicode = 016E;
},
{
glyphname = Utilde;
layers = (
{
layerId = "4C84AE98-85C0-4DB9-B47D-A9DF131BEAEE";
name = "Light Italic";
paths = (
{
closed = 1;
nodes = (
"408 1548 LINE",
"443 1629 OFFCURVE",
"508 1690 OFFCURVE",
"597 1690 CURVE SMOOTH",
"652 1690 OFFCURVE",
"683 1667 OFFCURVE",
"735 1623 CURVE SMOOTH",
"780 1583 OFFCURVE",
"808 1563 OFFCURVE",
"848 1563 CURVE SMOOTH",
"909 1563 OFFCURVE",
"943 1598 OFFCURVE",
"980 1650 CURVE",
"1019 1594 LINE",
"988 1521 OFFCURVE",
"925 1452 OFFCURVE",
"836 1452 CURVE SMOOTH",
"779 1452 OFFCURVE",
"746 1475 OFFCURVE",
"695 1520 CURVE",
"654 1559 OFFCURVE",
"626 1578 OFFCURVE",
"583 1578 CURVE SMOOTH",
"526 1578 OFFCURVE",
"485 1547 OFFCURVE",
"446 1491 CURVE"
);
},
{
closed = 1;
nodes = (
"233 1224 LINE",
"113 1240 LINE",
"120 1309 LINE",
"504 1309 LINE",
"497 1240 LINE",
"365 1222 LINE",
"271 522 LINE SMOOTH",
"258 413 OFFCURVE",
"242 243 OFFCURVE",
"333 138 CURVE SMOOTH",
"378 85 OFFCURVE",
"445 59 OFFCURVE",
"533 59 CURVE SMOOTH",
"753 59 OFFCURVE",
"875 214 OFFCURVE",
"914 539 CURVE SMOOTH",
"1004 1222 LINE",
"888 1239 LINE",
"895 1309 LINE",
"1238 1309 LINE",
"1232 1239 LINE",
"1119 1224 LINE",
"1029 539 LINE SMOOTH",
"994 271 OFFCURVE",
"909 113 OFFCURVE",
"770 39 CURVE SMOOTH",
"700 2 OFFCURVE",
"615 -17 OFFCURVE",
"514 -17 CURVE SMOOTH",
"353 -17 OFFCURVE",
"238 46 OFFCURVE",
"179 162 CURVE SMOOTH",
"119 277 OFFCURVE",
"127 417 OFFCURVE",
"138 510 CURVE SMOOTH"
);
}
);
width = 1185;
}
);
note = Utilde;
unicode = 0168;
},
{
glyphname = V;
layers = (
{
layerId = "4C84AE98-85C0-4DB9-B47D-A9DF131BEAEE";
name = "Light Italic";
paths = (
{
closed = 1;
nodes = (
"53 1239 LINE",
"59 1309 LINE",
"473 1309 LINE",
"466 1239 LINE",
"310 1223 LINE",
"436 386 LINE",
"470 114 LINE",
"575 386 LINE",
"944 1223 LINE",
"816 1240 LINE",
"822 1309 LINE",
"1162 1309 LINE",
"1155 1240 LINE",
"1057 1224 LINE",
"497 -9 LINE",
"382 -18 LINE",
"174 1223 LINE"
);
}
);
width = 1039;
}
);
note = V;
unicode = 0056;
},
{
glyphname = W;
layers = (
{
layerId = "4C84AE98-85C0-4DB9-B47D-A9DF131BEAEE";
name = "Light Italic";
paths = (
{
closed = 1;
nodes = (
"29 1239 LINE",
"37 1309 LINE",
"443 1309 LINE",
"436 1239 LINE",
"278 1226 LINE",
"389 374 LINE",
"425 116 LINE",
"497 322 LINE",
"800 1100 LINE",
"786 1225 LINE",
"668 1239 LINE",
"675 1309 LINE",
"1084 1309 LINE",
"1071 1239 LINE",
"917 1225 LINE",
"1003 374 LINE",
"1021 116 LINE",
"1108 342 LINE",
"1478 1222 LINE",
"1347 1239 LINE",
"1354 1309 LINE",
"1717 1309 LINE",
"1707 1239 LINE",
"1588 1222 LINE",
"1054 -9 LINE",
"922 -9 LINE",
"826 916 LINE",
"460 -9 LINE",
"329 -9 LINE",
"155 1222 LINE"
);
}
);
width = 1540;
}
);
note = W;
unicode = 0057;
},
{
glyphname = Wacute;
layers = (
{
layerId = "4C84AE98-85C0-4DB9-B47D-A9DF131BEAEE";
name = "Light Italic";
paths = (
{
closed = 1;
nodes = (
"1067 1720 LINE",
"1148 1639 LINE",
"1107 1556 OFFCURVE",
"966 1445 OFFCURVE",
"866 1388 CURVE",
"823 1420 LINE"
);
},
{
closed = 1;
nodes = (
"29 1239 LINE",
"37 1309 LINE",
"443 1309 LINE",
"436 1239 LINE",
"278 1226 LINE",
"389 374 LINE",
"425 116 LINE",
"497 322 LINE",
"800 1100 LINE",
"786 1225 LINE",
"668 1239 LINE",
"675 1309 LINE",
"1084 1309 LINE",
"1071 1239 LINE",
"917 1225 LINE",
"1003 374 LINE",
"1021 116 LINE",
"1108 342 LINE",
"1478 1222 LINE",
"1347 1239 LINE",
"1354 1309 LINE",
"1717 1309 LINE",
"1707 1239 LINE",
"1588 1222 LINE",
"1054 -9 LINE",
"922 -9 LINE",
"826 916 LINE",
"460 -9 LINE",
"329 -9 LINE",
"155 1222 LINE"
);
}
);
width = 1540;
}
);
note = Wacute;
unicode = 1E82;
},
{
glyphname = Wcircumflex;
layers = (
{
layerId = "4C84AE98-85C0-4DB9-B47D-A9DF131BEAEE";
name = "Light Italic";
paths = (
{
closed = 1;
nodes = (
"29 1239 LINE",
"37 1309 LINE",
"443 1309 LINE",
"436 1239 LINE",
"278 1226 LINE",
"389 374 LINE",
"425 116 LINE",
"497 322 LINE",
"800 1100 LINE",
"786 1225 LINE",
"668 1239 LINE",
"675 1309 LINE",
"1084 1309 LINE",
"1071 1239 LINE",
"917 1225 LINE",
"1003 374 LINE",
"1021 116 LINE",
"1108 342 LINE",
"1478 1222 LINE",
"1347 1239 LINE",
"1354 1309 LINE",
"1717 1309 LINE",
"1707 1239 LINE",
"1588 1222 LINE",
"1054 -9 LINE",
"922 -9 LINE",
"826 916 LINE",
"460 -9 LINE",
"329 -9 LINE",
"155 1222 LINE"
);
},
{
closed = 1;
nodes = (
"888 1720 LINE",
"1005 1720 LINE",
"1195 1439 LINE",
"1149 1398 LINE",
"941 1619 LINE",
"651 1400 LINE",
"610 1440 LINE"
);
}
);
width = 1540;
}
);
note = Wcircumflex;
unicode = 0174;
},
{
glyphname = Wdieresis;
layers = (
{
layerId = "4C84AE98-85C0-4DB9-B47D-A9DF131BEAEE";
name = "Light Italic";
paths = (
{
closed = 1;
nodes = (
"654 1617 OFFCURVE",
"675 1653 OFFCURVE",
"704 1673 CURVE SMOOTH",
"719 1683 OFFCURVE",
"734 1688 OFFCURVE",
"749 1688 CURVE SMOOTH",
"796 1688 OFFCURVE",
"827 1655 OFFCURVE",
"827 1607 CURVE SMOOTH",
"827 1568 OFFCURVE",
"808 1532 OFFCURVE",
"777 1513 CURVE SMOOTH",
"761 1503 OFFCURVE",
"744 1498 OFFCURVE",
"727 1498 CURVE SMOOTH",
"687 1498 OFFCURVE",
"654 1533 OFFCURVE",
"654 1580 CURVE SMOOTH"
);
},
{
closed = 1;
nodes = (
"1014 1620 OFFCURVE",
"1036 1654 OFFCURVE",
"1066 1674 CURVE",
"1081 1683 OFFCURVE",
"1095 1688 OFFCURVE",
"1110 1688 CURVE SMOOTH",
"1158 1688 OFFCURVE",
"1189 1655 OFFCURVE",
"1189 1608 CURVE SMOOTH",
"1189 1569 OFFCURVE",
"1169 1533 OFFCURVE",
"1138 1513 CURVE SMOOTH",
"1123 1503 OFFCURVE",
"1106 1498 OFFCURVE",
"1088 1498 CURVE SMOOTH",
"1045 1498 OFFCURVE",
"1014 1533 OFFCURVE",
"1014 1581 CURVE SMOOTH"
);
},
{
closed = 1;
nodes = (
"29 1239 LINE",
"37 1309 LINE",
"443 1309 LINE",
"436 1239 LINE",
"278 1226 LINE",
"389 374 LINE",
"425 116 LINE",
"497 322 LINE",
"800 1100 LINE",
"786 1225 LINE",
"668 1239 LINE",
"675 1309 LINE",
"1084 1309 LINE",
"1071 1239 LINE",
"917 1225 LINE",
"1003 374 LINE",
"1021 116 LINE",
"1108 342 LINE",
"1478 1222 LINE",
"1347 1239 LINE",
"1354 1309 LINE",
"1717 1309 LINE",
"1707 1239 LINE",
"1588 1222 LINE",
"1054 -9 LINE",
"922 -9 LINE",
"826 916 LINE",
"460 -9 LINE",
"329 -9 LINE",
"155 1222 LINE"
);
}
);
width = 1540;
}
);
note = Wdieresis;
unicode = 1E84;
},
{
glyphname = Wgrave;
layers = (
{
layerId = "4C84AE98-85C0-4DB9-B47D-A9DF131BEAEE";
name = "Light Italic";
paths = (
{
closed = 1;
nodes = (
"720 1720 LINE",
"954 1420 LINE",
"910 1388 LINE",
"849 1423 OFFCURVE",
"767 1485 OFFCURVE",
"702 1550 CURVE SMOOTH",
"669 1582 OFFCURVE",
"647 1612 OFFCURVE",
"634 1639 CURVE"
);
},
{
closed = 1;
nodes = (
"29 1239 LINE",
"37 1309 LINE",
"443 1309 LINE",
"436 1239 LINE",
"278 1226 LINE",
"389 374 LINE",
"425 116 LINE",
"497 322 LINE",
"800 1100 LINE",
"786 1225 LINE",
"668 1239 LINE",
"675 1309 LINE",
"1084 1309 LINE",
"1071 1239 LINE",
"917 1225 LINE",
"1003 374 LINE",
"1021 116 LINE",
"1108 342 LINE",
"1478 1222 LINE",
"1347 1239 LINE",
"1354 1309 LINE",
"1717 1309 LINE",
"1707 1239 LINE",
"1588 1222 LINE",
"1054 -9 LINE",
"922 -9 LINE",
"826 916 LINE",
"460 -9 LINE",
"329 -9 LINE",
"155 1222 LINE"
);
}
);
width = 1540;
}
);
note = Wgrave;
unicode = 1E80;
},
{
glyphname = X;
layers = (
{
layerId = "4C84AE98-85C0-4DB9-B47D-A9DF131BEAEE";
name = "Light Italic";
paths = (
{
closed = 1;
nodes = (
"71 80 LINE",
"507 662 LINE",
"243 1220 LINE",
"113 1239 LINE",
"120 1309 LINE",
"550 1309 LINE",
"543 1239 LINE",
"393 1224 LINE",
"593 748 LINE",
"924 1223 LINE",
"777 1239 LINE",
"784 1309 LINE",
"1182 1309 LINE",
"1176 1239 LINE",
"1052 1224 LINE",
"635 666 LINE",
"924 81 LINE",
"1068 60 LINE",
"1063 0 LINE",
"614 0 LINE",
"619 60 LINE",
"774 80 LINE",
"547 576 LINE",
"200 81 LINE",
"353 59 LINE",
"347 0 LINE",
"-54 0 LINE",
"-47 60 LINE"
);
}
);
width = 1112;
}
);
note = X;
unicode = 0058;
},
{
glyphname = Y;
layers = (
{
layerId = "4C84AE98-85C0-4DB9-B47D-A9DF131BEAEE";
name = "Light Italic";
paths = (
{
closed = 1;
nodes = (
"414 81 LINE",
"469 504 LINE",
"152 1223 LINE",
"51 1239 LINE",
"57 1309 LINE",
"466 1309 LINE",
"458 1239 LINE",
"298 1223 LINE",
"509 707 LINE",
"549 589 LINE",
"618 707 LINE",
"934 1223 LINE",
"798 1239 LINE",
"806 1309 LINE",
"1151 1309 LINE",
"1144 1239 LINE",
"1048 1224 LINE",
"592 504 LINE",
"537 81 LINE",
"727 60 LINE",
"721 0 LINE",
"207 0 LINE",
"213 60 LINE"
);
}
);
width = 1008;
}
);
note = Y;
unicode = 0059;
},
{
glyphname = Yacute;
layers = (
{
layerId = "4C84AE98-85C0-4DB9-B47D-A9DF131BEAEE";
name = "Light Italic";
paths = (
{
closed = 1;
nodes = (
"414 81 LINE",
"469 504 LINE",
"152 1223 LINE",
"51 1239 LINE",
"57 1309 LINE",
"466 1309 LINE",
"458 1239 LINE",
"298 1223 LINE",
"509 707 LINE",
"549 589 LINE",
"618 707 LINE",
"934 1223 LINE",
"798 1239 LINE",
"806 1309 LINE",
"1151 1309 LINE",
"1144 1239 LINE",
"1048 1224 LINE",
"592 504 LINE",
"537 81 LINE",
"727 60 LINE",
"721 0 LINE",
"207 0 LINE",
"213 60 LINE"
);
},
{
closed = 1;
nodes = (
"816 1720 LINE",
"897 1639 LINE",
"856 1556 OFFCURVE",
"715 1445 OFFCURVE",
"615 1388 CURVE",
"572 1420 LINE"
);
}
);
width = 1008;
}
);
note = Yacute;
unicode = 00DD;
},
{
glyphname = Ycircumflex;
layers = (
{
layerId = "4C84AE98-85C0-4DB9-B47D-A9DF131BEAEE";
name = "Light Italic";
paths = (
{
closed = 1;
nodes = (
"414 81 LINE",
"469 504 LINE",
"152 1223 LINE",
"51 1239 LINE",
"57 1309 LINE",
"466 1309 LINE",
"458 1239 LINE",
"298 1223 LINE",
"509 707 LINE",
"549 589 LINE",
"618 707 LINE",
"934 1223 LINE",
"798 1239 LINE",
"806 1309 LINE",
"1151 1309 LINE",
"1144 1239 LINE",
"1048 1224 LINE",
"592 504 LINE",
"537 81 LINE",
"727 60 LINE",
"721 0 LINE",
"207 0 LINE",
"213 60 LINE"
);
},
{
closed = 1;
nodes = (
"636 1720 LINE",
"753 1720 LINE",
"943 1439 LINE",
"897 1398 LINE",
"689 1619 LINE",
"399 1400 LINE",
"358 1440 LINE"
);
}
);
width = 1008;
}
);
note = Ycircumflex;
unicode = 0176;
},
{
glyphname = Ydieresis;
layers = (
{
layerId = "4C84AE98-85C0-4DB9-B47D-A9DF131BEAEE";
name = "Light Italic";
paths = (
{
closed = 1;
nodes = (
"414 81 LINE",
"469 504 LINE",
"152 1223 LINE",
"51 1239 LINE",
"57 1309 LINE",
"466 1309 LINE",
"458 1239 LINE",
"298 1223 LINE",
"509 707 LINE",
"549 589 LINE",
"618 707 LINE",
"934 1223 LINE",
"798 1239 LINE",
"806 1309 LINE",
"1151 1309 LINE",
"1144 1239 LINE",
"1048 1224 LINE",
"592 504 LINE",
"537 81 LINE",
"727 60 LINE",
"721 0 LINE",
"207 0 LINE",
"213 60 LINE"
);
},
{
closed = 1;
nodes = (
"403 1617 OFFCURVE",
"424 1653 OFFCURVE",
"453 1673 CURVE SMOOTH",
"468 1683 OFFCURVE",
"483 1688 OFFCURVE",
"498 1688 CURVE SMOOTH",
"545 1688 OFFCURVE",
"576 1655 OFFCURVE",
"576 1607 CURVE SMOOTH",
"576 1568 OFFCURVE",
"557 1532 OFFCURVE",
"526 1513 CURVE SMOOTH",
"510 1503 OFFCURVE",
"493 1498 OFFCURVE",
"476 1498 CURVE SMOOTH",
"436 1498 OFFCURVE",
"403 1533 OFFCURVE",
"403 1580 CURVE SMOOTH"
);
},
{
closed = 1;
nodes = (
"763 1620 OFFCURVE",
"785 1654 OFFCURVE",
"815 1674 CURVE",
"830 1683 OFFCURVE",
"844 1688 OFFCURVE",
"859 1688 CURVE SMOOTH",
"907 1688 OFFCURVE",
"938 1655 OFFCURVE",
"938 1608 CURVE SMOOTH",
"938 1569 OFFCURVE",
"918 1533 OFFCURVE",
"887 1513 CURVE SMOOTH",
"872 1503 OFFCURVE",
"855 1498 OFFCURVE",
"837 1498 CURVE SMOOTH",
"794 1498 OFFCURVE",
"763 1533 OFFCURVE",
"763 1581 CURVE SMOOTH"
);
}
);
width = 1008;
}
);
note = Ydieresis;
unicode = 0178;
},
{
glyphname = Ygrave;
layers = (
{
layerId = "4C84AE98-85C0-4DB9-B47D-A9DF131BEAEE";
name = "Light Italic";
paths = (
{
closed = 1;
nodes = (
"414 81 LINE",
"469 504 LINE",
"152 1223 LINE",
"51 1239 LINE",
"57 1309 LINE",
"466 1309 LINE",
"458 1239 LINE",
"298 1223 LINE",
"509 707 LINE",
"549 589 LINE",
"618 707 LINE",
"934 1223 LINE",
"798 1239 LINE",
"806 1309 LINE",
"1151 1309 LINE",
"1144 1239 LINE",
"1048 1224 LINE",
"592 504 LINE",
"537 81 LINE",
"727 60 LINE",
"721 0 LINE",
"207 0 LINE",
"213 60 LINE"
);
},
{
closed = 1;
nodes = (
"469 1720 LINE",
"703 1420 LINE",
"659 1388 LINE",
"598 1423 OFFCURVE",
"516 1485 OFFCURVE",
"451 1550 CURVE SMOOTH",
"418 1582 OFFCURVE",
"396 1612 OFFCURVE",
"383 1639 CURVE"
);
}
);
width = 1008;
}
);
note = Ygrave;
unicode = 1EF2;
},
{
glyphname = Z;
layers = (
{
layerId = "4C84AE98-85C0-4DB9-B47D-A9DF131BEAEE";
name = "Light Italic";
paths = (
{
closed = 1;
nodes = (
"731 1047 LINE",
"884 1230 LINE",
"314 1225 LINE",
"241 997 LINE",
"163 1013 LINE",
"211 1309 LINE",
"1017 1309 LINE",
"1035 1250 LINE",
"289 236 LINE",
"164 74 LINE",
"790 91 LINE",
"891 325 LINE",
"971 304 LINE",
"891 0 LINE",
"23 0 LINE",
"5 63 LINE"
);
}
);
width = 1029;
}
);
note = Z;
unicode = 005A;
},
{
glyphname = Zacute;
layers = (
{
layerId = "4C84AE98-85C0-4DB9-B47D-A9DF131BEAEE";
name = "Light Italic";
paths = (
{
closed = 1;
nodes = (
"731 1047 LINE",
"884 1230 LINE",
"314 1225 LINE",
"241 997 LINE",
"163 1013 LINE",
"211 1309 LINE",
"1017 1309 LINE",
"1035 1250 LINE",
"289 236 LINE",
"164 74 LINE",
"790 91 LINE",
"891 325 LINE",
"971 304 LINE",
"891 0 LINE",
"23 0 LINE",
"5 63 LINE"
);
},
{
closed = 1;
nodes = (
"798 1720 LINE",
"879 1639 LINE",
"838 1556 OFFCURVE",
"697 1445 OFFCURVE",
"597 1388 CURVE",
"554 1420 LINE"
);
}
);
width = 1029;
}
);
note = Zacute;
unicode = 0179;
},
{
glyphname = Zcaron;
layers = (
{
layerId = "4C84AE98-85C0-4DB9-B47D-A9DF131BEAEE";
name = "Light Italic";
paths = (
{
closed = 1;
nodes = (
"424 1720 LINE",
"625 1492 LINE",
"903 1720 LINE",
"945 1680 LINE",
"680 1395 LINE",
"565 1395 LINE",
"374 1680 LINE"
);
},
{
closed = 1;
nodes = (
"731 1047 LINE",
"884 1230 LINE",
"314 1225 LINE",
"241 997 LINE",
"163 1013 LINE",
"211 1309 LINE",
"1017 1309 LINE",
"1035 1250 LINE",
"289 236 LINE",
"164 74 LINE",
"790 91 LINE",
"891 325 LINE",
"971 304 LINE",
"891 0 LINE",
"23 0 LINE",
"5 63 LINE"
);
}
);
width = 1029;
}
);
note = Zcaron;
unicode = 017D;
},
{
glyphname = Zdotaccent;
layers = (
{
layerId = "4C84AE98-85C0-4DB9-B47D-A9DF131BEAEE";
name = "Light Italic";
paths = (
{
closed = 1;
nodes = (
"559 1584 OFFCURVE",
"581 1619 OFFCURVE",
"610 1639 CURVE",
"625 1648 OFFCURVE",
"640 1653 OFFCURVE",
"655 1653 CURVE SMOOTH",
"703 1653 OFFCURVE",
"735 1621 OFFCURVE",
"735 1574 CURVE SMOOTH",
"735 1535 OFFCURVE",
"715 1498 OFFCURVE",
"684 1478 CURVE SMOOTH",
"669 1468 OFFCURVE",
"652 1463 OFFCURVE",
"634 1463 CURVE SMOOTH",
"593 1463 OFFCURVE",
"559 1497 OFFCURVE",
"559 1545 CURVE SMOOTH"
);
},
{
closed = 1;
nodes = (
"731 1047 LINE",
"884 1230 LINE",
"314 1225 LINE",
"241 997 LINE",
"163 1013 LINE",
"211 1309 LINE",
"1017 1309 LINE",
"1035 1250 LINE",
"289 236 LINE",
"164 74 LINE",
"790 91 LINE",
"891 325 LINE",
"971 304 LINE",
"891 0 LINE",
"23 0 LINE",
"5 63 LINE"
);
}
);
width = 1029;
}
);
note = Zdotaccent;
unicode = 017B;
},
{
glyphname = uni0162;
layers = (
{
layerId = "4C84AE98-85C0-4DB9-B47D-A9DF131BEAEE";
name = "Light Italic";
paths = (
{
closed = 1;
nodes = (
"1112 1309 LINE",
"1060 924 LINE",
"987 924 LINE",
"1002 1220 LINE",
"674 1234 LINE",
"525 81 LINE",
"740 64 LINE",
"734 0 LINE",
"516 0 LINE",
"529 -32 OFFCURVE",
"536 -71 OFFCURVE",
"536 -117 CURVE SMOOTH",
"536 -244 OFFCURVE",
"493 -328 OFFCURVE",
"424 -368 CURVE SMOOTH",
"389 -389 OFFCURVE",
"350 -399 OFFCURVE",
"306 -399 CURVE SMOOTH",
"261 -399 OFFCURVE",
"214 -388 OFFCURVE",
"194 -375 CURVE",
"205 -272 LINE",
"220 -280 OFFCURVE",
"257 -286 OFFCURVE",
"292 -286 CURVE SMOOTH",
"397 -286 OFFCURVE",
"455 -203 OFFCURVE",
"455 -74 CURVE SMOOTH",
"455 -47 OFFCURVE",
"452 -23 OFFCURVE",
"445 0 CURVE",
"181 0 LINE",
"186 64 LINE",
"396 81 LINE",
"544 1234 LINE",
"219 1220 LINE",
"148 926 LINE",
"72 924 LINE",
"134 1309 LINE"
);
}
);
width = 1053;
}
);
note = uni0162;
unicode = 0162;
},
{
glyphname = uni01C4;
layers = (
{
layerId = "4C84AE98-85C0-4DB9-B47D-A9DF131BEAEE";
name = "Light Italic";
paths = (
{
closed = 1;
nodes = (
"157 81 LINE",
"302 1223 LINE",
"185 1239 LINE",
"193 1309 LINE",
"420 1309 LINE SMOOTH",
"445 1309 OFFCURVE",
"484 1311 OFFCURVE",
"535 1316 CURVE SMOOTH",
"592 1321 OFFCURVE",
"637 1323 OFFCURVE",
"668 1323 CURVE SMOOTH",
"1009 1323 OFFCURVE",
"1163 1121 OFFCURVE",
"1163 778 CURVE SMOOTH",
"1163 481 OFFCURVE",
"1044 224 OFFCURVE",
"841 85 CURVE SMOOTH",
"739 16 OFFCURVE",
"623 -17 OFFCURVE",
"493 -14 CURVE SMOOTH",
"456 -13 OFFCURVE",
"424 -11 OFFCURVE",
"396 -8 CURVE SMOOTH",
"356 -4 OFFCURVE",
"262 0 OFFCURVE",
"215 0 CURVE SMOOTH",
"22 0 LINE",
"28 59 LINE"
);
},
{
closed = 1;
nodes = (
"288 91 LINE",
"357 79 OFFCURVE",
"469 68 OFFCURVE",
"529 68 CURVE",
"748 80 OFFCURVE",
"903 228 OFFCURVE",
"977 441 CURVE SMOOTH",
"1051 654 OFFCURVE",
"1042 913 OFFCURVE",
"987 1047 CURVE SMOOTH",
"932 1181 OFFCURVE",
"821 1242 OFFCURVE",
"630 1242 CURVE SMOOTH",
"574 1242 OFFCURVE",
"494 1234 OFFCURVE",
"431 1226 CURVE"
);
},
{
closed = 1;
nodes = (
"1953 1047 LINE",
"2106 1230 LINE",
"1536 1225 LINE",
"1463 997 LINE",
"1385 1013 LINE",
"1433 1309 LINE",
"2239 1309 LINE",
"2257 1250 LINE",
"1511 236 LINE",
"1386 74 LINE",
"2012 91 LINE",
"2113 325 LINE",
"2193 304 LINE",
"2113 0 LINE",
"1245 0 LINE",
"1227 63 LINE"
);
},
{
closed = 1;
nodes = (
"1647 1720 LINE",
"1848 1492 LINE",
"2126 1720 LINE",
"2168 1680 LINE",
"1903 1395 LINE",
"1788 1395 LINE",
"1597 1680 LINE"
);
}
);
width = 2251;
}
);
note = uni01C4;
unicode = 01C4;
},
{
glyphname = uni01C5;
layers = (
{
layerId = "4C84AE98-85C0-4DB9-B47D-A9DF131BEAEE";
name = "Light Italic";
paths = (
{
closed = 1;
nodes = (
"157 81 LINE",
"302 1223 LINE",
"185 1239 LINE",
"193 1309 LINE",
"420 1309 LINE SMOOTH",
"445 1309 OFFCURVE",
"484 1311 OFFCURVE",
"535 1316 CURVE SMOOTH",
"592 1321 OFFCURVE",
"637 1323 OFFCURVE",
"668 1323 CURVE SMOOTH",
"1009 1323 OFFCURVE",
"1163 1121 OFFCURVE",
"1163 778 CURVE SMOOTH",
"1163 481 OFFCURVE",
"1044 224 OFFCURVE",
"841 85 CURVE SMOOTH",
"739 16 OFFCURVE",
"623 -17 OFFCURVE",
"493 -14 CURVE SMOOTH",
"456 -13 OFFCURVE",
"424 -11 OFFCURVE",
"396 -8 CURVE SMOOTH",
"356 -4 OFFCURVE",
"262 0 OFFCURVE",
"215 0 CURVE SMOOTH",
"22 0 LINE",
"28 59 LINE"
);
},
{
closed = 1;
nodes = (
"288 91 LINE",
"357 79 OFFCURVE",
"469 68 OFFCURVE",
"529 68 CURVE",
"748 80 OFFCURVE",
"903 228 OFFCURVE",
"977 441 CURVE SMOOTH",
"1051 654 OFFCURVE",
"1042 913 OFFCURVE",
"987 1047 CURVE SMOOTH",
"932 1181 OFFCURVE",
"821 1242 OFFCURVE",
"630 1242 CURVE SMOOTH",
"574 1242 OFFCURVE",
"494 1234 OFFCURVE",
"431 1226 CURVE"
);
},
{
closed = 1;
nodes = (
"1432 991 OFFCURVE",
"1453 998 OFFCURVE",
"1493 998 CURVE SMOOTH",
"1539 998 OFFCURVE",
"1627 993 OFFCURVE",
"1758 984 CURVE SMOOTH",
"1871 975 OFFCURVE",
"1946 971 OFFCURVE",
"1985 971 CURVE SMOOTH",
"2016 971 OFFCURVE",
"2040 976 OFFCURVE",
"2067 996 CURVE",
"2066 992 LINE",
"2104 956 LINE",
"1691 413 LINE",
"1414 108 LINE",
"1429 108 OFFCURVE",
"1446 108 OFFCURVE",
"1464 108 CURVE SMOOTH",
"1481 108 OFFCURVE",
"1499 108 OFFCURVE",
"1518 107 CURVE SMOOTH",
"1673 103 OFFCURVE",
"1769 101 OFFCURVE",
"1807 101 CURVE SMOOTH",
"1895 101 OFFCURVE",
"1940 159 OFFCURVE",
"1957 271 CURVE",
"2013 271 LINE",
"2005 147 OFFCURVE",
"1979 29 OFFCURVE",
"1935 -2 CURVE",
"1917 -13 OFFCURVE",
"1888 -19 OFFCURVE",
"1849 -19 CURVE SMOOTH",
"1790 -19 OFFCURVE",
"1680 -11 OFFCURVE",
"1581 -3 CURVE SMOOTH",
"1496 5 OFFCURVE",
"1406 11 OFFCURVE",
"1363 11 CURVE SMOOTH",
"1339 11 OFFCURVE",
"1309 4 OFFCURVE",
"1286 -12 CURVE",
"1279 -19 LINE",
"1234 24 LINE",
"1810 725 LINE",
"1938 869 LINE",
"1852 870 LINE SMOOTH",
"1715 874 OFFCURVE",
"1620 876 OFFCURVE",
"1565 876 CURVE SMOOTH",
"1530 876 OFFCURVE",
"1512 875 OFFCURVE",
"1509 874 CURVE",
"1453 870 OFFCURVE",
"1412 790 OFFCURVE",
"1407 699 CURVE",
"1350 699 LINE",
"1349 755 OFFCURVE",
"1358 845 OFFCURVE",
"1378 913 CURVE SMOOTH",
"1388 947 OFFCURVE",
"1401 969 OFFCURVE",
"1416 980 CURVE SMOOTH"
);
},
{
closed = 1;
nodes = (
"1540 1419 LINE",
"1752 1184 LINE",
"2028 1419 LINE",
"2076 1379 LINE",
"1801 1086 LINE",
"1685 1086 LINE",
"1489 1379 LINE"
);
}
);
width = 2111;
}
);
note = uni01C5;
unicode = 01C5;
},
{
glyphname = uni01C7;
layers = (
{
layerId = "4C84AE98-85C0-4DB9-B47D-A9DF131BEAEE";
name = "Light Italic";
paths = (
{
closed = 1;
nodes = (
"158 81 LINE",
"302 1223 LINE",
"185 1239 LINE",
"193 1309 LINE",
"589 1309 LINE",
"582 1239 LINE",
"431 1223 LINE",
"287 81 LINE",
"756 89 LINE",
"863 386 LINE",
"941 371 LINE",
"858 0 LINE",
"24 0 LINE",
"29 60 LINE"
);
},
{
closed = 1;
nodes = (
"1191 1239 LINE",
"1200 1309 LINE",
"1616 1309 LINE",
"1609 1239 LINE",
"1460 1224 LINE",
"1459 1211 OFFCURVE",
"1457 1202 OFFCURVE",
"1456 1195 CURVE",
"1417 831 OFFCURVE",
"1387 561 OFFCURVE",
"1366 384 CURVE SMOOTH",
"1324 30 OFFCURVE",
"1308 -69 OFFCURVE",
"1156 -184 CURVE SMOOTH",
"1080 -242 OFFCURVE",
"993 -280 OFFCURVE",
"895 -297 CURVE",
"871 -236 LINE",
"974 -209 OFFCURVE",
"1068 -142 OFFCURVE",
"1131 -56 CURVE SMOOTH",
"1162 -13 OFFCURVE",
"1183 31 OFFCURVE",
"1193 77 CURVE SMOOTH",
"1232 257 OFFCURVE",
"1259 494 OFFCURVE",
"1300 899 CURVE SMOOTH",
"1320 1086 OFFCURVE",
"1332 1195 OFFCURVE",
"1335 1224 CURVE"
);
}
);
width = 1611;
}
);
note = uni01C7;
unicode = 01C7;
},
{
glyphname = uni01C8;
layers = (
{
layerId = "4C84AE98-85C0-4DB9-B47D-A9DF131BEAEE";
name = "Light Italic";
paths = (
{
closed = 1;
nodes = (
"158 81 LINE",
"302 1223 LINE",
"185 1239 LINE",
"193 1309 LINE",
"589 1309 LINE",
"582 1239 LINE",
"431 1223 LINE",
"287 81 LINE",
"756 89 LINE",
"863 386 LINE",
"941 371 LINE",
"858 0 LINE",
"24 0 LINE",
"29 60 LINE"
);
},
{
closed = 1;
nodes = (
"846 -357 LINE",
"861 -365 OFFCURVE",
"897 -372 OFFCURVE",
"921 -372 CURVE SMOOTH",
"1081 -372 OFFCURVE",
"1153 -209 OFFCURVE",
"1184 50 CURVE SMOOTH",
"1277 870 LINE",
"1157 905 LINE",
"1168 961 LINE",
"1388 997 LINE",
"1422 979 LINE",
"1307 2 LINE SMOOTH",
"1272 -291 OFFCURVE",
"1142 -445 OFFCURVE",
"942 -445 CURVE SMOOTH",
"886 -445 OFFCURVE",
"839 -434 OFFCURVE",
"822 -414 CURVE"
);
},
{
closed = 1;
nodes = (
"1307 1327 OFFCURVE",
"1329 1361 OFFCURVE",
"1359 1381 CURVE",
"1374 1390 OFFCURVE",
"1388 1395 OFFCURVE",
"1403 1395 CURVE SMOOTH",
"1451 1395 OFFCURVE",
"1482 1362 OFFCURVE",
"1482 1317 CURVE SMOOTH",
"1482 1277 OFFCURVE",
"1462 1240 OFFCURVE",
"1432 1220 CURVE SMOOTH",
"1417 1210 OFFCURVE",
"1400 1205 OFFCURVE",
"1382 1205 CURVE SMOOTH",
"1341 1205 OFFCURVE",
"1307 1240 OFFCURVE",
"1307 1287 CURVE SMOOTH"
);
}
);
width = 1560;
}
);
note = uni01C8;
unicode = 01C8;
},
{
glyphname = uni01CA;
layers = (
{
layerId = "4C84AE98-85C0-4DB9-B47D-A9DF131BEAEE";
name = "Light Italic";
paths = (
{
closed = 1;
nodes = (
"152 79 LINE",
"301 1223 LINE",
"175 1239 LINE",
"187 1309 LINE",
"440 1309 LINE",
"885 322 LINE",
"953 126 LINE",
"1083 1224 LINE",
"944 1239 LINE",
"953 1309 LINE",
"1325 1309 LINE",
"1318 1239 LINE",
"1186 1223 LINE",
"1018 0 LINE",
"894 0 LINE",
"452 979 LINE",
"384 1176 LINE",
"262 81 LINE",
"409 60 LINE",
"403 0 LINE",
"26 0 LINE",
"31 59 LINE"
);
},
{
closed = 1;
nodes = (
"1486 1239 LINE",
"1495 1309 LINE",
"1911 1309 LINE",
"1904 1239 LINE",
"1755 1224 LINE",
"1754 1211 OFFCURVE",
"1752 1202 OFFCURVE",
"1751 1195 CURVE",
"1712 831 OFFCURVE",
"1682 561 OFFCURVE",
"1661 384 CURVE SMOOTH",
"1619 30 OFFCURVE",
"1603 -69 OFFCURVE",
"1451 -184 CURVE SMOOTH",
"1375 -242 OFFCURVE",
"1288 -280 OFFCURVE",
"1190 -297 CURVE",
"1166 -236 LINE",
"1269 -209 OFFCURVE",
"1363 -142 OFFCURVE",
"1426 -56 CURVE SMOOTH",
"1457 -13 OFFCURVE",
"1478 31 OFFCURVE",
"1488 77 CURVE SMOOTH",
"1527 257 OFFCURVE",
"1554 494 OFFCURVE",
"1595 899 CURVE SMOOTH",
"1615 1086 OFFCURVE",
"1627 1195 OFFCURVE",
"1630 1224 CURVE"
);
}
);
width = 1905;
}
);
note = uni01CA;
unicode = 01CA;
},
{
glyphname = uni01CB;
layers = (
{
layerId = "4C84AE98-85C0-4DB9-B47D-A9DF131BEAEE";
name = "Light Italic";
paths = (
{
closed = 1;
nodes = (
"152 79 LINE",
"301 1223 LINE",
"175 1239 LINE",
"187 1309 LINE",
"440 1309 LINE",
"885 322 LINE",
"953 126 LINE",
"1083 1224 LINE",
"944 1239 LINE",
"953 1309 LINE",
"1325 1309 LINE",
"1318 1239 LINE",
"1186 1223 LINE",
"1018 0 LINE",
"894 0 LINE",
"452 979 LINE",
"384 1176 LINE",
"262 81 LINE",
"409 60 LINE",
"403 0 LINE",
"26 0 LINE",
"31 59 LINE"
);
},
{
closed = 1;
nodes = (
"1141 -357 LINE",
"1156 -365 OFFCURVE",
"1192 -372 OFFCURVE",
"1216 -372 CURVE SMOOTH",
"1376 -372 OFFCURVE",
"1448 -209 OFFCURVE",
"1479 50 CURVE SMOOTH",
"1572 870 LINE",
"1452 905 LINE",
"1463 961 LINE",
"1683 997 LINE",
"1717 979 LINE",
"1602 2 LINE SMOOTH",
"1567 -291 OFFCURVE",
"1437 -445 OFFCURVE",
"1237 -445 CURVE SMOOTH",
"1181 -445 OFFCURVE",
"1134 -434 OFFCURVE",
"1117 -414 CURVE"
);
},
{
closed = 1;
nodes = (
"1601 1327 OFFCURVE",
"1623 1361 OFFCURVE",
"1653 1381 CURVE",
"1668 1390 OFFCURVE",
"1682 1395 OFFCURVE",
"1697 1395 CURVE SMOOTH",
"1745 1395 OFFCURVE",
"1776 1362 OFFCURVE",
"1776 1317 CURVE SMOOTH",
"1776 1277 OFFCURVE",
"1756 1240 OFFCURVE",
"1726 1220 CURVE SMOOTH",
"1711 1210 OFFCURVE",
"1694 1205 OFFCURVE",
"1676 1205 CURVE SMOOTH",
"1635 1205 OFFCURVE",
"1601 1240 OFFCURVE",
"1601 1287 CURVE SMOOTH"
);
}
);
width = 1855;
}
);
note = uni01CB;
unicode = 01CB;
},
{
glyphname = uni01F1;
layers = (
{
layerId = "4C84AE98-85C0-4DB9-B47D-A9DF131BEAEE";
name = "Light Italic";
paths = (
{
closed = 1;
nodes = (
"157 81 LINE",
"302 1223 LINE",
"185 1239 LINE",
"193 1309 LINE",
"420 1309 LINE SMOOTH",
"445 1309 OFFCURVE",
"484 1311 OFFCURVE",
"535 1316 CURVE SMOOTH",
"592 1321 OFFCURVE",
"637 1323 OFFCURVE",
"668 1323 CURVE SMOOTH",
"1009 1323 OFFCURVE",
"1163 1121 OFFCURVE",
"1163 778 CURVE SMOOTH",
"1163 481 OFFCURVE",
"1044 224 OFFCURVE",
"841 85 CURVE SMOOTH",
"739 16 OFFCURVE",
"623 -17 OFFCURVE",
"493 -14 CURVE SMOOTH",
"456 -13 OFFCURVE",
"424 -11 OFFCURVE",
"396 -8 CURVE SMOOTH",
"356 -4 OFFCURVE",
"262 0 OFFCURVE",
"215 0 CURVE SMOOTH",
"22 0 LINE",
"28 59 LINE"
);
},
{
closed = 1;
nodes = (
"288 91 LINE",
"357 79 OFFCURVE",
"469 68 OFFCURVE",
"529 68 CURVE",
"748 80 OFFCURVE",
"903 228 OFFCURVE",
"977 441 CURVE SMOOTH",
"1051 654 OFFCURVE",
"1042 913 OFFCURVE",
"987 1047 CURVE SMOOTH",
"932 1181 OFFCURVE",
"821 1242 OFFCURVE",
"630 1242 CURVE SMOOTH",
"574 1242 OFFCURVE",
"494 1234 OFFCURVE",
"431 1226 CURVE"
);
},
{
closed = 1;
nodes = (
"1953 1047 LINE",
"2106 1230 LINE",
"1536 1225 LINE",
"1463 997 LINE",
"1385 1013 LINE",
"1433 1309 LINE",
"2239 1309 LINE",
"2257 1250 LINE",
"1511 236 LINE",
"1386 74 LINE",
"2012 91 LINE",
"2113 325 LINE",
"2193 304 LINE",
"2113 0 LINE",
"1245 0 LINE",
"1227 63 LINE"
);
}
);
width = 2251;
}
);
note = uni01F1;
unicode = 01F1;
},
{
glyphname = uni01F2;
layers = (
{
layerId = "4C84AE98-85C0-4DB9-B47D-A9DF131BEAEE";
name = "Light Italic";
paths = (
{
closed = 1;
nodes = (
"157 81 LINE",
"302 1223 LINE",
"185 1239 LINE",
"193 1309 LINE",
"420 1309 LINE SMOOTH",
"445 1309 OFFCURVE",
"484 1311 OFFCURVE",
"535 1316 CURVE SMOOTH",
"592 1321 OFFCURVE",
"637 1323 OFFCURVE",
"668 1323 CURVE SMOOTH",
"1009 1323 OFFCURVE",
"1163 1121 OFFCURVE",
"1163 778 CURVE SMOOTH",
"1163 481 OFFCURVE",
"1044 224 OFFCURVE",
"841 85 CURVE SMOOTH",
"739 16 OFFCURVE",
"623 -17 OFFCURVE",
"493 -14 CURVE SMOOTH",
"456 -13 OFFCURVE",
"424 -11 OFFCURVE",
"396 -8 CURVE SMOOTH",
"356 -4 OFFCURVE",
"262 0 OFFCURVE",
"215 0 CURVE SMOOTH",
"22 0 LINE",
"28 59 LINE"
);
},
{
closed = 1;
nodes = (
"288 91 LINE",
"357 79 OFFCURVE",
"469 68 OFFCURVE",
"529 68 CURVE",
"748 80 OFFCURVE",
"903 228 OFFCURVE",
"977 441 CURVE SMOOTH",
"1051 654 OFFCURVE",
"1042 913 OFFCURVE",
"987 1047 CURVE SMOOTH",
"932 1181 OFFCURVE",
"821 1242 OFFCURVE",
"630 1242 CURVE SMOOTH",
"574 1242 OFFCURVE",
"494 1234 OFFCURVE",
"431 1226 CURVE"
);
},
{
closed = 1;
nodes = (
"1432 991 OFFCURVE",
"1453 998 OFFCURVE",
"1493 998 CURVE SMOOTH",
"1539 998 OFFCURVE",
"1627 993 OFFCURVE",
"1758 984 CURVE SMOOTH",
"1871 975 OFFCURVE",
"1946 971 OFFCURVE",
"1985 971 CURVE SMOOTH",
"2016 971 OFFCURVE",
"2040 976 OFFCURVE",
"2067 996 CURVE",
"2066 992 LINE",
"2104 956 LINE",
"1691 413 LINE",
"1414 108 LINE",
"1429 108 OFFCURVE",
"1446 108 OFFCURVE",
"1464 108 CURVE SMOOTH",
"1481 108 OFFCURVE",
"1499 108 OFFCURVE",
"1518 107 CURVE SMOOTH",
"1673 103 OFFCURVE",
"1769 101 OFFCURVE",
"1807 101 CURVE SMOOTH",
"1895 101 OFFCURVE",
"1940 159 OFFCURVE",
"1957 271 CURVE",
"2013 271 LINE",
"2005 147 OFFCURVE",
"1979 29 OFFCURVE",
"1935 -2 CURVE",
"1917 -13 OFFCURVE",
"1888 -19 OFFCURVE",
"1849 -19 CURVE SMOOTH",
"1790 -19 OFFCURVE",
"1680 -11 OFFCURVE",
"1581 -3 CURVE SMOOTH",
"1496 5 OFFCURVE",
"1406 11 OFFCURVE",
"1363 11 CURVE SMOOTH",
"1339 11 OFFCURVE",
"1309 4 OFFCURVE",
"1286 -12 CURVE",
"1279 -19 LINE",
"1234 24 LINE",
"1810 725 LINE",
"1938 869 LINE",
"1852 870 LINE SMOOTH",
"1715 874 OFFCURVE",
"1620 876 OFFCURVE",
"1565 876 CURVE SMOOTH",
"1530 876 OFFCURVE",
"1512 875 OFFCURVE",
"1509 874 CURVE",
"1453 870 OFFCURVE",
"1412 790 OFFCURVE",
"1407 699 CURVE",
"1350 699 LINE",
"1349 755 OFFCURVE",
"1358 845 OFFCURVE",
"1378 913 CURVE SMOOTH",
"1388 947 OFFCURVE",
"1401 969 OFFCURVE",
"1416 980 CURVE SMOOTH"
);
}
);
width = 2111;
}
);
note = uni01F2;
unicode = 01F2;
},
{
glyphname = uni01F4;
layers = (
{
layerId = "4C84AE98-85C0-4DB9-B47D-A9DF131BEAEE";
name = "Light Italic";
paths = (
{
closed = 1;
nodes = (
"873 1323 OFFCURVE",
"970 1302 OFFCURVE",
"1065 1275 CURVE SMOOTH",
"1097 1265 LINE",
"1048 1010 LINE",
"965 1010 LINE",
"961 1183 LINE",
"908 1220 OFFCURVE",
"841 1241 OFFCURVE",
"705 1241 CURVE SMOOTH",
"501 1241 OFFCURVE",
"353 1089 OFFCURVE",
"279 881 CURVE SMOOTH",
"242 776 OFFCURVE",
"223 671 OFFCURVE",
"223 564 CURVE SMOOTH",
"223 393 OFFCURVE",
"269 234 OFFCURVE",
"370 138 CURVE SMOOTH",
"420 90 OFFCURVE",
"484 66 OFFCURVE",
"561 66 CURVE SMOOTH",
"669 66 OFFCURVE",
"797 98 OFFCURVE",
"857 153 CURVE",
"911 530 LINE",
"669 542 LINE",
"678 622 LINE",
"1056 622 LINE",
"980 81 LINE",
"961 79 OFFCURVE",
"935 73 OFFCURVE",
"900 62 CURVE",
"898 61 OFFCURVE",
"888 57 OFFCURVE",
"870 52 CURVE SMOOTH",
"775 24 OFFCURVE",
"730 10 OFFCURVE",
"647 -4 CURVE SMOOTH",
"606 -11 OFFCURVE",
"564 -15 OFFCURVE",
"523 -15 CURVE SMOOTH",
"324 -15 OFFCURVE",
"193 107 OFFCURVE",
"133 279 CURVE SMOOTH",
"102 365 OFFCURVE",
"87 456 OFFCURVE",
"87 553 CURVE SMOOTH",
"87 856 OFFCURVE",
"213 1099 OFFCURVE",
"406 1227 CURVE SMOOTH",
"503 1291 OFFCURVE",
"607 1323 OFFCURVE",
"720 1323 CURVE SMOOTH"
);
},
{
closed = 1;
nodes = (
"888 1720 LINE",
"969 1639 LINE",
"928 1556 OFFCURVE",
"787 1445 OFFCURVE",
"687 1388 CURVE",
"644 1420 LINE"
);
}
);
width = 1154;
}
);
note = uni01F4;
unicode = 01F4;
},
{
glyphname = uni021A;
layers = (
{
layerId = "4C84AE98-85C0-4DB9-B47D-A9DF131BEAEE";
name = "Light Italic";
paths = (
{
closed = 1;
nodes = (
"341 -436 LINE",
"386 -404 OFFCURVE",
"421 -338 OFFCURVE",
"421 -270 CURVE SMOOTH",
"421 -222 OFFCURVE",
"395 -170 OFFCURVE",
"360 -157 CURVE",
"360 -114 LINE",
"444 -45 LINE",
"505 -64 OFFCURVE",
"540 -137 OFFCURVE",
"540 -220 CURVE SMOOTH",
"540 -308 OFFCURVE",
"503 -386 OFFCURVE",
"456 -435 CURVE SMOOTH",
"433 -460 OFFCURVE",
"411 -475 OFFCURVE",
"392 -482 CURVE",
"341 -453 LINE"
);
},
{
closed = 1;
nodes = (
"396 81 LINE",
"544 1234 LINE",
"219 1220 LINE",
"148 926 LINE",
"72 924 LINE",
"134 1309 LINE",
"1112 1309 LINE",
"1060 924 LINE",
"987 924 LINE",
"1002 1220 LINE",
"674 1234 LINE",
"525 81 LINE",
"740 64 LINE",
"734 0 LINE",
"181 0 LINE",
"186 64 LINE"
);
}
);
width = 1053;
}
);
note = uni021A;
unicode = 021A;
},
{
glyphname = uni1E02;
layers = (
{
layerId = "4C84AE98-85C0-4DB9-B47D-A9DF131BEAEE";
name = "Light Italic";
paths = (
{
closed = 1;
nodes = (
"522 1584 OFFCURVE",
"544 1619 OFFCURVE",
"573 1639 CURVE",
"588 1648 OFFCURVE",
"603 1653 OFFCURVE",
"618 1653 CURVE SMOOTH",
"666 1653 OFFCURVE",
"698 1621 OFFCURVE",
"698 1574 CURVE SMOOTH",
"698 1535 OFFCURVE",
"678 1498 OFFCURVE",
"647 1478 CURVE SMOOTH",
"632 1468 OFFCURVE",
"615 1463 OFFCURVE",
"597 1463 CURVE SMOOTH",
"556 1463 OFFCURVE",
"522 1497 OFFCURVE",
"522 1545 CURVE SMOOTH"
);
},
{
closed = 1;
nodes = (
"153 81 LINE",
"297 1223 LINE",
"180 1239 LINE",
"188 1309 LINE",
"393 1309 LINE",
"415 1310 OFFCURVE",
"450 1312 OFFCURVE",
"497 1315 CURVE SMOOTH",
"557 1320 OFFCURVE",
"603 1322 OFFCURVE",
"634 1322 CURVE SMOOTH",
"803 1322 OFFCURVE",
"919 1269 OFFCURVE",
"973 1186 CURVE SMOOTH",
"1027 1103 OFFCURVE",
"1042 941 OFFCURVE",
"946 821 CURVE SMOOTH",
"898 760 OFFCURVE",
"831 718 OFFCURVE",
"744 693 CURVE",
"841 681 OFFCURVE",
"926 630 OFFCURVE",
"973 549 CURVE SMOOTH",
"996 508 OFFCURVE",
"1008 463 OFFCURVE",
"1008 413 CURVE SMOOTH",
"1008 218 OFFCURVE",
"896 91 OFFCURVE",
"724 32 CURVE SMOOTH",
"637 3 OFFCURVE",
"541 -12 OFFCURVE",
"434 -12 CURVE SMOOTH",
"399 -12 OFFCURVE",
"334 -7 OFFCURVE",
"314 -6 CURVE",
"267 -2 OFFCURVE",
"231 0 OFFCURVE",
"204 0 CURVE SMOOTH",
"18 0 LINE",
"24 59 LINE"
);
},
{
closed = 1;
nodes = (
"362 722 LINE",
"376 722 OFFCURVE",
"398 722 OFFCURVE",
"428 722 CURVE SMOOTH",
"566 722 LINE SMOOTH",
"689 722 OFFCURVE",
"789 766 OFFCURVE",
"845 857 CURVE SMOOTH",
"873 902 OFFCURVE",
"887 958 OFFCURVE",
"887 1025 CURVE SMOOTH",
"887 1170 OFFCURVE",
"803 1241 OFFCURVE",
"604 1241 CURVE SMOOTH",
"564 1241 OFFCURVE",
"470 1236 OFFCURVE",
"425 1231 CURVE"
);
},
{
closed = 1;
nodes = (
"283 89 LINE",
"312 78 OFFCURVE",
"414 72 OFFCURVE",
"463 72 CURVE SMOOTH",
"711 72 OFFCURVE",
"870 171 OFFCURVE",
"870 399 CURVE SMOOTH",
"870 556 OFFCURVE",
"772 635 OFFCURVE",
"591 635 CURVE SMOOTH",
"481 635 OFFCURVE",
"401 633 OFFCURVE",
"350 630 CURVE"
);
}
);
width = 1093;
}
);
note = uni1E02;
unicode = 1E02;
},
{
glyphname = uni1E0A;
layers = (
{
layerId = "4C84AE98-85C0-4DB9-B47D-A9DF131BEAEE";
name = "Light Italic";
paths = (
{
closed = 1;
nodes = (
"609 1584 OFFCURVE",
"631 1619 OFFCURVE",
"660 1639 CURVE",
"675 1648 OFFCURVE",
"690 1653 OFFCURVE",
"705 1653 CURVE SMOOTH",
"753 1653 OFFCURVE",
"785 1621 OFFCURVE",
"785 1574 CURVE SMOOTH",
"785 1535 OFFCURVE",
"765 1498 OFFCURVE",
"734 1478 CURVE SMOOTH",
"719 1468 OFFCURVE",
"702 1463 OFFCURVE",
"684 1463 CURVE SMOOTH",
"643 1463 OFFCURVE",
"609 1497 OFFCURVE",
"609 1545 CURVE SMOOTH"
);
},
{
closed = 1;
nodes = (
"151 81 LINE",
"296 1223 LINE",
"179 1239 LINE",
"187 1309 LINE",
"414 1309 LINE SMOOTH",
"439 1309 OFFCURVE",
"478 1311 OFFCURVE",
"529 1316 CURVE SMOOTH",
"586 1321 OFFCURVE",
"631 1323 OFFCURVE",
"662 1323 CURVE SMOOTH",
"1003 1323 OFFCURVE",
"1157 1121 OFFCURVE",
"1157 778 CURVE SMOOTH",
"1157 481 OFFCURVE",
"1038 224 OFFCURVE",
"835 85 CURVE SMOOTH",
"733 16 OFFCURVE",
"617 -17 OFFCURVE",
"487 -14 CURVE SMOOTH",
"450 -13 OFFCURVE",
"418 -11 OFFCURVE",
"390 -8 CURVE SMOOTH",
"350 -4 OFFCURVE",
"256 0 OFFCURVE",
"209 0 CURVE SMOOTH",
"16 0 LINE",
"22 59 LINE"
);
},
{
closed = 1;
nodes = (
"282 91 LINE",
"351 79 OFFCURVE",
"463 68 OFFCURVE",
"523 68 CURVE",
"742 80 OFFCURVE",
"897 228 OFFCURVE",
"971 441 CURVE SMOOTH",
"1045 654 OFFCURVE",
"1036 913 OFFCURVE",
"981 1047 CURVE SMOOTH",
"926 1181 OFFCURVE",
"815 1242 OFFCURVE",
"624 1242 CURVE SMOOTH",
"568 1242 OFFCURVE",
"488 1234 OFFCURVE",
"425 1226 CURVE"
);
}
);
width = 1221;
}
);
note = uni1E0A;
unicode = 1E0A;
},
{
glyphname = uni1E1E;
layers = (
{
layerId = "4C84AE98-85C0-4DB9-B47D-A9DF131BEAEE";
name = "Light Italic";
paths = (
{
closed = 1;
nodes = (
"567 1584 OFFCURVE",
"589 1619 OFFCURVE",
"618 1639 CURVE",
"633 1648 OFFCURVE",
"648 1653 OFFCURVE",
"663 1653 CURVE SMOOTH",
"711 1653 OFFCURVE",
"743 1621 OFFCURVE",
"743 1574 CURVE SMOOTH",
"743 1535 OFFCURVE",
"723 1498 OFFCURVE",
"692 1478 CURVE SMOOTH",
"677 1468 OFFCURVE",
"660 1463 OFFCURVE",
"642 1463 CURVE SMOOTH",
"601 1463 OFFCURVE",
"567 1497 OFFCURVE",
"567 1545 CURVE SMOOTH"
);
},
{
closed = 1;
nodes = (
"158 81 LINE",
"301 1223 LINE",
"184 1239 LINE",
"192 1309 LINE",
"1014 1309 LINE",
"998 1042 LINE",
"918 1042 LINE",
"900 1220 LINE",
"432 1233 LINE",
"368 721 LINE",
"805 728 LINE",
"796 617 LINE",
"360 629 LINE",
"287 83 LINE",
"493 60 LINE",
"487 0 LINE",
"23 0 LINE",
"28 60 LINE"
);
}
);
width = 989;
}
);
note = uni1E1E;
unicode = 1E1E;
},
{
glyphname = uni1E20;
layers = (
{
layerId = "4C84AE98-85C0-4DB9-B47D-A9DF131BEAEE";
name = "Light Italic";
paths = (
{
closed = 1;
nodes = (
"873 1323 OFFCURVE",
"970 1302 OFFCURVE",
"1065 1275 CURVE SMOOTH",
"1097 1265 LINE",
"1048 1010 LINE",
"965 1010 LINE",
"961 1183 LINE",
"908 1220 OFFCURVE",
"841 1241 OFFCURVE",
"705 1241 CURVE SMOOTH",
"501 1241 OFFCURVE",
"353 1089 OFFCURVE",
"279 881 CURVE SMOOTH",
"242 776 OFFCURVE",
"223 671 OFFCURVE",
"223 564 CURVE SMOOTH",
"223 393 OFFCURVE",
"269 234 OFFCURVE",
"370 138 CURVE SMOOTH",
"420 90 OFFCURVE",
"484 66 OFFCURVE",
"561 66 CURVE SMOOTH",
"669 66 OFFCURVE",
"797 98 OFFCURVE",
"857 153 CURVE",
"911 530 LINE",
"669 542 LINE",
"678 622 LINE",
"1056 622 LINE",
"980 81 LINE",
"961 79 OFFCURVE",
"935 73 OFFCURVE",
"900 62 CURVE",
"898 61 OFFCURVE",
"888 57 OFFCURVE",
"870 52 CURVE SMOOTH",
"775 24 OFFCURVE",
"730 10 OFFCURVE",
"647 -4 CURVE SMOOTH",
"606 -11 OFFCURVE",
"564 -15 OFFCURVE",
"523 -15 CURVE SMOOTH",
"324 -15 OFFCURVE",
"193 107 OFFCURVE",
"133 279 CURVE SMOOTH",
"102 365 OFFCURVE",
"87 456 OFFCURVE",
"87 553 CURVE SMOOTH",
"87 856 OFFCURVE",
"213 1099 OFFCURVE",
"406 1227 CURVE SMOOTH",
"503 1291 OFFCURVE",
"607 1323 OFFCURVE",
"720 1323 CURVE SMOOTH"
);
},
{
closed = 1;
nodes = (
"943 1603 LINE",
"930 1501 LINE",
"492 1501 LINE",
"505 1603 LINE"
);
}
);
width = 1154;
}
);
note = uni1E20;
unicode = 1E20;
},
{
glyphname = uni1E40;
layers = (
{
layerId = "4C84AE98-85C0-4DB9-B47D-A9DF131BEAEE";
name = "Light Italic";
paths = (
{
closed = 1;
nodes = (
"843 1584 OFFCURVE",
"865 1619 OFFCURVE",
"894 1639 CURVE",
"909 1648 OFFCURVE",
"924 1653 OFFCURVE",
"939 1653 CURVE SMOOTH",
"987 1653 OFFCURVE",
"1019 1621 OFFCURVE",
"1019 1574 CURVE SMOOTH",
"1019 1535 OFFCURVE",
"999 1498 OFFCURVE",
"968 1478 CURVE SMOOTH",
"953 1468 OFFCURVE",
"936 1463 OFFCURVE",
"918 1463 CURVE SMOOTH",
"877 1463 OFFCURVE",
"843 1497 OFFCURVE",
"843 1545 CURVE SMOOTH"
);
},
{
closed = 1;
nodes = (
"113 81 LINE",
"397 1223 LINE",
"238 1239 LINE",
"246 1309 LINE",
"587 1309 LINE",
"740 398 LINE",
"766 206 LINE",
"854 395 LINE",
"895 500 OFFCURVE",
"955 628 OFFCURVE",
"1066 857 CURVE",
"1074 876 OFFCURVE",
"1095 920 OFFCURVE",
"1129 991 CURVE SMOOTH",
"1197 1132 OFFCURVE",
"1243 1238 OFFCURVE",
"1272 1309 CURVE",
"1594 1309 LINE",
"1587 1239 LINE",
"1430 1223 LINE",
"1397 82 LINE",
"1543 60 LINE",
"1537 0 LINE",
"1101 0 LINE",
"1108 60 LINE",
"1268 80 LINE",
"1303 875 LINE",
"1328 1238 LINE",
"1192 917 LINE",
"770 -3 LINE",
"696 -15 LINE",
"541 896 LINE",
"482 1237 LINE",
"411 889 LINE",
"219 81 LINE",
"391 60 LINE",
"386 0 LINE",
"-42 0 LINE",
"-35 60 LINE"
);
}
);
width = 1611;
}
);
note = uni1E40;
unicode = 1E40;
},
{
glyphname = uni1E44;
layers = (
{
layerId = "4C84AE98-85C0-4DB9-B47D-A9DF131BEAEE";
name = "Light Italic";
paths = (
{
closed = 1;
nodes = (
"152 79 LINE",
"301 1223 LINE",
"175 1239 LINE",
"187 1309 LINE",
"440 1309 LINE",
"885 322 LINE",
"953 126 LINE",
"1083 1224 LINE",
"944 1239 LINE",
"953 1309 LINE",
"1325 1309 LINE",
"1318 1239 LINE",
"1186 1223 LINE",
"1018 0 LINE",
"894 0 LINE",
"452 979 LINE",
"384 1176 LINE",
"262 81 LINE",
"409 60 LINE",
"403 0 LINE",
"26 0 LINE",
"31 59 LINE"
);
},
{
closed = 1;
nodes = (
"685 1584 OFFCURVE",
"707 1619 OFFCURVE",
"736 1639 CURVE",
"751 1648 OFFCURVE",
"766 1653 OFFCURVE",
"781 1653 CURVE SMOOTH",
"829 1653 OFFCURVE",
"861 1621 OFFCURVE",
"861 1574 CURVE SMOOTH",
"861 1535 OFFCURVE",
"841 1498 OFFCURVE",
"810 1478 CURVE SMOOTH",
"795 1468 OFFCURVE",
"778 1463 OFFCURVE",
"760 1463 CURVE SMOOTH",
"719 1463 OFFCURVE",
"685 1497 OFFCURVE",
"685 1545 CURVE SMOOTH"
);
}
);
width = 1298;
}
);
note = uni1E44;
unicode = 1E44;
},
{
glyphname = uni1E56;
layers = (
{
layerId = "4C84AE98-85C0-4DB9-B47D-A9DF131BEAEE";
name = "Light Italic";
paths = (
{
closed = 1;
nodes = (
"638 1584 OFFCURVE",
"660 1619 OFFCURVE",
"689 1639 CURVE",
"704 1648 OFFCURVE",
"719 1653 OFFCURVE",
"734 1653 CURVE SMOOTH",
"782 1653 OFFCURVE",
"814 1621 OFFCURVE",
"814 1574 CURVE SMOOTH",
"814 1535 OFFCURVE",
"794 1498 OFFCURVE",
"763 1478 CURVE SMOOTH",
"748 1468 OFFCURVE",
"731 1463 OFFCURVE",
"713 1463 CURVE SMOOTH",
"672 1463 OFFCURVE",
"638 1497 OFFCURVE",
"638 1545 CURVE SMOOTH"
);
},
{
closed = 1;
nodes = (
"158 81 LINE",
"301 1223 LINE",
"185 1239 LINE",
"193 1309 LINE",
"388 1309 LINE SMOOTH",
"425 1309 OFFCURVE",
"469 1312 OFFCURVE",
"519 1317 CURVE SMOOTH",
"576 1322 OFFCURVE",
"619 1324 OFFCURVE",
"648 1324 CURVE SMOOTH",
"904 1324 OFFCURVE",
"1041 1210 OFFCURVE",
"1041 978 CURVE SMOOTH",
"1041 766 OFFCURVE",
"938 607 OFFCURVE",
"778 528 CURVE SMOOTH",
"697 488 OFFCURVE",
"609 468 OFFCURVE",
"513 468 CURVE SMOOTH",
"456 468 OFFCURVE",
"397 471 OFFCURVE",
"335 476 CURVE",
"288 81 LINE",
"446 60 LINE",
"440 0 LINE",
"23 0 LINE",
"29 59 LINE"
);
},
{
closed = 1;
nodes = (
"776 553 OFFCURVE",
"904 697 OFFCURVE",
"904 983 CURVE SMOOTH",
"904 1155 OFFCURVE",
"830 1241 OFFCURVE",
"642 1241 CURVE SMOOTH",
"590 1241 OFFCURVE",
"496 1233 OFFCURVE",
"432 1224 CURVE",
"345 565 LINE",
"397 556 OFFCURVE",
"467 550 OFFCURVE",
"519 550 CURVE SMOOTH"
);
}
);
width = 1051;
}
);
note = uni1E56;
unicode = 1E56;
},
{
glyphname = uni1E60;
layers = (
{
layerId = "4C84AE98-85C0-4DB9-B47D-A9DF131BEAEE";
name = "Light Italic";
paths = (
{
closed = 1;
nodes = (
"539 1584 OFFCURVE",
"561 1619 OFFCURVE",
"590 1639 CURVE",
"605 1648 OFFCURVE",
"620 1653 OFFCURVE",
"635 1653 CURVE SMOOTH",
"683 1653 OFFCURVE",
"715 1621 OFFCURVE",
"715 1574 CURVE SMOOTH",
"715 1535 OFFCURVE",
"695 1498 OFFCURVE",
"664 1478 CURVE SMOOTH",
"649 1468 OFFCURVE",
"632 1463 OFFCURVE",
"614 1463 CURVE SMOOTH",
"573 1463 OFFCURVE",
"539 1497 OFFCURVE",
"539 1545 CURVE SMOOTH"
);
},
{
closed = 1;
nodes = (
"158 297 LINE",
"169 116 LINE",
"217 84 OFFCURVE",
"313 62 OFFCURVE",
"398 62 CURVE SMOOTH",
"497 62 OFFCURVE",
"598 97 OFFCURVE",
"659 173 CURVE SMOOTH",
"690 210 OFFCURVE",
"705 257 OFFCURVE",
"705 312 CURVE SMOOTH",
"705 403 OFFCURVE",
"657 472 OFFCURVE",
"596 521 CURVE SMOOTH",
"565 546 OFFCURVE",
"526 573 OFFCURVE",
"477 603 CURVE SMOOTH",
"349 683 OFFCURVE",
"276 733 OFFCURVE",
"217 826 CURVE SMOOTH",
"188 873 OFFCURVE",
"173 926 OFFCURVE",
"173 987 CURVE SMOOTH",
"173 1119 OFFCURVE",
"252 1227 OFFCURVE",
"376 1284 CURVE SMOOTH",
"437 1312 OFFCURVE",
"504 1326 OFFCURVE",
"576 1326 CURVE SMOOTH",
"724 1326 OFFCURVE",
"831 1292 OFFCURVE",
"890 1253 CURVE",
"851 1029 LINE",
"780 1029 LINE",
"771 1196 LINE",
"731 1224 OFFCURVE",
"656 1244 OFFCURVE",
"565 1244 CURVE SMOOTH",
"477 1244 OFFCURVE",
"391 1214 OFFCURVE",
"340 1150 CURVE SMOOTH",
"315 1117 OFFCURVE",
"302 1077 OFFCURVE",
"302 1030 CURVE SMOOTH",
"302 934 OFFCURVE",
"355 858 OFFCURVE",
"422 806 CURVE SMOOTH",
"455 779 OFFCURVE",
"498 750 OFFCURVE",
"551 717 CURVE SMOOTH",
"574 703 LINE SMOOTH",
"689 631 OFFCURVE",
"750 588 OFFCURVE",
"798 505 CURVE SMOOTH",
"822 464 OFFCURVE",
"834 415 OFFCURVE",
"834 359 CURVE SMOOTH",
"834 204 OFFCURVE",
"752 86 OFFCURVE",
"619 26 CURVE SMOOTH",
"552 -5 OFFCURVE",
"477 -20 OFFCURVE",
"394 -20 CURVE SMOOTH",
"295 -20 OFFCURVE",
"193 -2 OFFCURVE",
"122 22 CURVE SMOOTH",
"86 34 OFFCURVE",
"61 45 OFFCURVE",
"46 56 CURVE",
"82 297 LINE"
);
}
);
width = 932;
}
);
note = uni1E60;
unicode = 1E60;
},
{
glyphname = uni1E6A;
layers = (
{
layerId = "4C84AE98-85C0-4DB9-B47D-A9DF131BEAEE";
name = "Light Italic";
paths = (
{
closed = 1;
nodes = (
"573 1584 OFFCURVE",
"595 1619 OFFCURVE",
"624 1639 CURVE",
"639 1648 OFFCURVE",
"654 1653 OFFCURVE",
"669 1653 CURVE SMOOTH",
"717 1653 OFFCURVE",
"749 1621 OFFCURVE",
"749 1574 CURVE SMOOTH",
"749 1535 OFFCURVE",
"729 1498 OFFCURVE",
"698 1478 CURVE SMOOTH",
"683 1468 OFFCURVE",
"666 1463 OFFCURVE",
"648 1463 CURVE SMOOTH",
"607 1463 OFFCURVE",
"573 1497 OFFCURVE",
"573 1545 CURVE SMOOTH"
);
},
{
closed = 1;
nodes = (
"396 81 LINE",
"544 1234 LINE",
"219 1220 LINE",
"148 926 LINE",
"72 924 LINE",
"134 1309 LINE",
"1112 1309 LINE",
"1060 924 LINE",
"987 924 LINE",
"1002 1220 LINE",
"674 1234 LINE",
"525 81 LINE",
"740 64 LINE",
"734 0 LINE",
"181 0 LINE",
"186 64 LINE"
);
}
);
width = 1053;
}
);
note = uni1E6A;
unicode = 1E6A;
},
{
glyphname = uni1E8E;
layers = (
{
layerId = "4C84AE98-85C0-4DB9-B47D-A9DF131BEAEE";
name = "Light Italic";
paths = (
{
closed = 1;
nodes = (
"414 81 LINE",
"469 504 LINE",
"152 1223 LINE",
"51 1239 LINE",
"57 1309 LINE",
"466 1309 LINE",
"458 1239 LINE",
"298 1223 LINE",
"509 707 LINE",
"549 589 LINE",
"618 707 LINE",
"934 1223 LINE",
"798 1239 LINE",
"806 1309 LINE",
"1151 1309 LINE",
"1144 1239 LINE",
"1048 1224 LINE",
"592 504 LINE",
"537 81 LINE",
"727 60 LINE",
"721 0 LINE",
"207 0 LINE",
"213 60 LINE"
);
},
{
closed = 1;
nodes = (
"577 1584 OFFCURVE",
"599 1619 OFFCURVE",
"628 1639 CURVE",
"643 1648 OFFCURVE",
"658 1653 OFFCURVE",
"673 1653 CURVE SMOOTH",
"721 1653 OFFCURVE",
"753 1621 OFFCURVE",
"753 1574 CURVE SMOOTH",
"753 1535 OFFCURVE",
"733 1498 OFFCURVE",
"702 1478 CURVE SMOOTH",
"687 1468 OFFCURVE",
"670 1463 OFFCURVE",
"652 1463 CURVE SMOOTH",
"611 1463 OFFCURVE",
"577 1497 OFFCURVE",
"577 1545 CURVE SMOOTH"
);
}
);
width = 1008;
}
);
note = uni1E8E;
unicode = 1E8E;
},
{
glyphname = a;
layers = (
{
layerId = "4C84AE98-85C0-4DB9-B47D-A9DF131BEAEE";
name = "Light Italic";
paths = (
{
closed = 1;
nodes = (
"913 86 LINE",
"904 67 OFFCURVE",
"869 29 OFFCURVE",
"821 3 CURVE SMOOTH",
"797 -10 OFFCURVE",
"772 -17 OFFCURVE",
"746 -17 CURVE SMOOTH",
"679 -17 OFFCURVE",
"646 17 OFFCURVE",
"646 84 CURVE",
"647 101 LINE",
"655 164 LINE",
"657 175 LINE",
"580 70 OFFCURVE",
"465 -17 OFFCURVE",
"349 -17 CURVE SMOOTH",
"164 -17 OFFCURVE",
"76 126 OFFCURVE",
"76 354 CURVE SMOOTH",
"76 541 OFFCURVE",
"168 762 OFFCURVE",
"336 898 CURVE SMOOTH",
"419 966 OFFCURVE",
"516 1000 OFFCURVE",
"626 1000 CURVE SMOOTH",
"679 1000 OFFCURVE",
"744 987 OFFCURVE",
"796 968 CURVE",
"797 970 LINE",
"894 999 LINE",
"778 149 LINE",
"777 138 OFFCURVE",
"777 131 OFFCURVE",
"777 126 CURVE SMOOTH",
"777 90 OFFCURVE",
"795 73 OFFCURVE",
"812 73 CURVE SMOOTH",
"823 73 OFFCURVE",
"834 77 OFFCURVE",
"845 85 CURVE",
"856 92 OFFCURVE",
"871 105 OFFCURVE",
"890 124 CURVE"
);
},
{
closed = 1;
nodes = (
"749 875 LINE",
"713 902 OFFCURVE",
"661 915 OFFCURVE",
"606 915 CURVE SMOOTH",
"443 915 OFFCURVE",
"320 789 OFFCURVE",
"257 621 CURVE SMOOTH",
"226 536 OFFCURVE",
"210 453 OFFCURVE",
"210 371 CURVE SMOOTH",
"210 187 OFFCURVE",
"261 81 OFFCURVE",
"372 81 CURVE SMOOTH",
"449 81 OFFCURVE",
"531 133 OFFCURVE",
"595 198 CURVE SMOOTH",
"626 230 OFFCURVE",
"652 262 OFFCURVE",
"673 294 CURVE"
);
}
);
width = 1008;
}
);
note = a;
unicode = 0061;
},
{
glyphname = aacute;
layers = (
{
layerId = "4C84AE98-85C0-4DB9-B47D-A9DF131BEAEE";
name = "Light Italic";
paths = (
{
closed = 1;
nodes = (
"913 86 LINE",
"904 67 OFFCURVE",
"869 29 OFFCURVE",
"821 3 CURVE SMOOTH",
"797 -10 OFFCURVE",
"772 -17 OFFCURVE",
"746 -17 CURVE SMOOTH",
"679 -17 OFFCURVE",
"646 17 OFFCURVE",
"646 84 CURVE",
"647 101 LINE",
"655 164 LINE",
"657 175 LINE",
"580 70 OFFCURVE",
"465 -17 OFFCURVE",
"349 -17 CURVE SMOOTH",
"164 -17 OFFCURVE",
"76 126 OFFCURVE",
"76 354 CURVE SMOOTH",
"76 541 OFFCURVE",
"168 762 OFFCURVE",
"336 898 CURVE SMOOTH",
"419 966 OFFCURVE",
"516 1000 OFFCURVE",
"626 1000 CURVE SMOOTH",
"679 1000 OFFCURVE",
"744 987 OFFCURVE",
"796 968 CURVE",
"797 970 LINE",
"894 999 LINE",
"778 149 LINE",
"777 138 OFFCURVE",
"777 131 OFFCURVE",
"777 126 CURVE SMOOTH",
"777 90 OFFCURVE",
"795 73 OFFCURVE",
"812 73 CURVE SMOOTH",
"823 73 OFFCURVE",
"834 77 OFFCURVE",
"845 85 CURVE",
"856 92 OFFCURVE",
"871 105 OFFCURVE",
"890 124 CURVE"
);
},
{
closed = 1;
nodes = (
"749 875 LINE",
"713 902 OFFCURVE",
"661 915 OFFCURVE",
"606 915 CURVE SMOOTH",
"443 915 OFFCURVE",
"320 789 OFFCURVE",
"257 621 CURVE SMOOTH",
"226 536 OFFCURVE",
"210 453 OFFCURVE",
"210 371 CURVE SMOOTH",
"210 187 OFFCURVE",
"261 81 OFFCURVE",
"372 81 CURVE SMOOTH",
"449 81 OFFCURVE",
"531 133 OFFCURVE",
"595 198 CURVE SMOOTH",
"626 230 OFFCURVE",
"652 262 OFFCURVE",
"673 294 CURVE"
);
},
{
closed = 1;
nodes = (
"813 1487 LINE",
"906 1393 LINE",
"882 1354 OFFCURVE",
"791 1253 OFFCURVE",
"697 1170 CURVE SMOOTH",
"650 1128 OFFCURVE",
"610 1098 OFFCURVE",
"577 1079 CURVE",
"535 1121 LINE"
);
}
);
width = 1008;
}
);
note = aacute;
unicode = 00E1;
},
{
glyphname = abreve;
layers = (
{
layerId = "4C84AE98-85C0-4DB9-B47D-A9DF131BEAEE";
name = "Light Italic";
paths = (
{
closed = 1;
nodes = (
"913 86 LINE",
"904 67 OFFCURVE",
"869 29 OFFCURVE",
"821 3 CURVE SMOOTH",
"797 -10 OFFCURVE",
"772 -17 OFFCURVE",
"746 -17 CURVE SMOOTH",
"679 -17 OFFCURVE",
"646 17 OFFCURVE",
"646 84 CURVE",
"647 101 LINE",
"655 164 LINE",
"657 175 LINE",
"580 70 OFFCURVE",
"465 -17 OFFCURVE",
"349 -17 CURVE SMOOTH",
"164 -17 OFFCURVE",
"76 126 OFFCURVE",
"76 354 CURVE SMOOTH",
"76 541 OFFCURVE",
"168 762 OFFCURVE",
"336 898 CURVE SMOOTH",
"419 966 OFFCURVE",
"516 1000 OFFCURVE",
"626 1000 CURVE SMOOTH",
"679 1000 OFFCURVE",
"744 987 OFFCURVE",
"796 968 CURVE",
"797 970 LINE",
"894 999 LINE",
"778 149 LINE",
"777 138 OFFCURVE",
"777 131 OFFCURVE",
"777 126 CURVE SMOOTH",
"777 90 OFFCURVE",
"795 73 OFFCURVE",
"812 73 CURVE SMOOTH",
"823 73 OFFCURVE",
"834 77 OFFCURVE",
"845 85 CURVE",
"856 92 OFFCURVE",
"871 105 OFFCURVE",
"890 124 CURVE"
);
},
{
closed = 1;
nodes = (
"749 875 LINE",
"713 902 OFFCURVE",
"661 915 OFFCURVE",
"606 915 CURVE SMOOTH",
"443 915 OFFCURVE",
"320 789 OFFCURVE",
"257 621 CURVE SMOOTH",
"226 536 OFFCURVE",
"210 453 OFFCURVE",
"210 371 CURVE SMOOTH",
"210 187 OFFCURVE",
"261 81 OFFCURVE",
"372 81 CURVE SMOOTH",
"449 81 OFFCURVE",
"531 133 OFFCURVE",
"595 198 CURVE SMOOTH",
"626 230 OFFCURVE",
"652 262 OFFCURVE",
"673 294 CURVE"
);
},
{
closed = 1;
nodes = (
"376 1409 OFFCURVE",
"376 1414 OFFCURVE",
"377 1417 CURVE",
"446 1417 LINE",
"449 1391 LINE SMOOTH",
"456 1335 OFFCURVE",
"482 1280 OFFCURVE",
"534 1248 CURVE SMOOTH",
"560 1231 OFFCURVE",
"591 1223 OFFCURVE",
"627 1223 CURVE SMOOTH",
"706 1223 OFFCURVE",
"768 1272 OFFCURVE",
"804 1333 CURVE SMOOTH",
"822 1364 OFFCURVE",
"833 1392 OFFCURVE",
"838 1418 CURVE",
"906 1418 LINE",
"906 1405 OFFCURVE",
"906 1396 OFFCURVE",
"905 1391 CURVE",
"896 1304 OFFCURVE",
"839 1214 OFFCURVE",
"756 1161 CURVE SMOOTH",
"715 1134 OFFCURVE",
"671 1121 OFFCURVE",
"624 1121 CURVE SMOOTH",
"523 1121 OFFCURVE",
"445 1180 OFFCURVE",
"406 1266 CURVE SMOOTH",
"386 1309 OFFCURVE",
"376 1353 OFFCURVE",
"376 1400 CURVE SMOOTH"
);
}
);
width = 1008;
}
);
note = abreve;
unicode = 0103;
},
{
glyphname = acircumflex;
layers = (
{
layerId = "4C84AE98-85C0-4DB9-B47D-A9DF131BEAEE";
name = "Light Italic";
paths = (
{
closed = 1;
nodes = (
"913 86 LINE",
"904 67 OFFCURVE",
"869 29 OFFCURVE",
"821 3 CURVE SMOOTH",
"797 -10 OFFCURVE",
"772 -17 OFFCURVE",
"746 -17 CURVE SMOOTH",
"679 -17 OFFCURVE",
"646 17 OFFCURVE",
"646 84 CURVE",
"647 101 LINE",
"655 164 LINE",
"657 175 LINE",
"580 70 OFFCURVE",
"465 -17 OFFCURVE",
"349 -17 CURVE SMOOTH",
"164 -17 OFFCURVE",
"76 126 OFFCURVE",
"76 354 CURVE SMOOTH",
"76 541 OFFCURVE",
"168 762 OFFCURVE",
"336 898 CURVE SMOOTH",
"419 966 OFFCURVE",
"516 1000 OFFCURVE",
"626 1000 CURVE SMOOTH",
"679 1000 OFFCURVE",
"744 987 OFFCURVE",
"796 968 CURVE",
"797 970 LINE",
"894 999 LINE",
"778 149 LINE",
"777 138 OFFCURVE",
"777 131 OFFCURVE",
"777 126 CURVE SMOOTH",
"777 90 OFFCURVE",
"795 73 OFFCURVE",
"812 73 CURVE SMOOTH",
"823 73 OFFCURVE",
"834 77 OFFCURVE",
"845 85 CURVE",
"856 92 OFFCURVE",
"871 105 OFFCURVE",
"890 124 CURVE"
);
},
{
closed = 1;
nodes = (
"749 875 LINE",
"713 902 OFFCURVE",
"661 915 OFFCURVE",
"606 915 CURVE SMOOTH",
"443 915 OFFCURVE",
"320 789 OFFCURVE",
"257 621 CURVE SMOOTH",
"226 536 OFFCURVE",
"210 453 OFFCURVE",
"210 371 CURVE SMOOTH",
"210 187 OFFCURVE",
"261 81 OFFCURVE",
"372 81 CURVE SMOOTH",
"449 81 OFFCURVE",
"531 133 OFFCURVE",
"595 198 CURVE SMOOTH",
"626 230 OFFCURVE",
"652 262 OFFCURVE",
"673 294 CURVE"
);
},
{
closed = 1;
nodes = (
"608 1419 LINE",
"725 1419 LINE",
"900 1102 LINE",
"851 1061 LINE",
"650 1317 LINE",
"351 1063 LINE",
"312 1103 LINE"
);
}
);
width = 1008;
}
);
note = acircumflex;
unicode = 00E2;
},
{
glyphname = adieresis;
layers = (
{
layerId = "4C84AE98-85C0-4DB9-B47D-A9DF131BEAEE";
name = "Light Italic";
paths = (
{
closed = 1;
nodes = (
"913 86 LINE",
"904 67 OFFCURVE",
"869 29 OFFCURVE",
"821 3 CURVE SMOOTH",
"797 -10 OFFCURVE",
"772 -17 OFFCURVE",
"746 -17 CURVE SMOOTH",
"679 -17 OFFCURVE",
"646 17 OFFCURVE",
"646 84 CURVE",
"647 101 LINE",
"655 164 LINE",
"657 175 LINE",
"580 70 OFFCURVE",
"465 -17 OFFCURVE",
"349 -17 CURVE SMOOTH",
"164 -17 OFFCURVE",
"76 126 OFFCURVE",
"76 354 CURVE SMOOTH",
"76 541 OFFCURVE",
"168 762 OFFCURVE",
"336 898 CURVE SMOOTH",
"419 966 OFFCURVE",
"516 1000 OFFCURVE",
"626 1000 CURVE SMOOTH",
"679 1000 OFFCURVE",
"744 987 OFFCURVE",
"796 968 CURVE",
"797 970 LINE",
"894 999 LINE",
"778 149 LINE",
"777 138 OFFCURVE",
"777 131 OFFCURVE",
"777 126 CURVE SMOOTH",
"777 90 OFFCURVE",
"795 73 OFFCURVE",
"812 73 CURVE SMOOTH",
"823 73 OFFCURVE",
"834 77 OFFCURVE",
"845 85 CURVE",
"856 92 OFFCURVE",
"871 105 OFFCURVE",
"890 124 CURVE"
);
},
{
closed = 1;
nodes = (
"749 875 LINE",
"713 902 OFFCURVE",
"661 915 OFFCURVE",
"606 915 CURVE SMOOTH",
"443 915 OFFCURVE",
"320 789 OFFCURVE",
"257 621 CURVE SMOOTH",
"226 536 OFFCURVE",
"210 453 OFFCURVE",
"210 371 CURVE SMOOTH",
"210 187 OFFCURVE",
"261 81 OFFCURVE",
"372 81 CURVE SMOOTH",
"449 81 OFFCURVE",
"531 133 OFFCURVE",
"595 198 CURVE SMOOTH",
"626 230 OFFCURVE",
"652 262 OFFCURVE",
"673 294 CURVE"
);
},
{
closed = 1;
nodes = (
"373 1327 OFFCURVE",
"393 1362 OFFCURVE",
"423 1382 CURVE",
"438 1391 OFFCURVE",
"453 1396 OFFCURVE",
"470 1396 CURVE SMOOTH",
"517 1396 OFFCURVE",
"548 1362 OFFCURVE",
"548 1317 CURVE SMOOTH",
"548 1277 OFFCURVE",
"528 1241 OFFCURVE",
"497 1221 CURVE SMOOTH",
"482 1211 OFFCURVE",
"465 1206 OFFCURVE",
"447 1206 CURVE SMOOTH",
"406 1206 OFFCURVE",
"373 1240 OFFCURVE",
"373 1287 CURVE SMOOTH"
);
},
{
closed = 1;
nodes = (
"736 1326 OFFCURVE",
"756 1362 OFFCURVE",
"785 1382 CURVE",
"800 1391 OFFCURVE",
"815 1396 OFFCURVE",
"832 1396 CURVE SMOOTH",
"880 1396 OFFCURVE",
"911 1362 OFFCURVE",
"911 1317 CURVE SMOOTH",
"911 1277 OFFCURVE",
"891 1241 OFFCURVE",
"860 1221 CURVE SMOOTH",
"845 1211 OFFCURVE",
"828 1206 OFFCURVE",
"810 1206 CURVE SMOOTH",
"769 1206 OFFCURVE",
"736 1239 OFFCURVE",
"736 1286 CURVE SMOOTH"
);
}
);
width = 1008;
}
);
note = adieresis;
unicode = 00E4;
},
{
glyphname = agrave;
layers = (
{
layerId = "4C84AE98-85C0-4DB9-B47D-A9DF131BEAEE";
name = "Light Italic";
paths = (
{
closed = 1;
nodes = (
"913 86 LINE",
"904 67 OFFCURVE",
"869 29 OFFCURVE",
"821 3 CURVE SMOOTH",
"797 -10 OFFCURVE",
"772 -17 OFFCURVE",
"746 -17 CURVE SMOOTH",
"679 -17 OFFCURVE",
"646 17 OFFCURVE",
"646 84 CURVE",
"647 101 LINE",
"655 164 LINE",
"657 175 LINE",
"580 70 OFFCURVE",
"465 -17 OFFCURVE",
"349 -17 CURVE SMOOTH",
"164 -17 OFFCURVE",
"76 126 OFFCURVE",
"76 354 CURVE SMOOTH",
"76 541 OFFCURVE",
"168 762 OFFCURVE",
"336 898 CURVE SMOOTH",
"419 966 OFFCURVE",
"516 1000 OFFCURVE",
"626 1000 CURVE SMOOTH",
"679 1000 OFFCURVE",
"744 987 OFFCURVE",
"796 968 CURVE",
"797 970 LINE",
"894 999 LINE",
"778 149 LINE",
"777 138 OFFCURVE",
"777 131 OFFCURVE",
"777 126 CURVE SMOOTH",
"777 90 OFFCURVE",
"795 73 OFFCURVE",
"812 73 CURVE SMOOTH",
"823 73 OFFCURVE",
"834 77 OFFCURVE",
"845 85 CURVE",
"856 92 OFFCURVE",
"871 105 OFFCURVE",
"890 124 CURVE"
);
},
{
closed = 1;
nodes = (
"749 875 LINE",
"713 902 OFFCURVE",
"661 915 OFFCURVE",
"606 915 CURVE SMOOTH",
"443 915 OFFCURVE",
"320 789 OFFCURVE",
"257 621 CURVE SMOOTH",
"226 536 OFFCURVE",
"210 453 OFFCURVE",
"210 371 CURVE SMOOTH",
"210 187 OFFCURVE",
"261 81 OFFCURVE",
"372 81 CURVE SMOOTH",
"449 81 OFFCURVE",
"531 133 OFFCURVE",
"595 198 CURVE SMOOTH",
"626 230 OFFCURVE",
"652 262 OFFCURVE",
"673 294 CURVE"
);
},
{
closed = 1;
nodes = (
"396 1487 LINE",
"656 1121 LINE",
"613 1079 LINE",
"558 1114 OFFCURVE",
"457 1203 OFFCURVE",
"378 1286 CURVE SMOOTH",
"338 1327 OFFCURVE",
"311 1361 OFFCURVE",
"298 1386 CURVE"
);
}
);
width = 1008;
}
);
note = agrave;
unicode = 00E0;
},
{
glyphname = amacron;
layers = (
{
layerId = "4C84AE98-85C0-4DB9-B47D-A9DF131BEAEE";
name = "Light Italic";
paths = (
{
closed = 1;
nodes = (
"913 86 LINE",
"904 67 OFFCURVE",
"869 29 OFFCURVE",
"821 3 CURVE SMOOTH",
"797 -10 OFFCURVE",
"772 -17 OFFCURVE",
"746 -17 CURVE SMOOTH",
"679 -17 OFFCURVE",
"646 17 OFFCURVE",
"646 84 CURVE",
"647 101 LINE",
"655 164 LINE",
"657 175 LINE",
"580 70 OFFCURVE",
"465 -17 OFFCURVE",
"349 -17 CURVE SMOOTH",
"164 -17 OFFCURVE",
"76 126 OFFCURVE",
"76 354 CURVE SMOOTH",
"76 541 OFFCURVE",
"168 762 OFFCURVE",
"336 898 CURVE SMOOTH",
"419 966 OFFCURVE",
"516 1000 OFFCURVE",
"626 1000 CURVE SMOOTH",
"679 1000 OFFCURVE",
"744 987 OFFCURVE",
"796 968 CURVE",
"797 970 LINE",
"894 999 LINE",
"778 149 LINE",
"777 138 OFFCURVE",
"777 131 OFFCURVE",
"777 126 CURVE SMOOTH",
"777 90 OFFCURVE",
"795 73 OFFCURVE",
"812 73 CURVE SMOOTH",
"823 73 OFFCURVE",
"834 77 OFFCURVE",
"845 85 CURVE",
"856 92 OFFCURVE",
"871 105 OFFCURVE",
"890 124 CURVE"
);
},
{
closed = 1;
nodes = (
"749 875 LINE",
"713 902 OFFCURVE",
"661 915 OFFCURVE",
"606 915 CURVE SMOOTH",
"443 915 OFFCURVE",
"320 789 OFFCURVE",
"257 621 CURVE SMOOTH",
"226 536 OFFCURVE",
"210 453 OFFCURVE",
"210 371 CURVE SMOOTH",
"210 187 OFFCURVE",
"261 81 OFFCURVE",
"372 81 CURVE SMOOTH",
"449 81 OFFCURVE",
"531 133 OFFCURVE",
"595 198 CURVE SMOOTH",
"626 230 OFFCURVE",
"652 262 OFFCURVE",
"673 294 CURVE"
);
},
{
closed = 1;
nodes = (
"845 1334 LINE",
"831 1232 LINE",
"393 1232 LINE",
"406 1334 LINE"
);
}
);
width = 1008;
}
);
note = amacron;
unicode = 0101;
},
{
glyphname = aogonek;
layers = (
{
layerId = "4C84AE98-85C0-4DB9-B47D-A9DF131BEAEE";
name = "Light Italic";
paths = (
{
closed = 1;
nodes = (
"823 1 LINE SMOOTH",
"747 -54 OFFCURVE",
"705 -87 OFFCURVE",
"673 -130 CURVE SMOOTH",
"640 -174 OFFCURVE",
"641 -225 OFFCURVE",
"663 -250 CURVE SMOOTH",
"674 -263 OFFCURVE",
"688 -269 OFFCURVE",
"705 -269 CURVE SMOOTH",
"751 -269 OFFCURVE",
"797 -250 OFFCURVE",
"842 -211 CURVE",
"860 -277 LINE",
"799 -331 OFFCURVE",
"728 -358 OFFCURVE",
"645 -358 CURVE SMOOTH",
"589 -358 OFFCURVE",
"552 -334 OFFCURVE",
"534 -301 CURVE SMOOTH",
"525 -285 OFFCURVE",
"520 -268 OFFCURVE",
"520 -250 CURVE SMOOTH",
"520 -215 OFFCURVE",
"533 -175 OFFCURVE",
"550 -150 CURVE SMOOTH",
"591 -91 OFFCURVE",
"641 -56 OFFCURVE",
"716 -15 CURVE",
"669 -6 OFFCURVE",
"646 27 OFFCURVE",
"646 84 CURVE",
"647 101 LINE",
"655 164 LINE",
"657 175 LINE",
"580 70 OFFCURVE",
"465 -17 OFFCURVE",
"349 -17 CURVE SMOOTH",
"164 -17 OFFCURVE",
"76 126 OFFCURVE",
"76 354 CURVE SMOOTH",
"76 541 OFFCURVE",
"168 762 OFFCURVE",
"336 898 CURVE SMOOTH",
"419 966 OFFCURVE",
"516 1000 OFFCURVE",
"626 1000 CURVE SMOOTH",
"679 1000 OFFCURVE",
"744 987 OFFCURVE",
"796 968 CURVE",
"797 970 LINE",
"894 999 LINE",
"778 149 LINE",
"777 138 OFFCURVE",
"777 131 OFFCURVE",
"777 126 CURVE SMOOTH",
"777 90 OFFCURVE",
"795 73 OFFCURVE",
"812 73 CURVE SMOOTH",
"823 73 OFFCURVE",
"834 77 OFFCURVE",
"845 85 CURVE",
"856 92 OFFCURVE",
"871 105 OFFCURVE",
"890 124 CURVE",
"913 86 LINE",
"905 71 OFFCURVE",
"882 45 OFFCURVE",
"855 24 CURVE"
);
},
{
closed = 1;
nodes = (
"749 875 LINE",
"713 902 OFFCURVE",
"661 915 OFFCURVE",
"606 915 CURVE SMOOTH",
"443 915 OFFCURVE",
"320 789 OFFCURVE",
"257 621 CURVE SMOOTH",
"226 536 OFFCURVE",
"210 453 OFFCURVE",
"210 371 CURVE SMOOTH",
"210 187 OFFCURVE",
"261 81 OFFCURVE",
"372 81 CURVE SMOOTH",
"449 81 OFFCURVE",
"531 133 OFFCURVE",
"595 198 CURVE SMOOTH",
"626 230 OFFCURVE",
"652 262 OFFCURVE",
"673 294 CURVE"
);
}
);
width = 1008;
}
);
note = aogonek;
unicode = 0105;
},
{
glyphname = aring;
layers = (
{
layerId = "4C84AE98-85C0-4DB9-B47D-A9DF131BEAEE";
name = "Light Italic";
paths = (
{
closed = 1;
nodes = (
"913 86 LINE",
"904 67 OFFCURVE",
"869 29 OFFCURVE",
"821 3 CURVE SMOOTH",
"797 -10 OFFCURVE",
"772 -17 OFFCURVE",
"746 -17 CURVE SMOOTH",
"679 -17 OFFCURVE",
"646 17 OFFCURVE",
"646 84 CURVE",
"647 101 LINE",
"655 164 LINE",
"657 175 LINE",
"580 70 OFFCURVE",
"465 -17 OFFCURVE",
"349 -17 CURVE SMOOTH",
"164 -17 OFFCURVE",
"76 126 OFFCURVE",
"76 354 CURVE SMOOTH",
"76 541 OFFCURVE",
"168 762 OFFCURVE",
"336 898 CURVE SMOOTH",
"419 966 OFFCURVE",
"516 1000 OFFCURVE",
"626 1000 CURVE SMOOTH",
"679 1000 OFFCURVE",
"744 987 OFFCURVE",
"796 968 CURVE",
"797 970 LINE",
"894 999 LINE",
"778 149 LINE",
"777 138 OFFCURVE",
"777 131 OFFCURVE",
"777 126 CURVE SMOOTH",
"777 90 OFFCURVE",
"795 73 OFFCURVE",
"812 73 CURVE SMOOTH",
"823 73 OFFCURVE",
"834 77 OFFCURVE",
"845 85 CURVE",
"856 92 OFFCURVE",
"871 105 OFFCURVE",
"890 124 CURVE"
);
},
{
closed = 1;
nodes = (
"749 875 LINE",
"713 902 OFFCURVE",
"661 915 OFFCURVE",
"606 915 CURVE SMOOTH",
"443 915 OFFCURVE",
"320 789 OFFCURVE",
"257 621 CURVE SMOOTH",
"226 536 OFFCURVE",
"210 453 OFFCURVE",
"210 371 CURVE SMOOTH",
"210 187 OFFCURVE",
"261 81 OFFCURVE",
"372 81 CURVE SMOOTH",
"449 81 OFFCURVE",
"531 133 OFFCURVE",
"595 198 CURVE SMOOTH",
"626 230 OFFCURVE",
"652 262 OFFCURVE",
"673 294 CURVE"
);
},
{
closed = 1;
nodes = (
"401 1390 OFFCURVE",
"465 1467 OFFCURVE",
"554 1503 CURVE SMOOTH",
"599 1520 OFFCURVE",
"645 1529 OFFCURVE",
"694 1529 CURVE SMOOTH",
"837 1529 OFFCURVE",
"921 1459 OFFCURVE",
"921 1342 CURVE SMOOTH",
"921 1227 OFFCURVE",
"860 1148 OFFCURVE",
"773 1109 CURVE SMOOTH",
"729 1090 OFFCURVE",
"683 1080 OFFCURVE",
"635 1080 CURVE SMOOTH",
"484 1080 OFFCURVE",
"401 1155 OFFCURVE",
"401 1278 CURVE SMOOTH"
);
},
{
closed = 1;
nodes = (
"835 1415 OFFCURVE",
"776 1473 OFFCURVE",
"683 1473 CURVE SMOOTH",
"574 1473 OFFCURVE",
"488 1416 OFFCURVE",
"488 1291 CURVE SMOOTH",
"488 1232 OFFCURVE",
"515 1183 OFFCURVE",
"562 1156 CURVE SMOOTH",
"585 1142 OFFCURVE",
"612 1135 OFFCURVE",
"643 1135 CURVE SMOOTH",
"754 1135 OFFCURVE",
"835 1192 OFFCURVE",
"835 1327 CURVE SMOOTH"
);
}
);
width = 1008;
}
);
note = aring;
unicode = 00E5;
},
{
glyphname = atilde;
layers = (
{
layerId = "4C84AE98-85C0-4DB9-B47D-A9DF131BEAEE";
name = "Light Italic";
paths = (
{
closed = 1;
nodes = (
"913 86 LINE",
"904 67 OFFCURVE",
"869 29 OFFCURVE",
"821 3 CURVE SMOOTH",
"797 -10 OFFCURVE",
"772 -17 OFFCURVE",
"746 -17 CURVE SMOOTH",
"679 -17 OFFCURVE",
"646 17 OFFCURVE",
"646 84 CURVE",
"647 101 LINE",
"655 164 LINE",
"657 175 LINE",
"580 70 OFFCURVE",
"465 -17 OFFCURVE",
"349 -17 CURVE SMOOTH",
"164 -17 OFFCURVE",
"76 126 OFFCURVE",
"76 354 CURVE SMOOTH",
"76 541 OFFCURVE",
"168 762 OFFCURVE",
"336 898 CURVE SMOOTH",
"419 966 OFFCURVE",
"516 1000 OFFCURVE",
"626 1000 CURVE SMOOTH",
"679 1000 OFFCURVE",
"744 987 OFFCURVE",
"796 968 CURVE",
"797 970 LINE",
"894 999 LINE",
"778 149 LINE",
"777 138 OFFCURVE",
"777 131 OFFCURVE",
"777 126 CURVE SMOOTH",
"777 90 OFFCURVE",
"795 73 OFFCURVE",
"812 73 CURVE SMOOTH",
"823 73 OFFCURVE",
"834 77 OFFCURVE",
"845 85 CURVE",
"856 92 OFFCURVE",
"871 105 OFFCURVE",
"890 124 CURVE"
);
},
{
closed = 1;
nodes = (
"749 875 LINE",
"713 902 OFFCURVE",
"661 915 OFFCURVE",
"606 915 CURVE SMOOTH",
"443 915 OFFCURVE",
"320 789 OFFCURVE",
"257 621 CURVE SMOOTH",
"226 536 OFFCURVE",
"210 453 OFFCURVE",
"210 371 CURVE SMOOTH",
"210 187 OFFCURVE",
"261 81 OFFCURVE",
"372 81 CURVE SMOOTH",
"449 81 OFFCURVE",
"531 133 OFFCURVE",
"595 198 CURVE SMOOTH",
"626 230 OFFCURVE",
"652 262 OFFCURVE",
"673 294 CURVE"
);
},
{
closed = 1;
nodes = (
"327 1253 LINE",
"352 1302 OFFCURVE",
"397 1347 OFFCURVE",
"451 1375 CURVE SMOOTH",
"478 1388 OFFCURVE",
"505 1395 OFFCURVE",
"533 1395 CURVE SMOOTH",
"585 1395 OFFCURVE",
"614 1372 OFFCURVE",
"661 1325 CURVE SMOOTH",
"698 1288 OFFCURVE",
"720 1269 OFFCURVE",
"755 1269 CURVE SMOOTH",
"815 1269 OFFCURVE",
"853 1311 OFFCURVE",
"894 1372 CURVE",
"933 1308 LINE",
"914 1253 OFFCURVE",
"872 1205 OFFCURVE",
"817 1178 CURVE SMOOTH",
"789 1165 OFFCURVE",
"760 1158 OFFCURVE",
"730 1158 CURVE SMOOTH",
"686 1158 OFFCURVE",
"652 1172 OFFCURVE",
"631 1191 CURVE",
"620 1200 OFFCURVE",
"608 1213 OFFCURVE",
"594 1228 CURVE SMOOTH",
"558 1265 OFFCURVE",
"537 1283 OFFCURVE",
"498 1283 CURVE SMOOTH",
"451 1283 OFFCURVE",
"400 1242 OFFCURVE",
"359 1194 CURVE"
);
}
);
width = 1008;
}
);
note = atilde;
unicode = 00E3;
},
{
glyphname = ae;
layers = (
{
layerId = "4C84AE98-85C0-4DB9-B47D-A9DF131BEAEE";
name = "Light Italic";
paths = (
{
closed = 1;
nodes = (
"76 540 OFFCURVE",
"169 762 OFFCURVE",
"337 898 CURVE SMOOTH",
"421 965 OFFCURVE",
"518 999 OFFCURVE",
"628 999 CURVE SMOOTH",
"683 999 OFFCURVE",
"748 987 OFFCURVE",
"801 968 CURVE",
"802 970 LINE",
"900 999 LINE",
"875 857 LINE",
"964 948 OFFCURVE",
"1072 999 OFFCURVE",
"1185 999 CURVE SMOOTH",
"1285 999 OFFCURVE",
"1354 958 OFFCURVE",
"1387 893 CURVE SMOOTH",
"1404 860 OFFCURVE",
"1412 824 OFFCURVE",
"1412 783 CURVE SMOOTH",
"1412 618 OFFCURVE",
"1248 502 OFFCURVE",
"1060 446 CURVE SMOOTH",
"965 418 OFFCURVE",
"883 403 OFFCURVE",
"814 402 CURVE",
"813 379 OFFCURVE",
"813 362 OFFCURVE",
"813 351 CURVE SMOOTH",
"813 170 OFFCURVE",
"879 79 OFFCURVE",
"1012 79 CURVE SMOOTH",
"1117 79 OFFCURVE",
"1237 125 OFFCURVE",
"1336 218 CURVE",
"1367 160 LINE",
"1330 109 OFFCURVE",
"1252 50 OFFCURVE",
"1153 12 CURVE SMOOTH",
"1103 -7 OFFCURVE",
"1051 -17 OFFCURVE",
"998 -17 CURVE SMOOTH",
"806 -17 OFFCURVE",
"706 92 OFFCURVE",
"683 273 CURVE",
"636 176 OFFCURVE",
"566 83 OFFCURVE",
"476 26 CURVE SMOOTH",
"431 -3 OFFCURVE",
"384 -17 OFFCURVE",
"335 -17 CURVE SMOOTH",
"162 -17 OFFCURVE",
"76 118 OFFCURVE",
"76 353 CURVE SMOOTH"
);
},
{
closed = 1;
nodes = (
"1278 869 OFFCURVE",
"1231 919 OFFCURVE",
"1143 919 CURVE SMOOTH",
"1024 919 OFFCURVE",
"926 816 OFFCURVE",
"870 680 CURVE SMOOTH",
"841 611 OFFCURVE",
"824 544 OFFCURVE",
"818 479 CURVE",
"953 483 OFFCURVE",
"1110 534 OFFCURVE",
"1206 622 CURVE SMOOTH",
"1254 665 OFFCURVE",
"1278 716 OFFCURVE",
"1278 773 CURVE SMOOTH"
);
},
{
closed = 1;
nodes = (
"761 869 LINE",
"726 900 OFFCURVE",
"675 915 OFFCURVE",
"608 915 CURVE SMOOTH",
"444 915 OFFCURVE",
"320 789 OFFCURVE",
"257 619 CURVE SMOOTH",
"226 534 OFFCURVE",
"210 450 OFFCURVE",
"210 368 CURVE SMOOTH",
"210 173 OFFCURVE",
"262 81 OFFCURVE",
"357 81 CURVE SMOOTH",
"448 81 OFFCURVE",
"537 154 OFFCURVE",
"601 241 CURVE SMOOTH",
"633 284 OFFCURVE",
"659 325 OFFCURVE",
"678 364 CURVE",
"678 376 LINE SMOOTH",
"679 441 OFFCURVE",
"689 507 OFFCURVE",
"710 574 CURVE"
);
}
);
width = 1492;
}
);
note = ae;
unicode = 00E6;
},
{
glyphname = aeacute;
layers = (
{
layerId = "4C84AE98-85C0-4DB9-B47D-A9DF131BEAEE";
name = "Light Italic";
paths = (
{
closed = 1;
nodes = (
"971 1487 LINE",
"1064 1393 LINE",
"1040 1354 OFFCURVE",
"949 1253 OFFCURVE",
"855 1170 CURVE SMOOTH",
"808 1128 OFFCURVE",
"768 1098 OFFCURVE",
"735 1079 CURVE",
"693 1121 LINE"
);
},
{
closed = 1;
nodes = (
"67 540 OFFCURVE",
"160 762 OFFCURVE",
"328 898 CURVE SMOOTH",
"412 965 OFFCURVE",
"509 999 OFFCURVE",
"619 999 CURVE SMOOTH",
"674 999 OFFCURVE",
"739 987 OFFCURVE",
"792 968 CURVE",
"793 970 LINE",
"891 999 LINE",
"866 857 LINE",
"955 948 OFFCURVE",
"1063 999 OFFCURVE",
"1176 999 CURVE SMOOTH",
"1276 999 OFFCURVE",
"1345 958 OFFCURVE",
"1378 893 CURVE SMOOTH",
"1395 860 OFFCURVE",
"1403 824 OFFCURVE",
"1403 783 CURVE SMOOTH",
"1403 618 OFFCURVE",
"1239 502 OFFCURVE",
"1051 446 CURVE SMOOTH",
"956 418 OFFCURVE",
"874 403 OFFCURVE",
"805 402 CURVE",
"804 379 OFFCURVE",
"804 362 OFFCURVE",
"804 351 CURVE SMOOTH",
"804 170 OFFCURVE",
"870 79 OFFCURVE",
"1003 79 CURVE SMOOTH",
"1108 79 OFFCURVE",
"1228 125 OFFCURVE",
"1327 218 CURVE",
"1358 160 LINE",
"1321 109 OFFCURVE",
"1243 50 OFFCURVE",
"1144 12 CURVE SMOOTH",
"1094 -7 OFFCURVE",
"1042 -17 OFFCURVE",
"989 -17 CURVE SMOOTH",
"797 -17 OFFCURVE",
"697 92 OFFCURVE",
"674 273 CURVE",
"627 176 OFFCURVE",
"557 83 OFFCURVE",
"467 26 CURVE SMOOTH",
"422 -3 OFFCURVE",
"375 -17 OFFCURVE",
"326 -17 CURVE SMOOTH",
"153 -17 OFFCURVE",
"67 118 OFFCURVE",
"67 353 CURVE SMOOTH"
);
},
{
closed = 1;
nodes = (
"1269 869 OFFCURVE",
"1222 919 OFFCURVE",
"1134 919 CURVE SMOOTH",
"1015 919 OFFCURVE",
"917 816 OFFCURVE",
"861 680 CURVE SMOOTH",
"832 611 OFFCURVE",
"815 544 OFFCURVE",
"809 479 CURVE",
"944 483 OFFCURVE",
"1101 534 OFFCURVE",
"1197 622 CURVE SMOOTH",
"1245 665 OFFCURVE",
"1269 716 OFFCURVE",
"1269 773 CURVE SMOOTH"
);
},
{
closed = 1;
nodes = (
"752 869 LINE",
"717 900 OFFCURVE",
"666 915 OFFCURVE",
"599 915 CURVE SMOOTH",
"435 915 OFFCURVE",
"311 789 OFFCURVE",
"248 619 CURVE SMOOTH",
"217 534 OFFCURVE",
"201 450 OFFCURVE",
"201 368 CURVE SMOOTH",
"201 173 OFFCURVE",
"253 81 OFFCURVE",
"348 81 CURVE SMOOTH",
"439 81 OFFCURVE",
"528 154 OFFCURVE",
"592 241 CURVE SMOOTH",
"624 284 OFFCURVE",
"650 325 OFFCURVE",
"669 364 CURVE",
"669 376 LINE SMOOTH",
"670 441 OFFCURVE",
"680 507 OFFCURVE",
"701 574 CURVE"
);
}
);
width = 1471;
}
);
note = aeacute;
unicode = 01FD;
},
{
glyphname = b;
layers = (
{
layerId = "4C84AE98-85C0-4DB9-B47D-A9DF131BEAEE";
name = "Light Italic";
paths = (
{
closed = 1;
nodes = (
"205 1333 LINE",
"218 1391 LINE",
"394 1419 LINE",
"429 1399 LINE",
"353 837 LINE",
"418 926 OFFCURVE",
"525 1000 OFFCURVE",
"642 1000 CURVE SMOOTH",
"771 1000 OFFCURVE",
"859 934 OFFCURVE",
"903 822 CURVE SMOOTH",
"924 766 OFFCURVE",
"935 701 OFFCURVE",
"935 628 CURVE SMOOTH",
"935 441 OFFCURVE",
"843 220 OFFCURVE",
"678 85 CURVE SMOOTH",
"595 17 OFFCURVE",
"499 -17 OFFCURVE",
"390 -17 CURVE SMOOTH",
"321 -17 OFFCURVE",
"231 3 OFFCURVE",
"179 28 CURVE",
"113 -4 LINE",
"287 1304 LINE"
);
},
{
closed = 1;
nodes = (
"255 112 LINE",
"292 82 OFFCURVE",
"344 67 OFFCURVE",
"411 67 CURVE SMOOTH",
"576 67 OFFCURVE",
"696 199 OFFCURVE",
"756 371 CURVE SMOOTH",
"786 456 OFFCURVE",
"801 539 OFFCURVE",
"801 618 CURVE SMOOTH",
"801 797 OFFCURVE",
"735 901 OFFCURVE",
"622 901 CURVE SMOOTH",
"542 901 OFFCURVE",
"462 857 OFFCURVE",
"405 801 CURVE SMOOTH",
"376 772 OFFCURVE",
"354 744 OFFCURVE",
"337 716 CURVE"
);
}
);
width = 1011;
}
);
note = b;
unicode = 0062;
},
